<svg width="230" height="230" viewBox="0 0 230 230" fill="none" xmlns="http://www.w3.org/2000/svg">
<rect width="230" height="230" fill="#24282F"/>
<g clip-path="url(#clip0_1510_912)">
<path d="M110.029 118.82C109.369 125.08 107.569 130.9 104.909 136.02C104.029 137.74 103.049 139.38 101.989 140.92C101.629 141.44 101.269 141.94 100.889 142.44C99.7692 143.94 98.5692 145.34 97.2892 146.64C89.6492 154.44 79.4492 158.74 68.7292 157.6C67.7492 157.5 66.7892 157.34 65.8292 157.14C65.4292 157.08 65.0492 156.98 64.6492 156.88C64.2092 156.78 63.7692 156.66 63.3292 156.54C62.4292 156.3 61.5492 156 60.6892 155.66C60.2892 155.5 59.8892 155.34 59.4692 155.16C59.0692 155 58.6492 154.8 58.2492 154.62C57.4292 154.24 56.6292 153.82 55.8492 153.34C55.5092 153.14 55.1492 152.92 54.8092 152.72C54.7492 152.7 54.7092 152.66 54.6492 152.6C54.2892 152.38 53.9292 152.14 53.5692 151.88C52.1092 150.88 50.7092 149.74 49.4092 148.52C48.6692 147.82 47.9492 147.1 47.2892 146.34C47.0092 146.04 46.7492 145.74 46.4892 145.42C45.5292 144.32 44.6492 143.14 43.8292 141.9C43.6092 141.56 43.3692 141.22 43.1692 140.88C42.6492 140.08 42.1692 139.26 41.7292 138.42C41.4892 138 41.2692 137.58 41.0692 137.14C39.9692 134.98 39.0692 132.68 38.3492 130.28C38.2092 129.82 38.0692 129.38 37.9492 128.92C38.0892 129.22 38.2292 129.48 38.3892 129.78C38.6692 130.38 38.9892 130.98 39.3292 131.58C39.4492 131.82 39.5892 132.06 39.7292 132.28C39.9692 132.76 40.2692 133.24 40.5692 133.7C40.6892 133.86 40.7892 134.04 40.8892 134.2C41.1692 134.62 41.4492 135.06 41.7492 135.46C42.0092 135.86 42.3092 136.26 42.6292 136.64C42.7492 136.84 42.9092 137.02 43.0492 137.2C43.2692 137.52 43.5292 137.82 43.8092 138.12C44.0892 138.48 44.3892 138.82 44.7092 139.16C45.1692 139.68 45.6492 140.18 46.1292 140.66C46.5292 141.06 46.9292 141.44 47.3492 141.8C47.4692 141.94 47.6092 142.04 47.7292 142.16C48.1492 142.52 48.5892 142.88 49.0292 143.22C49.9292 143.96 50.8492 144.64 51.7892 145.22C52.2492 145.54 52.7092 145.82 53.1692 146.1C53.8292 146.48 54.4892 146.84 55.1492 147.16C55.3692 147.28 55.6092 147.38 55.8292 147.48C56.2892 147.72 56.7692 147.92 57.2292 148.1C57.4492 148.2 57.6892 148.3 57.9292 148.38C58.5692 148.64 59.2292 148.88 59.8892 149.08C60.4292 149.26 60.9892 149.42 61.5492 149.56C61.5892 149.58 61.6292 149.58 61.6492 149.58C62.2492 149.72 62.8492 149.86 63.4692 149.98C63.7092 150.04 63.9492 150.08 64.1692 150.1C64.8092 150.22 65.4492 150.32 66.1092 150.38C86.3892 152.56 104.869 135.2 107.389 111.6C107.469 110.9 107.529 110.2 107.569 109.5C108.789 110.36 109.709 111.18 110.269 111.88C110.369 114.16 110.269 116.48 110.029 118.82Z" fill="#E0D7D1"/>
<path d="M37.813 115.34C37.293 120.34 37.513 125.18 38.393 129.78C38.233 129.48 38.093 129.22 37.953 128.92C37.813 128.4 37.693 127.9 37.573 127.38C37.313 126.36 37.113 125.34 36.953 124.3C36.893 123.98 36.853 123.64 36.793 123.3C36.633 122.24 36.513 121.16 36.433 120.1C36.393 119.5 36.353 118.9 36.333 118.3C36.313 117.66 36.293 117.02 36.293 116.38V116.24C36.293 114.52 36.393 112.74 36.573 110.96C36.853 108.4 37.313 105.92 37.953 103.52C39.013 103 40.073 102.52 41.133 102.08C39.453 106.18 38.313 110.64 37.813 115.34Z" fill="white"/>
<path d="M68.1128 97.6197H68.0928C66.1728 97.5597 64.2328 97.5397 62.2928 97.6197C58.7928 97.7597 55.2528 98.1597 51.7328 98.8597C50.2128 99.1797 48.7128 99.5397 47.2128 99.9797C45.1728 100.56 43.1328 101.26 41.1328 102.08C39.4528 106.18 38.3128 110.64 37.8128 115.34C37.2928 120.34 37.5128 125.18 38.3928 129.78C38.6928 130.4 39.0128 131 39.3328 131.58C39.4528 131.82 39.5928 132.06 39.7328 132.28C39.9928 132.76 40.2728 133.24 40.5728 133.7C40.6928 133.86 40.7928 134.04 40.8928 134.2C41.1728 134.62 41.4528 135.06 41.7528 135.46C42.0128 135.86 42.3128 136.26 42.6328 136.64C42.7528 136.84 42.9128 137.02 43.0528 137.2C43.2728 137.52 43.5328 137.82 43.8128 138.12C44.0928 138.48 44.3928 138.82 44.7128 139.16C45.1728 139.68 45.6528 140.18 46.1328 140.66C46.5328 141.06 46.9328 141.44 47.3528 141.8C47.4728 141.94 47.6128 142.04 47.7328 142.16C48.1528 142.52 48.5928 142.88 49.0328 143.22C49.9328 143.96 50.8528 144.64 51.7928 145.22C52.2528 145.54 52.7128 145.82 53.1728 146.1C53.8328 146.48 54.4928 146.84 55.1528 147.16C55.3728 147.28 55.6128 147.38 55.8328 147.48C56.2928 147.72 56.7728 147.92 57.2328 148.1C57.4528 148.2 57.6928 148.3 57.9328 148.38C58.5728 148.64 59.2328 148.88 59.8928 149.08C60.4328 149.26 60.9928 149.42 61.5528 149.56C61.5928 149.56 61.6328 149.56 61.6528 149.56C62.2528 149.7 62.8528 149.84 63.4728 149.96C63.7128 150.02 63.9528 150.06 64.1728 150.08C64.8128 150.2 65.4528 150.3 66.1128 150.36C86.3928 152.54 104.873 135.18 107.393 111.58C107.473 110.88 107.533 110.18 107.573 109.48C104.693 107.42 100.073 105 94.3528 102.9C87.8728 100.5 79.9528 98.4997 71.4528 97.7997L68.1128 97.5997V97.6197Z" fill="#F1E9E5"/>
<path d="M110.273 111.88C110.373 114.16 110.293 116.48 110.033 118.82C109.373 125.08 107.573 130.9 104.913 136.02C104.033 137.74 103.053 139.38 101.993 140.92C101.633 141.44 101.273 141.94 100.893 142.44C99.773 143.94 98.573 145.34 97.293 146.64C89.653 154.44 79.453 158.74 68.733 157.6C67.753 157.5 66.793 157.34 65.833 157.14C65.433 157.08 65.053 156.98 64.653 156.88C64.213 156.78 63.773 156.66 63.333 156.54C62.433 156.3 61.553 156 60.693 155.66C60.293 155.5 59.893 155.34 59.473 155.16C59.073 155 58.653 154.8 58.253 154.62C57.433 154.24 56.633 153.82 55.853 153.34C55.513 153.14 55.153 152.92 54.813 152.72C54.753 152.7 54.713 152.66 54.653 152.6C54.293 152.38 53.933 152.14 53.573 151.88C52.113 150.9 50.713 149.76 49.413 148.52C48.673 147.82 47.953 147.1 47.293 146.34C47.013 146.04 46.753 145.74 46.493 145.42C45.533 144.32 44.653 143.14 43.833 141.9C43.613 141.56 43.373 141.22 43.173 140.88C42.653 140.08 42.173 139.26 41.733 138.42C41.493 138 41.273 137.58 41.073 137.14C39.973 134.98 39.073 132.68 38.353 130.28C38.213 129.82 38.073 129.38 37.953 128.92C37.813 128.4 37.693 127.9 37.573 127.38C37.313 126.36 37.113 125.34 36.953 124.3C36.893 123.98 36.853 123.64 36.793 123.3C36.633 122.24 36.513 121.16 36.433 120.1C36.393 119.5 36.353 118.9 36.333 118.3C36.333 117.66 36.293 117.02 36.293 116.38V116.24C36.293 114.48 36.373 112.74 36.573 110.96C36.853 108.4 37.313 105.92 37.953 103.52C39.013 103 40.073 102.52 41.133 102.08C43.133 101.26 45.173 100.56 47.213 99.9797C48.713 99.5397 50.213 99.1797 51.733 98.8597C55.253 98.1597 58.793 97.7597 62.293 97.6197C64.233 97.5397 66.173 97.5597 68.093 97.6197H68.113M71.453 97.8197C79.953 98.5197 87.873 100.52 94.353 102.92C100.073 105.02 104.693 107.44 107.573 109.5" stroke="black" stroke-width="2" stroke-linecap="round" stroke-linejoin="round"/>
<path d="M95.5498 117.459C93.6698 135.119 80.5898 148.199 66.3498 146.679C54.7298 145.419 45.9098 134.879 44.0898 121.459C46.8098 130.779 53.3098 137.939 62.0098 139.859C76.0098 142.939 90.4498 131.399 94.2698 114.059C94.8298 111.519 95.1298 109.019 95.1898 106.559C95.8098 110.019 95.9498 113.679 95.5498 117.459Z" fill="black"/>
<path d="M68.1147 97.6197H68.0947C66.1747 97.5597 64.2347 97.5397 62.2947 97.6197C58.7947 97.7597 55.2547 98.1597 51.7347 98.8597C50.2147 99.1797 48.7147 99.5397 47.2147 99.9797C45.5547 103.6 44.4347 107.64 43.9747 111.96C43.6147 115.22 43.6747 118.42 44.0947 121.46C46.8147 130.78 53.3147 137.94 62.0147 139.86C76.0147 142.94 90.4547 131.4 94.2747 114.06C94.8347 111.52 95.1347 109.02 95.1947 106.56C94.9747 105.32 94.6947 104.1 94.3547 102.92C87.8747 100.52 79.9547 98.5197 71.4547 97.8197L68.1147 97.6197Z" fill="#1A1A1A"/>
<path d="M62.2905 97.6196C60.6105 98.9396 58.3705 99.7396 55.9505 99.7396C54.4305 99.7396 53.0105 99.4396 51.7305 98.8596C55.2505 98.1596 58.7905 97.7596 62.2905 97.6196Z" fill="#2C2C2C"/>
<path d="M68.1155 97.6196H68.0955C65.9355 98.1596 64.3555 99.9196 64.3555 102.02C64.3555 104.52 66.6355 106.56 69.4555 106.56C72.2755 106.56 74.5755 104.52 74.5755 102.02C74.5755 100.14 73.2755 98.4996 71.4555 97.8196L68.1155 97.6196Z" fill="#2C2C2C"/>
<path d="M37.9492 103.52C39.0092 103 40.0692 102.52 41.1292 102.08C43.1292 101.26 45.1692 100.56 47.2092 99.9797C48.7092 99.5397 50.2092 99.1797 51.7292 98.8597C55.2492 98.1597 58.7892 97.7597 62.2892 97.6197C64.2292 97.5397 66.1692 97.5597 68.0892 97.6197H68.1092C69.2492 97.6597 70.3492 97.7397 71.4492 97.8197C79.9492 98.5197 87.8692 100.52 94.3492 102.92C100.069 105.02 104.689 107.44 107.569 109.5C108.789 110.36 109.709 111.18 110.269 111.88C110.269 111.88 110.309 111.92 110.309 111.94" stroke="black" stroke-width="2" stroke-linecap="round" stroke-linejoin="round"/>
<path d="M45.0119 94.2594C38.3719 93.2394 35.2119 100.899 37.9519 103.519" stroke="black" stroke-width="2" stroke-linecap="round" stroke-linejoin="round"/>
<path d="M105.41 101.08C113.53 102.1 113.99 110.72 110.31 111.94" stroke="black" stroke-width="2" stroke-linecap="round" stroke-linejoin="round"/>
<path d="M119.376 118.82C120.036 125.08 121.836 130.9 124.496 136.02C125.376 137.74 126.356 139.38 127.416 140.92C127.776 141.44 128.136 141.94 128.516 142.44C129.636 143.94 130.836 145.34 132.116 146.64C139.756 154.44 149.956 158.74 160.676 157.6C161.656 157.5 162.616 157.34 163.576 157.14C163.976 157.08 164.356 156.98 164.756 156.88C165.196 156.78 165.636 156.66 166.076 156.54C166.976 156.3 167.856 156 168.716 155.66C169.116 155.5 169.516 155.34 169.936 155.16C170.336 155 170.756 154.8 171.156 154.62C171.976 154.24 172.776 153.82 173.556 153.34C173.896 153.14 174.256 152.92 174.596 152.72C174.656 152.7 174.696 152.66 174.756 152.6C175.116 152.38 175.476 152.14 175.836 151.88C177.296 150.88 178.696 149.74 179.996 148.52C180.736 147.82 181.456 147.1 182.116 146.34C182.396 146.04 182.656 145.74 182.916 145.42C183.876 144.32 184.756 143.14 185.576 141.9C185.796 141.56 186.036 141.22 186.236 140.88C186.756 140.08 187.236 139.26 187.676 138.42C187.916 138 188.136 137.58 188.336 137.14C189.436 134.98 190.336 132.68 191.056 130.28C191.196 129.82 191.336 129.38 191.456 128.92C191.316 129.22 191.176 129.48 191.016 129.78C190.736 130.38 190.416 130.98 190.076 131.58C189.956 131.82 189.816 132.06 189.676 132.28C189.436 132.76 189.136 133.24 188.836 133.7C188.716 133.86 188.616 134.04 188.516 134.2C188.236 134.62 187.956 135.06 187.656 135.46C187.396 135.86 187.096 136.26 186.776 136.64C186.656 136.84 186.496 137.02 186.356 137.2C186.136 137.52 185.876 137.82 185.596 138.12C185.316 138.48 185.016 138.82 184.696 139.16C184.236 139.68 183.756 140.18 183.276 140.66C182.876 141.06 182.476 141.44 182.056 141.8C181.936 141.94 181.796 142.04 181.676 142.16C181.256 142.52 180.816 142.88 180.376 143.22C179.476 143.96 178.556 144.64 177.616 145.22C177.156 145.54 176.696 145.82 176.236 146.1C175.576 146.48 174.916 146.84 174.256 147.16C174.036 147.28 173.796 147.38 173.576 147.48C173.116 147.72 172.636 147.92 172.176 148.1C171.956 148.2 171.716 148.3 171.476 148.38C170.836 148.64 170.176 148.88 169.516 149.08C168.976 149.26 168.416 149.42 167.856 149.56C167.816 149.58 167.776 149.58 167.756 149.58C167.156 149.72 166.556 149.86 165.936 149.98C165.696 150.04 165.456 150.08 165.236 150.1C164.596 150.22 163.956 150.32 163.296 150.38C143.016 152.56 124.536 135.2 122.016 111.6C121.936 110.9 121.876 110.2 121.836 109.5C120.616 110.36 119.696 111.18 119.136 111.88C119.036 114.16 119.136 116.48 119.376 118.82Z" fill="#E0D7D1"/>
<path d="M191.59 115.34C192.11 120.34 191.89 125.18 191.01 129.78C191.17 129.48 191.31 129.22 191.45 128.92C191.59 128.4 191.71 127.9 191.83 127.38C192.09 126.36 192.29 125.34 192.45 124.3C192.51 123.98 192.55 123.64 192.61 123.3C192.77 122.24 192.89 121.16 192.97 120.1C193.01 119.5 193.05 118.9 193.07 118.3C193.09 117.66 193.11 117.02 193.11 116.38V116.24C193.11 114.52 193.01 112.74 192.83 110.96C192.55 108.4 192.09 105.92 191.45 103.52C190.39 103 189.33 102.52 188.27 102.08C189.95 106.18 191.09 110.64 191.59 115.34Z" fill="white"/>
<path d="M157.952 97.8192C149.452 98.5192 141.532 100.519 135.052 102.919C129.332 105.019 124.712 107.439 121.832 109.499C121.872 110.199 121.932 110.899 122.012 111.599C124.532 135.199 143.012 152.559 163.292 150.379C163.952 150.319 164.592 150.219 165.232 150.099C165.452 150.099 165.692 150.039 165.932 149.979C166.552 149.859 167.152 149.719 167.752 149.579C167.772 149.579 167.812 149.579 167.852 149.579C168.412 149.439 168.972 149.279 169.512 149.099C170.172 148.899 170.832 148.659 171.472 148.399C171.712 148.319 171.952 148.219 172.172 148.119C172.632 147.939 173.112 147.739 173.572 147.499C173.792 147.399 174.032 147.299 174.252 147.179C174.912 146.859 175.572 146.499 176.232 146.119C176.692 145.839 177.152 145.559 177.612 145.239C178.552 144.659 179.472 143.979 180.372 143.239C180.812 142.899 181.252 142.539 181.672 142.179C181.792 142.059 181.932 141.959 182.052 141.819C182.472 141.459 182.872 141.079 183.272 140.679C183.752 140.199 184.232 139.699 184.692 139.179C185.012 138.839 185.312 138.499 185.592 138.139C185.872 137.839 186.132 137.539 186.352 137.219C186.492 137.039 186.652 136.859 186.772 136.659C187.092 136.279 187.392 135.879 187.652 135.479C187.952 135.079 188.232 134.639 188.512 134.219C188.612 134.059 188.712 133.879 188.832 133.719C189.132 133.259 189.412 132.779 189.672 132.299C189.812 132.079 189.952 131.839 190.072 131.599C190.392 131.019 190.712 130.419 191.012 129.799C191.892 125.199 192.112 120.359 191.592 115.359C191.092 110.659 189.952 106.199 188.272 102.099C186.272 101.279 184.232 100.579 182.192 99.9992C180.692 99.5592 179.192 99.1992 177.672 98.8792C174.152 98.1792 170.612 97.7792 167.112 97.6392C165.172 97.5592 163.232 97.5792 161.312 97.6392H161.292L157.952 97.8392V97.8192Z" fill="#F1E9E5"/>
<path d="M161.292 97.6197H161.312C163.232 97.5597 165.172 97.5397 167.112 97.6197C170.612 97.7597 174.152 98.1597 177.672 98.8597C179.192 99.1797 180.692 99.5397 182.192 99.9797C184.232 100.56 186.272 101.26 188.272 102.08C189.332 102.52 190.392 103 191.452 103.52C192.092 105.92 192.552 108.4 192.832 110.96C193.032 112.74 193.112 114.48 193.112 116.24V116.38C193.112 117.02 193.092 117.66 193.072 118.3C193.052 118.9 193.012 119.5 192.972 120.1C192.892 121.16 192.772 122.24 192.612 123.3C192.552 123.64 192.512 123.98 192.452 124.3C192.292 125.34 192.092 126.36 191.832 127.38C191.712 127.9 191.592 128.4 191.452 128.9C191.332 129.38 191.192 129.82 191.052 130.28C190.332 132.68 189.432 134.98 188.332 137.14C188.132 137.58 187.912 138 187.672 138.42C187.232 139.26 186.752 140.08 186.232 140.88C186.032 141.22 185.792 141.56 185.572 141.9C184.752 143.14 183.872 144.32 182.912 145.42C182.652 145.74 182.392 146.04 182.112 146.34C181.452 147.1 180.732 147.82 179.992 148.52C178.692 149.76 177.292 150.9 175.832 151.88C175.472 152.14 175.112 152.38 174.752 152.6C174.692 152.66 174.652 152.7 174.592 152.72C174.252 152.92 173.892 153.14 173.552 153.34C172.772 153.82 171.972 154.24 171.152 154.62C170.752 154.8 170.332 155 169.932 155.16C169.512 155.34 169.112 155.5 168.712 155.66C167.852 156 166.972 156.3 166.072 156.54C165.632 156.66 165.192 156.78 164.752 156.88C164.352 156.98 163.972 157.08 163.572 157.14C162.612 157.34 161.652 157.5 160.672 157.6C149.952 158.74 139.752 154.44 132.112 146.64C130.832 145.34 129.632 143.94 128.512 142.44C128.132 141.94 127.772 141.44 127.412 140.92C126.352 139.38 125.372 137.74 124.492 136.02C121.832 130.9 120.032 125.08 119.372 118.82C119.112 116.48 119.032 114.16 119.132 111.9M121.832 109.5C124.712 107.44 129.332 105.02 135.052 102.92C141.532 100.52 149.452 98.5197 157.952 97.8197" stroke="black" stroke-width="2" stroke-linecap="round" stroke-linejoin="round"/>
<path d="M133.854 117.459C135.734 135.119 148.814 148.199 163.054 146.679C174.674 145.419 183.494 134.879 185.314 121.459C182.594 130.779 176.094 137.939 167.394 139.859C153.394 142.939 138.954 131.399 135.134 114.059C134.574 111.519 134.274 109.019 134.214 106.559C133.594 110.019 133.454 113.679 133.854 117.459Z" fill="black"/>
<path d="M157.955 97.8197C149.455 98.5197 141.535 100.52 135.055 102.92C134.715 104.1 134.435 105.32 134.215 106.56C134.275 109.02 134.575 111.52 135.135 114.06C138.955 131.4 153.395 142.94 167.395 139.86C176.095 137.94 182.595 130.78 185.315 121.46C185.735 118.42 185.795 115.22 185.435 111.96C184.975 107.64 183.855 103.6 182.195 99.9797C180.695 99.5397 179.195 99.1797 177.675 98.8597C174.155 98.1597 170.615 97.7597 167.115 97.6197C165.175 97.5397 163.235 97.5597 161.315 97.6197H161.295L157.955 97.8197Z" fill="#1A1A1A"/>
<path d="M167.113 97.6196C168.793 98.9396 171.033 99.7396 173.453 99.7396C174.973 99.7396 176.393 99.4396 177.673 98.8596C174.153 98.1596 170.613 97.7596 167.113 97.6196Z" fill="#2C2C2C"/>
<path d="M157.952 97.8196C156.132 98.4996 154.832 100.14 154.832 102.02C154.832 104.52 157.132 106.56 159.952 106.56C162.772 106.56 165.052 104.52 165.052 102.02C165.052 99.9196 163.472 98.1596 161.312 97.6196H161.292L157.952 97.8196Z" fill="#2C2C2C"/>
<path d="M119.09 111.94C119.09 111.94 119.11 111.94 119.13 111.9C119.69 111.18 120.61 110.36 121.83 109.5C124.71 107.44 129.33 105.02 135.05 102.92C141.53 100.52 149.45 98.5197 157.95 97.8197C159.05 97.7397 160.15 97.6597 161.29 97.6197H161.31C163.23 97.5597 165.17 97.5397 167.11 97.6197C170.61 97.7597 174.15 98.1597 177.67 98.8597C179.19 99.1797 180.69 99.5397 182.19 99.9797C184.23 100.56 186.27 101.26 188.27 102.08C189.33 102.52 190.39 103 191.45 103.52" stroke="black" stroke-width="2" stroke-linecap="round" stroke-linejoin="round"/>
<path d="M184.395 94.2594C191.035 93.2394 194.195 100.899 191.455 103.519" stroke="black" stroke-width="2" stroke-linecap="round" stroke-linejoin="round"/>
<path d="M123.995 101.08C115.875 102.1 115.415 110.72 119.095 111.94" stroke="black" stroke-width="2" stroke-linecap="round" stroke-linejoin="round"/>
<path d="M36.2891 116.72C36.4691 137.86 50.1091 155.6 68.7291 157.6C86.9291 159.54 103.709 145.74 108.749 125.84" stroke="black" stroke-width="2" stroke-miterlimit="10"/>
<path d="M41.1719 94.8198C48.3319 79.9998 62.5919 70.5598 77.8719 72.1798C93.2119 73.8198 105.172 86.1198 108.992 102.24" stroke="black" stroke-width="2" stroke-miterlimit="10"/>
<path d="M120.648 125.84C125.688 145.74 142.468 159.54 160.668 157.6C179.288 155.6 192.928 137.86 193.108 116.72" stroke="black" stroke-width="2" stroke-miterlimit="10"/>
<path d="M120.406 102.24C124.226 86.1198 136.186 73.8198 151.526 72.1798C166.806 70.5598 181.066 79.9998 188.226 94.8198" stroke="black" stroke-width="2" stroke-miterlimit="10"/>
</g>
<defs>
<clipPath id="clip0_1510_912">
<rect width="158.82" height="87.78" fill="white" transform="translate(35.2969 71)"/>
</clipPath>
</defs>
</svg>
