<svg width="230" height="230" viewBox="0 0 230 230" fill="none" xmlns="http://www.w3.org/2000/svg">
<g clip-path="url(#clip0_1513_1288)">
<path d="M118.8 37L37 118.8V67.83C37 50.81 50.81 37 67.83 37H118.8Z" fill="#F0F1FF"/>
<path d="M176.65 41.13L41.13 176.65C38.51 172.11 37 166.84 37 161.22V141.34L141.34 37H161.22C166.84 37 172.11 38.5 176.65 41.13Z" fill="#F0F1FF"/>
<path d="M192.05 67.8299V87.7299L87.7302 192.05H67.8302C62.2102 192.05 56.9402 190.55 52.4102 187.92L187.92 52.3999C190.54 56.9399 192.05 62.2099 192.05 67.8299Z" fill="#F0F1FF"/>
<path d="M110.27 192.05L192.05 110.27V161.22C192.05 178.25 178.25 192.05 161.22 192.05H110.27Z" fill="#F0F1FF"/>
</g>
<defs>
<clipPath id="clip0_1513_1288">
<rect width="155.05" height="155.05" fill="white" transform="translate(37 37)"/>
</clipPath>
</defs>
</svg>
