<svg width="230" height="230" viewBox="0 0 230 230" fill="none" xmlns="http://www.w3.org/2000/svg">
<rect width="230" height="230" fill="#24282F"/>
<g clip-path="url(#clip0_1504_894)">
<path d="M110.736 118.875C108.216 142.455 89.7362 159.815 69.4562 157.655C54.5562 156.055 42.8362 144.375 38.6562 128.955C44.1163 140.715 54.3562 149.095 66.8162 150.435C87.0963 152.615 105.576 135.255 108.096 111.655C108.776 105.335 108.236 99.1947 106.676 93.5747C110.136 100.975 111.716 109.715 110.736 118.875Z" fill="#E0D7D1"/>
<path d="M107.521 97.1748C101.981 85.8948 91.9609 77.9148 79.8209 76.6148C59.5409 74.4548 41.0409 91.8148 38.5209 115.395C38.0009 120.395 38.2209 125.235 39.1009 129.835C38.9409 129.535 38.8009 129.255 38.6609 128.955C37.1409 123.355 36.6209 117.295 37.2809 111.015C39.8009 87.4348 58.3009 70.0748 78.5809 72.2348C91.0009 73.5548 101.201 81.8948 106.681 93.5748C107.001 94.7548 107.301 95.9548 107.521 97.1748Z" fill="white"/>
<path d="M108.104 111.655C105.584 135.255 87.1037 152.615 66.8237 150.435C54.6837 149.135 44.6437 141.135 39.1037 129.835C38.2237 125.235 38.0037 120.395 38.5237 115.395C41.0437 91.8147 59.5437 74.4547 79.8237 76.6147C91.9637 77.9147 101.984 85.8947 107.524 97.1747C108.424 101.775 108.644 106.655 108.104 111.655Z" fill="#F1E9E5"/>
<path d="M110.761 118.86C113.282 95.2683 98.8813 74.3859 78.5954 72.2179C58.3095 70.05 39.8207 87.4175 37.2995 111.009C34.7782 134.601 49.1793 155.484 69.4652 157.651C89.7511 159.819 108.24 142.452 110.761 118.86Z" stroke="black" stroke-width="2" stroke-miterlimit="10"/>
<path d="M96.2569 117.515C94.3769 135.175 81.2969 148.255 67.0569 146.735C55.4369 145.475 46.6169 134.935 44.7969 121.515C47.5169 130.835 54.0169 137.995 62.7169 139.915C76.7169 142.995 91.1569 131.455 94.9769 114.115C95.5369 111.575 95.8369 109.075 95.8969 106.615C96.5169 110.075 96.6569 113.735 96.2569 117.515Z" fill="black"/>
<path d="M95.9017 106.614C95.8417 109.074 95.5417 111.574 94.9817 114.114C91.1617 131.454 76.7217 142.994 62.7217 139.914C54.0217 137.994 47.5217 130.834 44.8017 121.514C44.3817 118.474 44.3217 115.274 44.6817 112.014C45.2817 106.434 46.9817 101.314 49.5017 96.9744C52.7817 91.2944 57.4217 86.9344 62.7417 84.5944C66.2417 83.0544 70.0217 82.3744 73.8817 82.7944C85.0817 83.9944 93.6617 93.8544 95.9017 106.614Z" fill="#1A1A1A"/>
<path d="M66.3 91.2338C66.3 95.9538 61.98 99.7937 56.66 99.7937C53.82 99.7937 51.26 98.7138 49.5 96.9738C52.78 91.2938 57.42 86.9337 62.74 84.5938C64.9 86.1537 66.3 88.5538 66.3 91.2338Z" fill="#2C2C2C"/>
<path d="M70.1625 106.634C72.9792 106.634 75.2625 104.593 75.2625 102.074C75.2625 99.5557 72.9792 97.5142 70.1625 97.5142C67.3458 97.5142 65.0625 99.5557 65.0625 102.074C65.0625 104.593 67.3458 106.634 70.1625 106.634Z" fill="#2C2C2C"/>
<path d="M120.251 118.875C122.771 142.455 141.251 159.815 161.531 157.655C176.431 156.055 188.151 144.375 192.331 128.955C186.871 140.715 176.631 149.095 164.171 150.435C143.891 152.615 125.411 135.255 122.891 111.655C122.211 105.335 122.751 99.1947 124.311 93.5747C120.851 100.975 119.271 109.715 120.251 118.875Z" fill="#E0D7D1"/>
<path d="M123.465 97.1748C129.005 85.8948 139.025 77.9148 151.165 76.6148C171.445 74.4548 189.945 91.8148 192.465 115.395C192.985 120.395 192.765 125.235 191.885 129.835C192.045 129.535 192.185 129.255 192.325 128.955C193.845 123.355 194.365 117.295 193.705 111.015C191.185 87.4348 172.685 70.0748 152.405 72.2348C139.985 73.5548 129.785 81.8948 124.305 93.5748C123.985 94.7548 123.685 95.9548 123.465 97.1748Z" fill="white"/>
<path d="M122.889 111.655C125.409 135.255 143.889 152.615 164.169 150.435C176.309 149.135 186.349 141.135 191.889 129.835C192.769 125.235 192.989 120.395 192.469 115.395C189.949 91.8152 171.449 74.4552 151.169 76.6152C139.029 77.9152 129.009 85.8952 123.469 97.1752C122.569 101.775 122.349 106.655 122.889 111.655Z" fill="#F1E9E5"/>
<path d="M161.552 157.667C181.838 155.499 196.239 134.616 193.718 111.025C191.197 87.4328 172.708 70.0654 152.422 72.2333C132.136 74.4012 117.735 95.2836 120.257 118.875C122.778 142.467 141.267 159.835 161.552 157.667Z" stroke="black" stroke-width="2" stroke-miterlimit="10"/>
<path d="M134.729 117.515C136.609 135.175 149.689 148.255 163.929 146.735C175.549 145.475 184.369 134.935 186.189 121.515C183.469 130.835 176.969 137.995 168.269 139.915C154.269 142.995 139.829 131.455 136.009 114.115C135.449 111.575 135.149 109.075 135.089 106.615C134.469 110.075 134.329 113.735 134.729 117.515Z" fill="black"/>
<path d="M135.09 106.614C135.15 109.074 135.45 111.574 136.01 114.114C139.83 131.454 154.27 142.994 168.27 139.914C176.97 137.994 183.47 130.834 186.19 121.514C186.61 118.474 186.67 115.274 186.31 112.014C185.71 106.434 184.01 101.314 181.49 96.9744C178.21 91.2944 173.57 86.9344 168.25 84.5944C164.75 83.0544 160.97 82.3744 157.11 82.7944C145.91 83.9944 137.33 93.8544 135.09 106.614Z" fill="#1A1A1A"/>
<path d="M164.684 91.2342C164.684 95.9542 169.004 99.7942 174.324 99.7942C177.164 99.7942 179.724 98.7142 181.484 96.9742C178.204 91.2942 173.564 86.9342 168.244 84.5942C166.084 86.1542 164.684 88.5542 164.684 91.2342Z" fill="#2C2C2C"/>
<path d="M160.83 106.635C163.647 106.635 165.93 104.594 165.93 102.075C165.93 99.5567 163.647 97.5151 160.83 97.5151C158.014 97.5151 155.73 99.5567 155.73 102.075C155.73 104.594 158.014 106.635 160.83 106.635Z" fill="#2C2C2C"/>
</g>
<defs>
<clipPath id="clip0_1504_894">
<rect width="158.98" height="87.78" fill="white" transform="translate(36 71.0552)"/>
</clipPath>
</defs>
</svg>
