<svg width="230" height="230" viewBox="0 0 230 230" fill="none" xmlns="http://www.w3.org/2000/svg">
<g clip-path="url(#clip0_1513_1244)">
<path d="M110.736 118.82C108.216 142.4 89.7362 159.76 69.4562 157.6C54.5562 156 42.8362 144.32 38.6562 128.9C44.1163 140.66 54.3562 149.04 66.8162 150.38C87.0963 152.56 105.576 135.2 108.096 111.6C108.776 105.28 108.236 99.1395 106.676 93.5195C110.136 100.92 111.716 109.66 110.736 118.82Z" fill="#F0F1FF"/>
<path d="M107.521 97.1196C101.981 85.8396 91.9609 77.8596 79.8209 76.5596C59.5409 74.3996 41.0409 91.7596 38.5209 115.34C38.0009 120.34 38.2209 125.18 39.1009 129.78C38.9409 129.48 38.8009 129.2 38.6609 128.9C37.1409 123.3 36.6209 117.24 37.2809 110.96C39.8009 87.3796 58.3009 70.0196 78.5809 72.1796C91.0009 73.4996 101.201 81.8396 106.681 93.5196C107.001 94.6996 107.301 95.8996 107.521 97.1196Z" fill="#F0F1FF"/>
<path d="M108.104 111.6C105.584 135.2 87.1037 152.56 66.8237 150.38C54.6837 149.08 44.6437 141.08 39.1037 129.78C38.2237 125.18 38.0037 120.34 38.5237 115.34C41.0437 91.7595 59.5437 74.3995 79.8237 76.5595C91.9637 77.8595 101.984 85.8395 107.524 97.1195C108.424 101.72 108.644 106.6 108.104 111.6Z" fill="#F0F1FF"/>
<path d="M110.761 118.805C113.282 95.2131 98.8813 74.3307 78.5954 72.1628C58.3095 69.9948 39.8207 87.3623 37.2995 110.954C34.7782 134.546 49.1793 155.428 69.4652 157.596C89.7511 159.764 108.24 142.397 110.761 118.805Z" stroke="#F0F1FF" stroke-width="2" stroke-miterlimit="10"/>
<path d="M96.2569 117.46C94.3769 135.12 81.2969 148.2 67.0569 146.68C55.4369 145.42 46.6169 134.88 44.7969 121.46C47.5169 130.78 54.0169 137.94 62.7169 139.86C76.7169 142.94 91.1569 131.4 94.9769 114.06C95.5369 111.52 95.8369 109.02 95.8969 106.56C96.5169 110.02 96.6569 113.68 96.2569 117.46Z" fill="#F0F1FF"/>
<path d="M95.9017 106.559C95.8417 109.019 95.5417 111.519 94.9817 114.059C91.1617 131.399 76.7217 142.939 62.7217 139.859C54.0217 137.939 47.5217 130.779 44.8017 121.459C44.3817 118.419 44.3217 115.219 44.6817 111.959C45.2817 106.379 46.9817 101.259 49.5017 96.9192C52.7817 91.2392 57.4217 86.8792 62.7417 84.5392C66.2417 82.9992 70.0217 82.3192 73.8817 82.7392C85.0817 83.9392 93.6617 93.7992 95.9017 106.559Z" fill="#F0F1FF"/>
<path d="M66.3 91.1786C66.3 95.8986 61.98 99.7386 56.66 99.7386C53.82 99.7386 51.26 98.6586 49.5 96.9186C52.78 91.2386 57.42 86.8786 62.74 84.5386C64.9 86.0986 66.3 88.4986 66.3 91.1786Z" fill="#F0F1FF"/>
<path d="M70.1625 106.579C72.9792 106.579 75.2625 104.537 75.2625 102.019C75.2625 99.5006 72.9792 97.459 70.1625 97.459C67.3458 97.459 65.0625 99.5006 65.0625 102.019C65.0625 104.537 67.3458 106.579 70.1625 106.579Z" fill="#F0F1FF"/>
<path d="M120.251 118.82C122.771 142.4 141.251 159.76 161.531 157.6C176.431 156 188.151 144.32 192.331 128.9C186.871 140.66 176.631 149.04 164.171 150.38C143.891 152.56 125.411 135.2 122.891 111.6C122.211 105.28 122.751 99.1395 124.311 93.5195C120.851 100.92 119.271 109.66 120.251 118.82Z" fill="#F0F1FF"/>
<path d="M123.465 97.1196C129.005 85.8396 139.025 77.8596 151.165 76.5596C171.445 74.3996 189.945 91.7596 192.465 115.34C192.985 120.34 192.765 125.18 191.885 129.78C192.045 129.48 192.185 129.2 192.325 128.9C193.845 123.3 194.365 117.24 193.705 110.96C191.185 87.3796 172.685 70.0196 152.405 72.1796C139.985 73.4996 129.785 81.8396 124.305 93.5196C123.985 94.6996 123.685 95.8996 123.465 97.1196Z" fill="#F0F1FF"/>
<path d="M122.889 111.6C125.409 135.2 143.889 152.56 164.169 150.38C176.309 149.08 186.349 141.08 191.889 129.78C192.769 125.18 192.989 120.34 192.469 115.34C189.949 91.76 171.449 74.4 151.169 76.56C139.029 77.86 129.009 85.84 123.469 97.12C122.569 101.72 122.349 106.6 122.889 111.6Z" fill="#F0F1FF"/>
<path d="M161.552 157.612C181.838 155.444 196.239 134.561 193.718 110.969C191.197 87.3777 172.708 70.0102 152.422 72.1781C132.136 74.3461 117.735 95.2285 120.257 118.82C122.778 142.412 141.267 159.78 161.552 157.612Z" stroke="#F0F1FF" stroke-width="2" stroke-miterlimit="10"/>
<path d="M134.729 117.46C136.609 135.12 149.689 148.2 163.929 146.68C175.549 145.42 184.369 134.88 186.189 121.46C183.469 130.78 176.969 137.94 168.269 139.86C154.269 142.94 139.829 131.4 136.009 114.06C135.449 111.52 135.149 109.02 135.089 106.56C134.469 110.02 134.329 113.68 134.729 117.46Z" fill="#F0F1FF"/>
<path d="M135.09 106.559C135.15 109.019 135.45 111.519 136.01 114.059C139.83 131.399 154.27 142.939 168.27 139.859C176.97 137.939 183.47 130.779 186.19 121.459C186.61 118.419 186.67 115.219 186.31 111.959C185.71 106.379 184.01 101.259 181.49 96.9192C178.21 91.2392 173.57 86.8792 168.25 84.5392C164.75 82.9992 160.97 82.3192 157.11 82.7392C145.91 83.9392 137.33 93.7992 135.09 106.559Z" fill="#F0F1FF"/>
<path d="M164.684 91.1791C164.684 95.8991 169.004 99.7391 174.324 99.7391C177.164 99.7391 179.724 98.6591 181.484 96.9191C178.204 91.2391 173.564 86.8791 168.244 84.5391C166.084 86.0991 164.684 88.4991 164.684 91.1791Z" fill="#F0F1FF"/>
<path d="M160.83 106.58C163.647 106.58 165.93 104.538 165.93 102.02C165.93 99.5015 163.647 97.46 160.83 97.46C158.014 97.46 155.73 99.5015 155.73 102.02C155.73 104.538 158.014 106.58 160.83 106.58Z" fill="#F0F1FF"/>
</g>
<defs>
<clipPath id="clip0_1513_1244">
<rect width="158.98" height="87.78" fill="white" transform="translate(36 71)"/>
</clipPath>
</defs>
</svg>
