<svg width="230" height="230" viewBox="0 0 230 230" fill="none" xmlns="http://www.w3.org/2000/svg">
<g clip-path="url(#clip0_1513_1313)">
<path d="M115.01 37.02C71.9379 37.02 37.0195 71.9383 37.0195 115.01C37.0195 158.082 71.9379 193 115.01 193C158.081 193 193 158.082 193 115.01C193 71.9383 158.081 37.02 115.01 37.02ZM72.2589 136.053C60.6424 136.053 51.2162 126.638 51.2162 115.01C51.2162 103.382 60.6424 93.9673 72.2589 93.9673C83.8755 93.9673 93.3017 103.394 93.3017 115.01C93.3017 126.627 83.8869 136.053 72.2589 136.053ZM131.798 132.693C127.062 136.408 120.319 138.243 113.76 138.243C107.2 138.243 100.515 136.317 96.5126 132.463C95.1479 131.145 95.1021 128.966 96.4208 127.601C97.7396 126.237 99.9184 126.191 101.294 127.51C106.26 132.303 120.158 133.071 127.555 127.28C129.046 126.11 131.213 126.374 132.383 127.865C133.552 129.367 133.289 131.523 131.798 132.693ZM157.76 136.053C146.132 136.053 136.717 126.638 136.717 115.01C136.717 103.382 146.132 93.9673 157.76 93.9673C169.388 93.9673 178.803 103.394 178.803 115.01C178.803 126.627 169.377 136.053 157.76 136.053Z" fill="#F0F1FF"/>
</g>
<defs>
<clipPath id="clip0_1513_1313">
<rect width="155.98" height="155.98" fill="white" transform="translate(37.0195 37.02)"/>
</clipPath>
</defs>
</svg>
