<svg width="230" height="230" viewBox="0 0 230 230" fill="none" xmlns="http://www.w3.org/2000/svg">
<rect width="230" height="230" fill="#24282F"/>
<g clip-path="url(#clip0_1521_1322)">
<path d="M114.485 197.175C160.593 197.175 197.971 183.718 197.971 167.119C197.971 150.519 160.593 137.063 114.485 137.063C68.3776 137.063 31 150.519 31 167.119C31 183.718 68.3776 197.175 114.485 197.175Z" fill="black" fill-opacity="0.4"/>
<path d="M70.0586 152.489C60.5797 155.168 52.5432 161.644 54.9277 164.529C57.3121 167.414 70.5591 169.328 81.4216 168.945" fill="#B2E479"/>
<path d="M70.0586 152.489C60.5797 155.168 52.5432 161.644 54.9277 164.529C57.3121 167.414 70.5591 169.328 81.4216 168.945" stroke="black" stroke-width="2.94377" stroke-linecap="round" stroke-linejoin="round"/>
<path d="M159.172 152.489C168.65 155.168 176.687 161.644 174.303 164.529C171.918 167.414 158.671 169.328 147.809 168.945" fill="#B2E479"/>
<path d="M159.172 152.489C168.65 155.168 176.687 161.644 174.303 164.529C171.918 167.414 158.671 169.328 147.809 168.945" stroke="black" stroke-width="2.94377" stroke-linecap="round" stroke-linejoin="round"/>
<path d="M114.606 173.655C70.8906 173.655 45.2798 154.756 48.253 118.253C51.0496 147.367 75.63 162.409 114.606 162.409C153.581 162.409 178.22 147.367 180.84 117.664C183.755 154.814 158.703 173.655 114.606 173.655Z" fill="#B2E479"/>
<path d="M180.808 117.663C178.188 147.366 153.99 162.409 114.603 162.409C75.2149 162.409 51.0466 147.366 48.25 118.252C48.4561 115.397 48.8682 112.423 49.4569 109.362C51.2821 97.6752 56.6103 92.6708 60.3489 85.5469H168.856C172.713 93.024 177.982 98.6466 179.836 109.745C180.307 112.482 180.631 115.102 180.808 117.663Z" fill="#D5FFA6"/>
<path d="M163.854 67.7087C166.915 73.5668 167.828 78.4829 169.064 98.8832H60.5568C62.4114 79.16 61.852 74.4205 64.8547 68.7096C65.0313 68.3564 63.7949 67.0611 62.3525 65.0005C59.968 61.5268 57.0831 55.7865 59.5559 48.2799C60.5274 45.3067 62.3525 42.0685 65.3846 38.5949C75.3934 29.6458 88.7875 33.4727 95.7643 42.3923C101.151 40.891 108.57 39.3897 114.604 39.3897C117.96 39.3897 126.703 40.0667 133.209 42.3334C140.745 31.2943 155.287 32.3541 161.293 36.858C165.855 41.6858 168.446 45.9543 169.712 49.6046C170.477 51.7535 170.801 53.7258 170.801 55.4921C170.801 59.79 168.917 62.9104 167.121 64.9122C165.443 66.8256 163.854 67.7087 163.854 67.7087Z" fill="#D5FFA6"/>
<path d="M61.7375 99.7074C60.7661 96.0865 60.2656 92.3185 60.2656 88.4622C60.2656 81.4266 61.8847 74.7736 64.8579 68.7095" stroke="black" stroke-width="2.94377" stroke-miterlimit="10" stroke-linecap="round"/>
<path d="M164.297 68.5327C167.3 74.6263 168.977 81.3381 168.977 88.4326C168.977 92.2889 168.477 96.0864 167.506 99.6778" stroke="black" stroke-width="2.94377" stroke-miterlimit="10" stroke-linecap="round"/>
<path d="M95.7969 42.4203C101.655 40.4774 107.984 39.3882 114.608 39.3882C121.231 39.3882 127.413 40.4185 133.212 42.332" stroke="black" stroke-width="2.94377" stroke-miterlimit="10" stroke-linecap="round"/>
<path d="M69.9416 72.271C63.1415 68.974 58.4609 61.9678 58.4609 53.9019C58.4609 42.6273 67.5866 33.4722 78.8907 33.4722C88.2813 33.4722 96.1706 39.8013 98.5551 48.4265" stroke="black" stroke-width="2.94377" stroke-linecap="round" stroke-linejoin="round"/>
<path d="M159 72.271C165.8 68.9446 170.481 61.9678 170.481 53.9019C170.481 42.6273 161.326 33.4722 150.051 33.4722C140.66 33.4722 132.771 39.8013 130.387 48.4265" stroke="black" stroke-width="2.94377" stroke-linecap="round" stroke-linejoin="round"/>
<path d="M150.043 67.7383C157.684 67.7383 163.878 61.5439 163.878 53.9026C163.878 46.2614 157.684 40.0669 150.043 40.0669C142.401 40.0669 136.207 46.2614 136.207 53.9026C136.207 61.5439 142.401 67.7383 150.043 67.7383Z" fill="white" stroke="black" stroke-width="2.94377" stroke-miterlimit="10"/>
<path d="M78.8943 67.7383C86.5356 67.7383 92.73 61.5439 92.73 53.9026C92.73 46.2614 86.5356 40.0669 78.8943 40.0669C71.2531 40.0669 65.0586 46.2614 65.0586 53.9026C65.0586 61.5439 71.2531 67.7383 78.8943 67.7383Z" fill="white" stroke="black" stroke-width="2.94377" stroke-miterlimit="10"/>
<path d="M168.85 85.5763C176.681 96.2033 181.302 109.274 181.302 123.374C181.302 159.259 151.452 173.654 114.567 173.654C77.6816 173.654 47.8906 159.259 47.8906 123.374C47.8906 109.274 52.4829 96.2033 60.3428 85.5469" stroke="black" stroke-width="2.94377" stroke-miterlimit="10" stroke-linecap="round"/>
<path d="M78.8922 63.2033C84.0297 63.2033 88.1945 59.0385 88.1945 53.9009C88.1945 48.7634 84.0297 44.5986 78.8922 44.5986C73.7546 44.5986 69.5898 48.7634 69.5898 53.9009C69.5898 59.0385 73.7546 63.2033 78.8922 63.2033Z" fill="black"/>
<path d="M150.048 63.2033C155.186 63.2033 159.351 59.0385 159.351 53.9009C159.351 48.7634 155.186 44.5986 150.048 44.5986C144.911 44.5986 140.746 48.7634 140.746 53.9009C140.746 59.0385 144.911 63.2033 150.048 63.2033Z" fill="black"/>
<path d="M107.066 63.2041H122.168" stroke="black" stroke-width="2.94377" stroke-linecap="round" stroke-linejoin="round"/>
<path d="M78.5391 145.6C79.9226 167.619 84.9565 178.864 88.8423 179.247C92.728 179.63 94.7004 155.638 94.406 150.074" fill="#D5FFA6"/>
<path d="M78.5391 145.6C79.9226 167.619 84.9565 178.864 88.8423 179.247C92.728 179.63 94.7004 155.638 94.406 150.074" stroke="black" stroke-width="2.94377" stroke-linecap="round" stroke-linejoin="round"/>
<path d="M150.435 145.6C149.051 167.619 144.017 178.864 140.132 179.247C136.246 179.63 134.273 155.638 134.568 150.074" fill="#D5FFA6"/>
<path d="M150.435 145.6C149.051 167.619 144.017 178.864 140.132 179.247C136.246 179.63 134.273 155.638 134.568 150.074" stroke="black" stroke-width="2.94377" stroke-linecap="round" stroke-linejoin="round"/>
</g>
<defs>
<clipPath id="clip0_1521_1322">
<rect width="167" height="165.175" fill="white" transform="translate(31 32)"/>
</clipPath>
</defs>
</svg>
