<svg width="230" height="230" viewBox="0 0 230 230" fill="none" xmlns="http://www.w3.org/2000/svg">
<rect width="230" height="230" fill="#24282F"/>
<g clip-path="url(#clip0_1511_1160)">
<path d="M114.615 194.601C145.349 194.601 170.265 186.22 170.265 175.881C170.265 165.542 145.349 157.161 114.615 157.161C83.8802 157.161 58.9648 165.542 58.9648 175.881C58.9648 186.22 83.8802 194.601 114.615 194.601Z" fill="black" fill-opacity="0.4"/>
<path d="M159.58 162.02C159.04 170.24 154.06 175.79 151.45 175.88C148.84 175.97 143.41 170.27 141.91 165.74" fill="#E5CD9A"/>
<path d="M159.58 162.02C159.04 170.24 154.06 175.79 151.45 175.88C148.84 175.97 143.41 170.27 141.91 165.74" stroke="black" stroke-width="3" stroke-linecap="round" stroke-linejoin="round"/>
<path d="M106.695 170.9C108.555 178.91 114.375 183.59 116.955 183.26C119.535 182.93 123.975 176.42 124.725 171.71" fill="#E5CD9A"/>
<path d="M106.695 170.9C108.555 178.91 114.375 183.59 116.955 183.26C119.535 182.93 123.975 176.42 124.725 171.71" stroke="black" stroke-width="3" stroke-linecap="round" stroke-linejoin="round"/>
<path d="M172.544 128.571C173.114 138.201 171.914 145.791 168.974 151.791C166.784 156.291 163.604 159.861 159.524 162.831C155.354 165.831 150.194 168.081 144.104 169.881C139.244 171.381 133.814 172.491 127.784 173.451C126.584 173.631 125.414 173.781 124.244 173.901C118.124 174.651 112.604 174.591 107.624 173.751C89.4138 170.631 79.2137 157.161 77.8337 134.361C77.8037 133.791 77.7738 133.191 77.7438 132.621C77.7438 131.481 77.5938 129.621 77.5938 127.611C77.5938 124.641 77.8038 121.251 78.8838 119.091C79.4238 119.091 80.0238 119.091 80.6538 119.121C82.3638 119.181 84.3438 119.361 86.5338 119.541C119.414 122.841 139.994 101.691 152.984 91.221C153.704 90.681 154.364 90.111 155.054 89.601C155.054 89.601 155.144 89.571 155.174 89.541L155.264 89.631C159.074 93.291 162.404 97.611 165.044 102.411C165.044 102.411 165.054 102.441 165.074 102.501C165.344 102.861 165.554 103.311 165.734 103.701C169.604 111.081 172.034 119.511 172.604 128.631L172.544 128.571Z" fill="#FFEEC9"/>
<path d="M168.939 151.791C166.749 156.291 163.569 159.861 159.489 162.831C155.319 165.831 150.159 168.081 144.069 169.881C139.209 171.381 133.779 172.491 127.749 173.451C126.549 173.631 125.379 173.781 124.209 173.901C118.089 174.651 112.569 174.591 107.589 173.751C89.3786 170.631 79.1786 157.161 77.7986 134.361C77.7686 133.791 77.7386 133.191 77.7086 132.621C77.7086 131.481 77.5586 129.621 77.5586 127.611C77.5586 124.641 77.7686 121.251 78.8486 119.091C79.3886 119.091 79.9886 119.091 80.6186 119.121C82.3286 119.181 84.3086 119.361 86.4986 119.541C119.379 122.841 139.959 101.691 152.949 91.2211C153.669 90.6811 154.329 90.1111 155.019 89.6011H155.229C148.269 102.501 118.269 119.991 105.849 124.071C88.4486 129.801 89.5586 149.421 99.1586 159.591C109.089 170.061 134.349 174.561 168.969 151.821L168.939 151.791Z" fill="#E5CD9A"/>
<path d="M172.57 128.571C173.59 145.461 169.06 155.991 159.49 162.831C155.29 165.831 150.13 168.081 144.04 169.881H144.01C139.15 171.381 133.72 172.491 127.69 173.451C126.52 173.661 125.32 173.781 124.15 173.931C118.03 174.681 112.48 174.621 107.53 173.751C89.29 170.631 79.12 157.191 77.71 134.361C77.68 133.791 77.65 133.191 77.65 132.621C77.65 131.481 77.5 129.651 77.5 127.611C77.5 124.611 77.71 121.251 78.79 119.061C79.33 119.061 79.93 119.061 80.56 119.121C82.3 119.181 84.25 119.331 86.44 119.541C119.32 122.841 139.9 101.691 152.92 91.221C153.67 90.651 154.39 90.051 155.08 89.541L155.17 89.631C158.98 93.261 162.31 97.611 164.98 102.411C164.98 102.411 164.99 102.431 165.01 102.471C165.25 102.861 165.46 103.281 165.67 103.701C169.54 111.051 171.97 119.511 172.54 128.601L172.57 128.571Z" stroke="black" stroke-width="3" stroke-linecap="round" stroke-linejoin="round"/>
<path d="M157.57 139.119C162.007 138.432 164.847 132.978 163.913 126.936C162.979 120.894 158.624 116.552 154.187 117.239C149.75 117.925 146.91 123.379 147.844 129.421C148.778 135.463 153.133 139.805 157.57 139.119Z" fill="black"/>
<path d="M133.813 143.04C138.296 142.804 141.671 137.664 141.35 131.558C141.029 125.453 137.134 120.695 132.65 120.931C128.166 121.166 124.792 126.307 125.113 132.412C125.434 138.518 129.329 143.276 133.813 143.04Z" fill="black"/>
<path d="M165.01 102.441C165.01 102.441 165.01 102.411 164.98 102.351C170.62 96.8305 170.44 86.9305 164.47 85.7605C163.99 85.6405 163.54 85.6105 163.03 85.6405C161.41 85.7605 159.61 86.4805 157.51 87.8305C157.45 87.8305 157.39 87.8905 157.33 87.9505C157.3 87.9505 157.3 87.9805 157.27 87.9805C156.64 88.3705 156.01 88.8505 155.35 89.3305C155.26 89.3305 155.2 89.4205 155.11 89.5105C154.39 90.0205 153.67 90.6205 152.92 91.1905C152.53 91.4905 152.2 91.7905 151.84 92.0605L151.75 92.1805C138.7 102.921 118.36 122.721 86.4702 119.511C84.2502 119.301 82.3002 119.121 80.5902 119.091C79.9602 119.061 79.3602 119.031 78.8202 119.031C61.5102 118.821 71.5602 127.071 77.5302 127.551C60.1602 127.971 50.2602 118.911 47.8902 106.251C44.8302 90.2905 60.5502 59.2405 86.8002 44.1205C88.0002 43.4005 89.2302 42.7405 90.4902 42.1105C93.5202 40.6105 96.7302 39.4105 100.06 38.5405C107.77 36.5005 116.2 36.0805 124.6 36.8905C140.83 38.3905 156.94 44.4805 167.62 52.2805C170.68 54.5005 173.26 56.8705 175.3 59.3305C185.83 72.0505 187 87.3805 165.01 102.441Z" fill="#C9FFE8"/>
<path d="M151.752 92.1803C138.702 102.92 118.392 122.72 86.4719 119.51C84.2519 119.3 82.3019 119.12 80.5919 119.09C79.9619 119.09 79.3619 119.03 78.8219 119.06C61.5419 118.85 71.5919 127.1 77.5319 127.58C60.1919 128 50.2619 118.91 47.8919 106.25C44.6819 89.5704 62.0519 56.3904 90.4919 42.1104C49.9619 77.0604 56.2919 100.52 64.0619 107.42C74.3819 116.57 114.762 118.37 151.752 92.1803Z" fill="#97DBBE"/>
<path d="M163.036 85.67C161.416 85.76 159.586 86.51 157.516 87.83C162.106 84.2 163.456 84.05 163.036 85.67Z" fill="#97DBBE"/>
<path d="M167.616 52.2801C163.986 62.6001 151.446 67.6401 139.566 63.5601C127.626 59.4201 120.876 47.6301 124.476 37.2201C124.506 37.1001 124.566 37.0101 124.596 36.8901C140.826 38.3901 156.936 44.4801 167.616 52.2801Z" fill="#F0C9FF"/>
<path d="M97.965 52.491C93.315 54.291 88.365 52.551 86.865 48.681C86.295 47.211 86.295 45.621 86.805 44.121C88.005 43.401 89.235 42.741 90.495 42.111C93.525 40.611 96.735 39.411 100.065 38.541C101.685 39.291 102.975 40.551 103.635 42.231C105.135 46.131 102.585 50.721 97.965 52.491Z" fill="#F0C9FF"/>
<path d="M91.5945 105.142C98.3406 104.099 103.04 98.2755 102.09 92.1352C101.141 85.995 94.9023 81.863 88.1562 82.9061C81.4102 83.9493 76.7111 89.7726 77.6606 95.9128C78.61 102.053 84.8485 106.185 91.5945 105.142Z" fill="#F0C9FF"/>
<path d="M165.042 102.441C165.042 102.441 165.042 102.411 165.012 102.381C170.652 96.8005 170.472 86.9005 164.472 85.7605C161.982 85.2805 159.042 86.6005 155.382 89.3305C155.292 89.3605 155.202 89.4505 155.112 89.5105C154.422 90.0205 153.702 90.5905 152.952 91.1905C139.962 101.661 119.352 122.811 86.4719 119.511C84.2819 119.301 82.3319 119.121 80.5919 119.091C79.9619 119.091 79.3619 119.031 78.8219 119.031C61.5419 118.821 71.5919 127.101 77.5319 127.581C60.1919 128.001 50.2619 118.911 47.8619 106.251C44.6819 89.5705 62.0519 56.3605 90.4919 42.1105C117.852 28.4005 160.872 41.9605 175.302 59.3305C185.862 72.0505 187.002 87.3805 165.042 102.441Z" stroke="black" stroke-width="3" stroke-linecap="round" stroke-linejoin="round"/>
<path d="M164.982 102.381C162.312 97.5805 158.982 93.2305 155.172 89.6005C155.232 89.5105 155.292 89.4505 155.352 89.3305C159.012 86.6005 161.982 85.2805 164.442 85.7605C170.442 86.9005 170.622 96.8005 164.982 102.381Z" fill="#214A38" stroke="black" stroke-width="3" stroke-linecap="round" stroke-linejoin="round"/>
<path d="M78.8207 119.031C77.7707 121.191 77.5607 124.581 77.5307 127.581C71.5907 127.101 61.5107 118.821 78.8207 119.031Z" fill="#214A38" stroke="black" stroke-width="3" stroke-linecap="round" stroke-linejoin="round"/>
<path d="M99.6172 143.121C100.397 153.891 106.697 157.941 110.267 157.461C113.837 156.981 119.027 150.321 118.007 144.651" fill="#FFEEC9"/>
<path d="M99.6172 143.121C100.397 153.891 106.697 157.941 110.267 157.461C113.837 156.981 119.027 150.321 118.007 144.651" stroke="black" stroke-width="3" stroke-linecap="round" stroke-linejoin="round"/>
</g>
<defs>
<clipPath id="clip0_1511_1160">
<rect width="138.09" height="159.6" fill="white" transform="translate(46 35)"/>
</clipPath>
</defs>
</svg>
