<svg width="230" height="230" viewBox="0 0 230 230" fill="none" xmlns="http://www.w3.org/2000/svg">
<rect width="230" height="230" fill="#24282F"/>
<g clip-path="url(#clip0_1511_1106)">
<path d="M114.13 179.5C160.191 179.5 197.53 173.564 197.53 166.24C197.53 158.917 160.191 152.98 114.13 152.98C68.0699 152.98 30.7305 158.917 30.7305 166.24C30.7305 173.564 68.0699 179.5 114.13 179.5Z" fill="black" fill-opacity="0.4"/>
<path d="M188.803 164.651C182.653 168.761 151.783 165.821 119.503 165.311C86.2934 164.771 49.8434 170.051 48.7334 166.841C48.6134 166.481 48.8534 166.121 49.3934 165.791C51.4034 164.531 57.5534 163.271 65.9234 159.911C68.4734 158.891 71.2634 157.811 74.1734 156.671L121.813 137.501C132.043 132.851 140.653 128.171 145.393 123.851C147.883 121.601 149.263 119.441 149.263 117.431C149.263 117.071 149.203 116.651 149.113 116.291C148.693 114.731 148.273 113.231 147.973 111.761C146.983 107.321 146.533 103.331 146.533 99.8507C146.533 97.8407 146.653 96.0407 146.923 94.3607C149.083 80.4407 159.493 75.4307 168.643 75.4307C181.573 75.4307 197.443 80.5007 193.333 115.511C192.493 122.501 195.913 131.471 197.383 140.291C198.913 149.411 198.343 158.321 188.803 164.711V164.651Z" fill="#A6E9FF" stroke="#231F20" stroke-width="3" stroke-linecap="round" stroke-linejoin="round"/>
<path d="M188.803 164.651C182.653 168.761 151.783 165.821 119.503 165.311C86.2934 164.771 49.8434 170.051 48.7334 166.841C48.6134 166.481 48.8534 166.121 49.3934 165.791C72.6434 166.241 80.9234 158.591 92.8034 156.911C105.493 155.111 111.343 161.321 126.403 158.921C146.293 155.771 152.383 151.601 167.743 151.601C180.883 151.601 185.713 158.621 191.113 154.931C194.023 152.951 196.213 146.981 197.383 140.231C198.913 149.351 198.343 158.261 188.803 164.651Z" fill="#6ABAD5"/>
<path d="M147.158 107.47C147.488 120.64 141.098 129.22 123.278 136.27C122.978 136.39 122.678 136.51 122.408 136.63C113.948 149.35 97.5382 156.97 82.5682 156.97C52.5982 156.94 33.0082 139.75 33.3682 112.96C33.5782 97.4504 39.3082 84.7304 48.3682 75.5804C48.3682 75.5804 48.3682 75.5804 48.4282 75.5204C58.7482 65.1704 73.3582 59.4404 89.2582 59.4404C100.148 59.4404 110.678 61.9604 119.708 66.5804C124.358 68.9504 128.648 71.8604 132.308 75.2804C141.188 83.4704 146.828 94.4504 147.188 107.41L147.158 107.47Z" fill="#F2A6FF"/>
<path d="M123.368 136.09C123.368 136.09 123.308 136.21 123.278 136.24C122.978 136.36 122.678 136.48 122.408 136.6C113.948 149.32 97.5382 156.94 82.5682 156.94C52.5982 156.94 33.0082 139.75 33.3682 112.96C33.5782 97.4501 39.3082 84.7301 48.3682 75.5801C27.2782 106.96 38.7682 130.96 59.7682 143.02C74.7682 151.63 90.2482 149.56 98.6182 145.93C106.988 142.3 125.828 132.94 119.348 109.33C116.198 97.8701 101.828 83.0501 83.4682 86.2901C66.0082 89.3501 60.8482 106.57 67.4482 116.5C74.0782 126.4 89.2282 120.64 89.2282 109.36C91.0282 132.1 60.8782 125.29 60.1882 111.49C59.8282 104.05 60.5182 94.2401 68.1682 89.5301C76.2982 82.4501 94.8982 73.6601 115.898 93.2501C128.138 108.19 131.108 121.48 123.398 136.09H123.368Z" fill="#D182DF"/>
<path d="M150.222 85.0603C146.682 81.1003 141.972 89.2003 142.092 96.1003C142.212 103 158.202 123.76 118.992 136.6C124.002 138.49 143.202 125.65 143.202 125.65L148.422 120.22C148.422 120.22 144.342 95.2303 150.222 85.0303V85.0603Z" fill="#D182DF"/>
<path d="M132.184 78.7309C130.624 81.4309 125.404 81.3409 120.544 78.5509C115.684 75.7309 113.014 71.2909 114.574 68.5609C115.414 67.0909 117.334 66.4609 119.704 66.6109C124.354 68.9809 128.644 71.8909 132.304 75.3109C132.754 76.6009 132.754 77.7709 132.184 78.7309Z" fill="#F9D5FF"/>
<path d="M88.7827 72.8807C94.6148 72.8807 99.3427 70.275 99.3427 67.0607C99.3427 63.8464 94.6148 61.2407 88.7827 61.2407C82.9505 61.2407 78.2227 63.8464 78.2227 67.0607C78.2227 70.275 82.9505 72.8807 88.7827 72.8807Z" fill="#F9D5FF"/>
<path d="M55.3842 78.64C56.66 78.64 57.6942 77.6058 57.6942 76.33C57.6942 75.0542 56.66 74.02 55.3842 74.02C54.1084 74.02 53.0742 75.0542 53.0742 76.33C53.0742 77.6058 54.1084 78.64 55.3842 78.64Z" fill="#F9D5FF"/>
<path d="M121.839 137.5C132.069 132.82 140.679 128.17 145.389 123.85C148.359 121.15 149.739 118.6 149.109 116.26C148.689 114.7 148.299 113.2 147.969 111.73C146.979 107.29 146.529 103.33 146.529 99.8199C146.529 97.8399 146.679 96.0099 146.949 94.3299C149.109 80.4399 159.519 75.3999 168.669 75.3999C181.569 75.3999 197.469 80.4699 193.359 115.48C191.679 129.73 207.549 152.17 188.829 164.65C182.649 168.76 151.779 165.82 119.529 165.31C86.3492 164.77 49.8992 170.05 48.7892 166.84C48.1892 165.13 55.2992 164.23 65.9492 159.94C68.4992 158.92 71.2892 157.81 74.1992 156.7" stroke="black" stroke-width="3" stroke-linecap="round" stroke-linejoin="round"/>
<path d="M105.192 151.541C105.192 151.541 105.162 151.541 105.132 151.541C102.762 152.561 100.302 153.431 97.7517 154.181C89.6217 156.581 81.6417 157.391 74.2017 156.641C55.9917 154.901 41.0217 144.071 35.3517 124.931C27.4017 97.9309 43.6317 69.4009 71.5617 61.1809C72.4017 60.9409 73.2417 60.7009 74.0817 60.4909C74.1717 60.4909 74.2317 60.4609 74.3217 60.4309C74.9517 60.2809 75.5817 60.1309 76.2117 60.0109C76.8117 59.8609 77.4417 59.7409 78.0717 59.6509C78.4917 59.5609 78.8817 59.5009 79.3017 59.4409" stroke="black" stroke-width="3" stroke-linecap="round" stroke-linejoin="round"/>
<path d="M143.505 88.6903C133.455 73.8703 112.545 54.1603 79.2747 59.4703C78.8547 59.5303 78.4647 59.5903 78.0447 59.6803C77.4447 59.7703 76.8147 59.8903 76.1847 60.0403C75.5847 60.1603 74.9547 60.3103 74.2947 60.4603C74.2047 60.4603 74.1447 60.4903 74.0547 60.5203" stroke="black" stroke-width="3" stroke-linecap="round" stroke-linejoin="round"/>
<path d="M89.2364 109.36C94.9664 124.18 66.3765 131.14 60.8865 114.1C57.2265 102.76 62.5364 89.5297 78.6164 83.3797C114.046 69.8497 152.746 126.91 105.046 151.63" stroke="black" stroke-width="3" stroke-linecap="round" stroke-linejoin="round"/>
<path d="M150.223 85.0604C146.923 82.5704 139.813 88.6604 142.783 101.2C145.213 111.49 146.293 116.92 143.863 121.03C140.863 126.13 130.393 132.52 122.383 136.6" stroke="black" stroke-width="3" stroke-linecap="round" stroke-linejoin="round"/>
<path d="M167.262 104.32C168.912 105.49 171.942 105.49 173.862 104.32" stroke="black" stroke-width="3" stroke-linecap="round" stroke-linejoin="round"/>
<path d="M160.806 81.7594L154.476 61.2694C154.296 60.7294 154.326 60.1294 154.506 59.6494C155.196 57.9694 155.316 55.8994 154.626 53.9794C153.396 50.4994 149.946 50.8894 147.066 52.2394C144.186 53.6194 142.956 55.4194 144.186 58.8994C144.876 60.8194 146.196 62.1994 147.726 62.8294C148.146 62.9794 148.506 63.3994 148.716 63.9394L156.786 84.0694" fill="#A6E9FF"/>
<path d="M160.806 81.7594L154.476 61.2694C154.296 60.7294 154.326 60.1294 154.506 59.6494C155.196 57.9694 155.316 55.8994 154.626 53.9794C153.396 50.4994 149.946 50.8894 147.066 52.2394C144.186 53.6194 142.956 55.4194 144.186 58.8994C144.876 60.8194 146.196 62.1994 147.726 62.8294C148.146 62.9794 148.506 63.3994 148.716 63.9394L156.786 84.0694" stroke="black" stroke-width="3" stroke-linecap="round" stroke-linejoin="round"/>
<path d="M183.961 84.0997L192.031 63.9697C192.241 63.4297 192.601 63.0097 193.021 62.8597C194.551 62.1997 195.871 60.8497 196.561 58.9297C197.791 55.4197 196.561 53.6497 193.681 52.2697C190.801 50.9197 187.351 50.5297 186.121 54.0097C185.431 55.9297 185.551 57.9997 186.241 59.6797C186.451 60.1597 186.451 60.7597 186.271 61.2997L179.941 81.7897" fill="#A6E9FF"/>
<path d="M183.961 84.0997L192.031 63.9697C192.241 63.4297 192.601 63.0097 193.021 62.8597C194.551 62.1997 195.871 60.8497 196.561 58.9297C197.791 55.4197 196.561 53.6497 193.681 52.2697C190.801 50.9197 187.351 50.5297 186.121 54.0097C185.431 55.9297 185.551 57.9997 186.241 59.6797C186.451 60.1597 186.451 60.7597 186.271 61.2997L179.941 81.7897" stroke="black" stroke-width="3" stroke-linecap="round" stroke-linejoin="round"/>
<path d="M183.366 103.27C186.182 103.27 188.466 100.987 188.466 98.1703C188.466 95.3537 186.182 93.0703 183.366 93.0703C180.549 93.0703 178.266 95.3537 178.266 98.1703C178.266 100.987 180.549 103.27 183.366 103.27Z" fill="black"/>
<path d="M157.748 103.27C160.565 103.27 162.848 100.986 162.848 98.1698C162.848 95.3532 160.565 93.0698 157.748 93.0698C154.932 93.0698 152.648 95.3532 152.648 98.1698C152.648 100.986 154.932 103.27 157.748 103.27Z" fill="black"/>
</g>
<defs>
<clipPath id="clip0_1511_1106">
<rect width="168.81" height="129.75" fill="white" transform="translate(30.7305 49.75)"/>
</clipPath>
</defs>
</svg>
