<svg width="100" height="100" viewBox="0 0 100 100" fill="none" xmlns="http://www.w3.org/2000/svg">
<g clip-path="url(#clip0_1597_908)">
<g clip-path="url(#clip1_1597_908)">
<path d="M0.0559388 47.6536C0.0932314 48.4429 0.142955 49.2199 0.223755 49.9968C0.14917 50.7799 0.0932314 51.5569 0.0559388 52.34C0.0186463 51.5631 0 50.7861 0 50.003C0 49.2199 0.0186463 48.4305 0.0559388 47.6536Z" fill="#A7E9FF"/>
<path d="M99.9972 50.003C99.9972 50.7861 99.9785 51.5631 99.9413 52.34C99.904 51.5569 99.848 50.7799 99.7734 50.003C99.8542 49.2199 99.904 48.4429 99.9413 47.6536C99.9785 48.4305 99.9972 49.2136 99.9972 50.003Z" fill="#A7E9FF"/>
<path d="M99.9428 52.3399V52.3586C98.8303 76.3812 80.7682 95.9722 57.4417 99.4529C55.0115 99.8196 52.5253 100.006 49.9956 100.006C39.9826 100.006 30.6532 97.0599 22.8342 91.9881C19.3847 89.7568 16.2334 87.109 13.4365 84.1132C10.7825 81.2665 8.45794 78.1153 6.52495 74.7092C2.73354 68.065 0.427613 60.4635 0.0546875 52.3586V52.3399C0.0919801 51.5568 0.147919 50.7799 0.222504 50.0029C0.266012 50.5002 0.321951 51.0036 0.384105 51.4946C0.427613 51.8613 0.477337 52.2281 0.533275 52.5948C0.564352 52.8372 0.601645 53.0734 0.645153 53.3095C0.67623 53.5271 0.713523 53.7446 0.750815 53.9559C0.794323 54.2046 0.837831 54.4532 0.887555 54.7018C0.955924 55.0872 1.03672 55.4663 1.11753 55.8516C1.17968 56.1313 1.24183 56.4173 1.3102 56.6969C1.37857 56.9953 1.44694 57.2936 1.52774 57.5858C1.62098 57.9773 1.72042 58.3627 1.8323 58.748C1.85716 58.8351 1.88202 58.9221 1.90688 59.0091C2.03119 59.4566 2.16172 59.9041 2.30467 60.3454V60.3578C2.44763 60.7991 2.59058 61.2342 2.73975 61.6631C2.77083 61.7563 2.80812 61.8557 2.8392 61.949C2.96972 62.3281 3.10646 62.701 3.24942 63.0678C3.26806 63.1175 3.28671 63.161 3.30536 63.2045C3.44831 63.5836 3.59748 63.9566 3.74665 64.3233C3.79637 64.4414 3.8461 64.5657 3.89582 64.6838C4.06364 65.0816 4.23767 65.4793 4.41792 65.8771C4.56709 66.2065 4.71626 66.5298 4.87164 66.8467C5.00217 67.1202 5.13269 67.3937 5.26943 67.661C5.4186 67.9655 5.57399 68.2701 5.73559 68.5684C6.1831 69.4137 6.64926 70.2466 7.14027 71.0608C7.37646 71.4586 7.61886 71.8439 7.86126 72.2293C7.87991 72.2542 7.89234 72.279 7.91099 72.3039C7.92342 72.3287 7.94206 72.3536 7.96071 72.3785C8.20311 72.7576 8.45173 73.1305 8.70656 73.4972C8.93653 73.8391 9.17272 74.1747 9.41512 74.5104C9.75697 74.9827 10.105 75.4551 10.4717 75.915C10.7079 76.232 10.9565 76.5428 11.2114 76.8536C11.2487 76.9033 11.286 76.9468 11.3233 76.9965C11.5719 77.2949 11.8267 77.5994 12.0815 77.8915C13.0511 79.0228 14.0767 80.1105 15.1457 81.1547C15.1644 81.1733 15.183 81.1919 15.2017 81.2044C15.5125 81.5089 15.8232 81.8011 16.1402 82.0932C16.451 82.3791 16.7618 82.6588 17.0787 82.9323C17.3211 83.1498 17.5698 83.3611 17.8184 83.5725C17.9116 83.647 18.0048 83.7278 18.0981 83.8024C18.3343 84.0013 18.5704 84.194 18.8128 84.3867C19.422 84.8777 20.0435 85.3501 20.6837 85.81C20.8577 85.9405 21.038 86.0648 21.2182 86.1891C21.5601 86.4315 21.9019 86.6677 22.2438 86.8977C22.6353 87.1587 23.0331 87.4136 23.4309 87.6684C23.8971 87.9605 24.3632 88.2464 24.8418 88.5199C24.8667 88.5386 24.8915 88.551 24.9164 88.5634C25.1215 88.6815 25.3266 88.7996 25.5379 88.9177C27.4896 90.0178 29.5158 90.9875 31.6166 91.8141C32.2444 92.0627 32.8784 92.2989 33.5185 92.5227C33.9536 92.6718 34.3887 92.821 34.83 92.9577C35.1408 93.0572 35.4515 93.1566 35.7623 93.2437C35.8618 93.2747 35.9612 93.3058 36.0544 93.3307C36.3901 93.4301 36.7257 93.5233 37.0613 93.6104C37.7513 93.7968 38.4412 93.9646 39.1435 94.12C39.5972 94.2195 40.0572 94.3127 40.5171 94.4059C40.8714 94.4743 41.2257 94.5365 41.5862 94.5986C41.9032 94.6483 42.2201 94.7043 42.5433 94.7478C42.7733 94.7851 43.0033 94.8162 43.2333 94.8472H43.2395C43.513 94.8845 43.7864 94.9218 44.0661 94.9529C44.1718 94.9653 44.2712 94.9778 44.3769 94.9902C44.6317 95.0151 44.8804 95.0461 45.1352 95.0648C45.5454 95.1083 45.9556 95.1394 46.3658 95.1704C46.7201 95.1953 47.0744 95.2202 47.4287 95.2388C47.7084 95.2512 47.9943 95.2637 48.2802 95.2699C48.5226 95.2823 48.7588 95.2885 49.0012 95.2885C49.3306 95.2947 49.6662 95.301 49.9956 95.301C50.4432 95.301 50.8907 95.2947 51.3382 95.2823C51.7422 95.2699 52.14 95.2574 52.5378 95.2388C52.8672 95.2202 53.2028 95.2015 53.5322 95.1767C53.5695 95.1767 53.6068 95.1704 53.6441 95.1704C53.9549 95.1456 54.2594 95.1207 54.564 95.0896C54.8685 95.0648 55.1731 95.0399 55.4777 95.0026C55.8444 94.9653 56.2111 94.9218 56.5778 94.8721C56.6089 94.8659 56.6399 94.8659 56.671 94.8597C56.9756 94.8162 57.2801 94.7726 57.5785 94.7291C57.8147 94.6918 58.0446 94.6546 58.2746 94.6173C58.604 94.5613 58.9272 94.5054 59.2504 94.4494C59.6606 94.3686 60.0709 94.2878 60.4749 94.2008C60.6302 94.1697 60.7794 94.1325 60.9348 94.1014C61.2269 94.033 61.5128 93.9709 61.805 93.8963C62.1406 93.8155 62.4824 93.7285 62.8181 93.6414C63.278 93.5171 63.7317 93.3928 64.1855 93.2623C64.5149 93.1629 64.8381 93.0634 65.1613 92.9577C65.6834 92.7961 66.1993 92.6221 66.7089 92.4356C66.9265 92.3611 67.1378 92.2865 67.3491 92.2057C67.7718 92.0503 68.2006 91.8887 68.6233 91.7147C68.8719 91.6152 69.1205 91.5158 69.3629 91.4101C69.7856 91.2361 70.202 91.0496 70.6184 90.8631C70.9416 90.714 71.2586 90.571 71.5756 90.4156C72.5266 89.9619 73.4589 89.4771 74.3788 88.9612C74.5714 88.8556 74.7579 88.7499 74.9506 88.6318C75.1619 88.5137 75.3795 88.3894 75.5908 88.2589C75.858 88.1035 76.1191 87.9419 76.3801 87.7803C76.6101 87.6373 76.8401 87.4944 77.0638 87.3452C77.2814 87.2085 77.4989 87.0593 77.7164 86.9163C78.2075 86.5869 78.6923 86.2575 79.1709 85.9095C79.8794 85.3998 80.5818 84.8715 81.2592 84.3183C81.483 84.1443 81.7068 83.964 81.9243 83.7776C82.2599 83.5041 82.5893 83.2182 82.9125 82.9323C83.1425 82.7396 83.3663 82.5345 83.59 82.3294C84.1619 81.8197 84.715 81.2914 85.2558 80.7444C85.4795 80.5269 85.6971 80.3094 85.9084 80.0856C85.927 80.0732 85.9395 80.0545 85.9519 80.0359C86.1756 79.8059 86.3932 79.5821 86.6107 79.3522C86.8096 79.1346 87.0085 78.9171 87.2012 78.6996C87.2571 78.6436 87.3131 78.5815 87.3628 78.5193C87.5493 78.3142 87.7295 78.1029 87.9098 77.8915C88.9975 76.6298 90.023 75.3184 90.974 73.951C91.1418 73.7148 91.3034 73.4786 91.465 73.2362C91.6514 72.9689 91.8317 72.6955 92.0057 72.422C92.764 71.2535 93.4726 70.0477 94.1314 68.8108C94.293 68.5125 94.4546 68.2079 94.61 67.8971C95.4864 66.1693 96.2695 64.3792 96.9408 62.5394C97.0775 62.179 97.2018 61.8185 97.3261 61.4517C97.4256 61.1783 97.5126 60.8986 97.6058 60.6127C97.755 60.1465 97.8979 59.6804 98.0347 59.208C98.1279 58.8786 98.2211 58.5491 98.3019 58.2197C98.6749 56.8461 98.9856 55.4414 99.2343 54.0181C99.284 53.7384 99.3337 53.4587 99.3772 53.179C99.4207 52.9117 99.458 52.6383 99.4953 52.371C99.545 52.0229 99.5948 51.6749 99.632 51.3206C99.688 50.8855 99.7315 50.4442 99.775 50.0029C99.8496 50.7799 99.9055 51.5568 99.9428 52.3399Z" fill="#95D8EE"/>
<path d="M99.7791 49.9969C97.411 75.4118 76.0299 95.3011 49.9997 95.3011C23.9695 95.3011 2.58842 75.4118 0.226562 50.0031C2.59464 24.5944 23.9757 4.70508 49.9997 4.70508C76.0237 4.70508 97.411 24.5944 99.7791 49.9969Z" fill="#A7E9FF"/>
<path d="M99.9428 47.6537C99.9055 48.443 99.8558 49.22 99.775 49.9969C99.6693 48.8905 99.5326 47.7966 99.3586 46.7089C99.3213 46.479 99.284 46.249 99.2405 46.019C99.2032 45.7828 99.1597 45.5404 99.11 45.3042C99.0478 44.9748 98.9856 44.6454 98.9173 44.3222C98.8924 44.2041 98.8675 44.086 98.8427 43.9741C98.7681 43.6509 98.6997 43.3277 98.6189 43.0108C98.5319 42.6316 98.4387 42.2525 98.333 41.8795C98.2398 41.5004 98.1341 41.1275 98.0223 40.7546C97.9166 40.3816 97.8047 40.0149 97.6866 39.6482C97.4504 38.8837 97.1894 38.1316 96.9159 37.3858C96.7916 37.0502 96.6611 36.7145 96.5305 36.3851C96.1763 35.4901 95.7971 34.6013 95.3931 33.7249C95.3869 33.7125 95.3807 33.6938 95.3745 33.6814C95.2191 33.3582 95.0699 33.035 94.9083 32.7118C94.7591 32.401 94.5976 32.0902 94.4359 31.7795C94.4173 31.736 94.3924 31.6862 94.3676 31.6365C94.206 31.332 94.0444 31.0274 93.8766 30.7291C93.7087 30.4121 93.5285 30.0951 93.3482 29.7843C93.3358 29.7595 93.3234 29.7346 93.3047 29.7097C93.1431 29.4238 92.9753 29.1441 92.8013 28.8644C92.7764 28.8147 92.7516 28.7712 92.7205 28.7215C92.5402 28.4294 92.36 28.1372 92.1735 27.8513C91.9746 27.5343 91.7757 27.2236 91.5644 26.919C91.3593 26.6082 91.148 26.3037 90.9367 26.0053C90.7005 25.6635 90.4581 25.3216 90.2032 24.986C89.793 24.4328 89.3704 23.8797 88.9353 23.3451C88.7053 23.053 88.4691 22.7733 88.2267 22.4874C87.9905 22.2077 87.7544 21.928 87.512 21.6545C87.5057 21.6483 87.4995 21.6421 87.4995 21.6359C87.0085 21.0889 86.5113 20.5482 86.0016 20.0199C85.7468 19.7526 85.4857 19.4916 85.2247 19.2305C84.7461 18.7457 84.2551 18.2796 83.7578 17.8258C83.1425 17.2602 82.5085 16.7133 81.8621 16.1788C81.6073 15.9674 81.3463 15.7561 81.0852 15.551C80.7993 15.3148 80.5072 15.0911 80.2088 14.8673C79.811 14.5627 79.407 14.2644 78.9968 13.9785C78.8041 13.8355 78.6115 13.6988 78.4126 13.5621C77.6729 13.0524 76.9209 12.5614 76.1564 12.089C75.9699 11.9709 75.7772 11.859 75.5908 11.7472C75.4603 11.6664 75.3297 11.5918 75.1992 11.5172C74.6958 11.2188 74.1799 10.9329 73.664 10.6532C73.5708 10.6035 73.4775 10.5538 73.3843 10.5041C73.1232 10.3673 72.8622 10.2244 72.5949 10.0939C72.2593 9.91982 71.9175 9.75201 71.5694 9.5904C71.2711 9.44123 70.9603 9.29828 70.6557 9.16154C70.2517 8.98129 69.8477 8.80104 69.4375 8.62701C69.251 8.54621 69.0584 8.46541 68.8657 8.39083C68.5798 8.27273 68.2876 8.15464 67.9893 8.04898C67.8899 7.99925 67.7842 7.96196 67.6785 7.93088C67.2497 7.75685 66.8146 7.60147 66.3733 7.4523C65.9693 7.30934 65.5653 7.17882 65.1613 7.04829C65.0059 6.99857 64.8443 6.94885 64.6889 6.90534C64.3409 6.79346 63.9928 6.6878 63.6447 6.59457C63.4956 6.55106 63.3402 6.50755 63.191 6.47026C62.8616 6.37703 62.5259 6.29001 62.1903 6.20921C62.0598 6.17192 61.9293 6.14084 61.7987 6.10976C61.3264 5.99167 60.854 5.88601 60.3754 5.78656C59.8657 5.6809 59.3499 5.58145 58.834 5.48822C58.4735 5.42607 58.113 5.36391 57.7525 5.30797C57.4044 5.25204 57.0502 5.20231 56.6959 5.15259C56.671 5.14637 56.6524 5.14637 56.6275 5.14016C56.2794 5.09665 55.9252 5.05314 55.5709 5.01585C55.2415 4.97856 54.912 4.94126 54.5826 4.9164C54.0605 4.86668 53.5322 4.82317 53.0039 4.79831C52.7553 4.77966 52.5005 4.76723 52.2456 4.7548C51.4998 4.72372 50.7477 4.70508 49.9956 4.70508C49.6911 4.70508 49.3865 4.70508 49.082 4.71129C48.8644 4.71751 48.6469 4.72372 48.4356 4.72994C48.1745 4.72994 47.9135 4.74859 47.6586 4.76102C47.3976 4.77345 47.1428 4.78588 46.8817 4.80453C46.5772 4.82317 46.2726 4.84182 45.968 4.86668C45.8189 4.87911 45.6697 4.89154 45.5205 4.90397C45.2098 4.93505 44.899 4.96613 44.5882 4.9972C43.8734 5.07179 43.1587 5.16502 42.4501 5.27068C41.9964 5.34527 41.5427 5.41985 41.0952 5.50065C40.7595 5.55659 40.4301 5.61875 40.1007 5.68712C39.734 5.7617 39.3673 5.83629 39.0006 5.9233C38.7022 5.99167 38.4039 6.06004 38.1055 6.13463C37.8134 6.203 37.5275 6.27137 37.2416 6.35217C36.9992 6.41432 36.7568 6.47647 36.5206 6.54484C36.2658 6.61943 36.0047 6.6878 35.7499 6.7686C35.4453 6.85562 35.1408 6.94885 34.8362 7.04829C34.6 7.12288 34.3638 7.19746 34.1277 7.27826C31.859 8.03655 29.6588 8.95643 27.5517 10.0193C27.2907 10.1498 27.0234 10.2865 26.7624 10.4295C26.377 10.6222 25.9979 10.8335 25.6187 11.0448C25.3888 11.1691 25.1588 11.2996 24.935 11.4364C24.1892 11.8652 23.4558 12.319 22.7348 12.7913C22.4862 12.9529 22.2375 13.1146 21.9889 13.2824C21.9454 13.3134 21.9081 13.3383 21.8708 13.3632C21.6036 13.5434 21.3425 13.7299 21.0815 13.9163C19.9503 14.7181 18.8564 15.5634 17.8059 16.4522C17.5635 16.6511 17.3211 16.8625 17.085 17.0738C16.855 17.2665 16.6312 17.4716 16.4075 17.6767C16.2459 17.8196 16.0843 17.9688 15.9289 18.118C15.6989 18.3231 15.4752 18.5406 15.2514 18.7582C13.1319 20.803 11.1989 23.0282 9.47727 25.4149C9.02976 26.0302 8.6009 26.6518 8.19068 27.2795C7.94828 27.64 7.71831 28.0005 7.49455 28.3672C7.32052 28.6407 7.1527 28.9266 6.98489 29.2063C6.79221 29.5295 6.59953 29.8589 6.41928 30.1883C6.09608 30.7539 5.78531 31.332 5.48697 31.91C5.36888 32.1462 5.25078 32.3762 5.13891 32.6123C5.03324 32.8175 4.9338 33.0226 4.84057 33.2277C4.69761 33.5198 4.56087 33.8181 4.42413 34.1165C4.37441 34.2221 4.3309 34.3278 4.28118 34.4335C4.15065 34.7256 4.02635 35.0239 3.90204 35.3223C3.74044 35.6952 3.58505 36.0743 3.4421 36.4535C3.31157 36.7705 3.19348 37.0875 3.07538 37.4107C3.06295 37.4479 3.04431 37.4915 3.03188 37.5287C2.93243 37.796 2.83298 38.0695 2.74597 38.343C2.70246 38.4611 2.65895 38.5792 2.62166 38.6972C2.53464 38.9396 2.45384 39.1883 2.37926 39.4431C2.23009 39.8968 2.08713 40.3568 1.95661 40.8167C1.85716 41.171 1.75771 41.5191 1.66448 41.8795C1.5899 42.1592 1.51531 42.4452 1.44694 42.7373C1.32263 43.2345 1.21076 43.7317 1.09888 44.2352C1.02429 44.5895 0.955924 44.95 0.887555 45.3042C0.81297 45.6896 0.7446 46.075 0.682446 46.4603C0.489767 47.6288 0.334382 48.8035 0.222504 49.9969C0.141703 49.22 0.0919801 48.443 0.0546875 47.6537C1.27291 21.2381 22.9834 0.180247 49.6538 0.00621543C49.7657 0 49.8838 0 49.9956 0C53.8679 0 57.6406 0.441295 61.2642 1.28038C65.3167 2.20648 69.1765 3.62981 72.7814 5.48822C83.5714 11.0137 92.0865 20.3493 96.543 31.7235C98.5008 36.7021 99.6818 42.0536 99.9428 47.6537Z" fill="#CBF2FF"/>
<path d="M10.2109 50.0027C10.2109 28.0312 28.0243 10.2178 50.0021 10.2178C71.9798 10.2178 89.787 28.0312 89.787 50.0027C89.787 50.7548 89.7684 51.5069 89.7249 52.2465C88.5564 31.3129 71.2153 14.7053 50.0021 14.7053C28.7888 14.7053 11.4416 31.3129 10.2731 52.2465C10.2296 51.5069 10.2109 50.7548 10.2109 50.0027Z" fill="#2393B8"/>
<path d="M10.2734 52.2467C10.3169 51.4946 10.3791 50.7426 10.4599 50.0029C12.6912 69.8612 29.5413 85.3003 50.0024 85.3003C70.4636 85.3003 87.3074 69.8612 89.5388 50.0029C89.6196 50.7426 89.6817 51.4946 89.7252 52.2467C88.563 73.174 71.2219 89.7879 50.0024 89.7879C28.783 89.7879 11.4357 73.174 10.2734 52.2467Z" fill="#39C6F4"/>
<path d="M10.4609 50.003C12.6985 30.1385 29.5485 14.7056 50.0035 14.7056C70.4585 14.7056 87.3023 30.1385 89.5398 50.003C87.3085 69.8613 70.4585 85.3004 50.0035 85.3004C29.5485 85.3004 12.6923 69.8613 10.4609 50.003Z" fill="#29A8D2"/>
<path d="M73.4683 48.7224C73.4683 59.2513 68.7197 66.2374 53.7157 66.2374H38.8297C34.8767 66.2374 31.6758 63.0303 31.6758 59.0773V56.7713C31.6758 60.7243 34.8767 63.9253 38.8297 63.9253H53.7157C68.1603 63.9253 73.1016 57.455 73.4497 47.5725C73.4621 47.9517 73.4683 48.337 73.4683 48.7224Z" fill="#95D8EE"/>
<path d="M57.7868 31.4564C56.5251 31.3258 55.1701 31.2637 53.7157 31.2637H38.8297C34.8767 31.2637 31.6758 34.4646 31.6758 38.4176V56.7718C31.6758 60.7248 34.8767 63.9257 38.8297 63.9257H53.7157C68.1603 63.9257 73.1016 57.4555 73.4497 47.573C73.1389 38.7222 69.1113 32.6 57.7868 31.4564ZM52.1867 56.6848H48.6936C48.2026 56.6848 47.7675 56.2497 47.7675 55.653V41.7926C47.7675 41.2456 48.2026 40.7546 48.6936 40.7546H52.1867C52.2675 40.7546 52.3421 40.7546 52.4167 40.7608C55.9532 40.8603 57.1777 43.3838 57.3455 47.573C57.3641 47.9397 57.3704 48.325 57.3704 48.7228C57.3704 53.7387 56.2267 56.6848 52.1867 56.6848Z" fill="#A7E9FF"/>
<path opacity="0.2" d="M61.2666 1.28038L58.8364 5.48822L55.8592 10.647L53.429 14.8549L43.9566 31.2636L31.675 52.5328L20.3877 72.0865L18.8463 74.7529L15.1481 81.1548L13.4389 84.1134C10.7849 81.2667 8.46034 78.1155 6.52734 74.7094L7.91338 72.3041L12.7303 63.9567L13.818 62.0797L40.5071 15.8493L40.5133 15.8431L43.447 10.7589L46.8841 4.80453L49.6562 0.00621543C49.7681 0 49.8862 0 49.998 0C53.8702 0 57.643 0.441295 61.2666 1.28038Z" fill="white"/>
<path opacity="0.2" d="M96.5447 31.7236L95.3948 33.725L89.3597 44.1731L88.7132 45.2919L68.1402 80.9311L64.6285 87.0098L60.4766 94.2011L57.4434 99.4531C55.0132 99.8198 52.527 100.006 49.9974 100.006C39.9843 100.006 30.6549 97.0602 22.8359 91.9884L24.8435 88.5202L27.9574 83.1314L29.8594 79.831L37.753 66.1571L39.0396 63.9257L47.766 48.816L52.4152 40.7608L57.7853 31.4563L65.6167 17.8943L67.6678 14.3453L70.6574 9.1616L72.7831 5.48828C83.5731 11.0138 92.0882 20.3494 96.5447 31.7236Z" fill="white"/>
</g>
</g>
<defs>
<clipPath id="clip0_1597_908">
<rect width="100" height="100" fill="white"/>
</clipPath>
<clipPath id="clip1_1597_908">
<rect width="100" height="100.006" fill="white"/>
</clipPath>
</defs>
</svg>
