<svg width="230" height="230" viewBox="0 0 230 230" fill="none" xmlns="http://www.w3.org/2000/svg">
<rect width="230" height="230" fill="#24282F"/>
<g clip-path="url(#clip0_1511_1031)">
<path d="M115.59 59.5224C110.785 27.651 86.4083 37.0892 88.2647 46.753C90.1211 56.4168 104.07 48.5921 115.59 59.5224Z" fill="#FFF9A6" stroke="black" stroke-width="1.73497" stroke-linecap="round" stroke-linejoin="round"/>
<path d="M114.498 59.5224C119.286 27.651 143.663 37.0892 141.806 46.753C139.95 56.4168 126.001 48.5921 114.48 59.5224H114.498Z" fill="#FFF9A6" stroke="black" stroke-width="1.73497" stroke-linecap="round" stroke-linejoin="round"/>
<path d="M194.133 133.432C194.133 177.101 158.739 193.149 115.07 193.149C71.4012 193.149 36.0078 177.101 36.0078 133.432C36.0078 132.495 36.0252 131.575 36.0599 130.656C45.4287 163.256 82.7132 178.957 115.07 178.957C147.427 178.957 184.712 163.256 194.081 130.656C194.115 131.575 194.133 132.495 194.133 133.432Z" fill="#FFF9A6"/>
<path d="M194.083 130.656C191.828 184.405 147.413 184.405 115.056 184.405C82.6985 184.405 36.0105 184.405 36.0625 130.656C36.5657 115.874 41.146 102.15 48.7105 90.5777C48.6931 90.4216 48.6758 90.2828 48.6758 90.1266C47.3398 77.3399 54.1756 64.3103 66.7368 57.9777C76.1056 53.2586 86.5675 53.3106 95.225 57.2316C101.575 55.6181 108.22 54.7506 115.073 54.7506C121.926 54.7506 128.536 55.6008 134.869 57.2316C143.509 53.3106 153.971 53.2759 163.322 57.9777C175.988 64.3624 182.858 77.5828 181.384 90.491C188.983 102.081 193.58 115.839 194.083 130.656Z" fill="#FFF9A6"/>
<path d="M51.9174 86.0146C50.859 87.5761 49.7834 88.9467 48.673 90.1265C47.337 77.3398 54.1728 64.3102 66.734 57.9775C55.075 66.0625 50.7029 78.8839 51.9174 86.0146Z" fill="#FFF9A6"/>
<path d="M178.172 86.0146C179.23 87.5761 180.306 88.9467 181.416 90.1265C182.752 77.3398 175.917 64.3102 163.355 57.9775C175.014 66.0625 179.387 78.8839 178.172 86.0146Z" fill="#FFF9A6"/>
<path d="M184.512 106.156C185.614 105.617 185.886 103.91 185.12 102.344C184.353 100.777 182.839 99.9445 181.737 100.484C180.635 101.023 180.363 102.729 181.13 104.296C181.896 105.862 183.411 106.695 184.512 106.156Z" fill="#FFF9A6"/>
<path d="M95.1529 64.1259C95.7181 62.0752 92.9863 59.5334 89.0511 58.4488C85.1159 57.3641 81.4676 58.1473 80.9024 60.198C80.3371 62.2487 83.069 64.7904 87.0042 65.8751C90.9393 66.9598 94.5876 66.1766 95.1529 64.1259Z" fill="#FFF9A6"/>
<path d="M154.754 59.5217C154.754 60.9964 152.429 62.1762 149.566 62.1762C146.704 62.1762 144.379 60.9791 144.379 59.5217C144.379 58.0643 146.704 56.8672 149.566 56.8672C152.429 56.8672 154.754 58.0643 154.754 59.5217Z" fill="#FFF9A6"/>
<path d="M73.2763 63.8076C75.2652 63.0265 76.4659 61.345 75.958 60.0518C75.4501 58.7585 73.4261 58.3433 71.4372 59.1244C69.4483 59.9054 68.2476 61.587 68.7555 62.8802C69.2634 64.1734 71.2874 64.5886 73.2763 63.8076Z" fill="#FFF9A6"/>
<path d="M95.2188 57.232C101.569 55.6185 108.214 54.751 115.067 54.751C121.92 54.751 128.53 55.6011 134.863 57.232" stroke="black" stroke-width="1.73497" stroke-linecap="round" stroke-linejoin="round"/>
<path d="M178.223 86.0151C179.334 87.4552 180.375 88.9472 181.381 90.4914C189.448 102.81 194.133 117.557 194.133 133.432C194.133 177.101 158.739 193.149 115.07 193.149C71.4012 193.149 36.0078 177.101 36.0078 133.432C36.0078 117.592 40.6749 102.879 48.7078 90.5781C49.7141 89.0166 50.7897 87.4899 51.9175 86.0151" stroke="black" stroke-width="1.73497" stroke-linecap="round" stroke-linejoin="round"/>
<path d="M100.603 60.3719C98.9206 59.1401 97.1162 58.0991 95.2251 57.2316C86.5676 53.3106 76.1057 53.2586 66.7369 57.9777C54.0369 64.3797 47.1838 77.6522 48.7106 90.5777" stroke="black" stroke-width="1.73497" stroke-linecap="round" stroke-linejoin="round"/>
<path d="M129.453 60.3716C131.153 59.1397 132.958 58.0814 134.866 57.2313C143.506 53.3102 153.968 53.2755 163.32 57.9773C175.985 64.362 182.855 77.5825 181.381 90.4906" stroke="black" stroke-width="1.73497" stroke-linecap="round" stroke-linejoin="round"/>
</g>
<defs>
<clipPath id="clip0_1511_1031">
<rect width="159.86" height="157.344" fill="white" transform="translate(35.1406 36.6729)"/>
</clipPath>
</defs>
</svg>
