<svg width="1390" height="723" viewBox="0 0 1390 723" fill="none" xmlns="http://www.w3.org/2000/svg">
<g opacity="0.5">
<g opacity="0.51" clip-path="url(#clip0_508_998)">
<rect width="1390" height="723" fill="black"/>
<g clip-path="url(#clip1_508_998)">
<path d="M1390 -494L-62 -494L-62 958L1390 958L1390 -494Z" fill="#282C5F"/>
<path d="M151.633 -494L130.043 -115.596L129.033 -97.9828L120.51 50.6894L109.525 243.364L104.096 338.375L28.4659 331.241L-56.6339 323.287L-62 322.782L-62 -16.6708L-56.3814 -51.7713L-34.2857 -189.017L14.7035 -494L151.633 -494Z" fill="#3B417B"/>
<path d="M695.832 308.83L565.531 328.337L477.527 341.531L465.153 192.859L407.957 -494L545.392 -494L695.832 308.83Z" fill="#3B417B"/>
<path d="M1000.03 -494L993.338 163.062L992.959 200.182L991.634 331.052L991.634 332.188L990.687 332.125L966.571 330.988L771.119 321.898L776.548 273.855L863.226 -494L1000.03 -494Z" fill="#3B417B"/>
<path d="M1370.29 309.398L1370.03 309.398L1150.34 327.769L1148.89 245.447L1145.54 54.7297L1135.82 -494L1273.51 -494L1346.17 109.401L1370.29 309.398Z" fill="#3B417B"/>
<path d="M1219.81 361.605C1219.81 361.605 1021.26 319.308 920.315 169.815C819.37 20.3856 854.344 -179.612 854.344 -179.612C854.344 -179.612 1052.89 -137.314 1153.83 12.1786C1254.78 161.608 1219.81 361.605 1219.81 361.605Z" fill="#505592"/>
<path d="M1049.84 320.256C1049.84 320.256 972.507 132.57 1038.73 -35.1679C1104.95 -202.905 1289.67 -287.121 1289.67 -287.121C1289.67 -287.121 1367.01 -99.4347 1300.78 68.3029C1234.56 236.04 1049.84 320.256 1049.84 320.256Z" fill="#505592"/>
<path d="M171.898 244.374C144.5 335.535 99.6771 399.549 99.6771 399.549C99.6771 399.549 66.9124 374.739 28.4659 331.242C16.1555 317.479 3.40313 301.886 -9.15983 284.525C-28.4146 257.884 -47.1012 227.203 -62 193.302L-62 -125.696C-53.0355 -149.812 -43.3134 -171.213 -34.2857 -189.016C-16.483 -224.369 -1.6473 -245.581 -1.6473 -245.581C-1.6473 -245.581 63.0614 -196.592 117.669 -115.596C121.52 -109.914 125.371 -104.043 129.033 -97.9821C156.116 -54.2959 179.158 -2.46578 188.186 55.1092C188.249 55.4248 188.312 55.7404 188.312 56.0561C198.729 123.353 188.502 188.883 171.898 244.374Z" fill="#505592"/>
<path d="M144.05 476.568C144.05 476.568 57.0564 265.459 131.55 76.7624C206.044 -111.871 413.806 -206.63 413.806 -206.63C413.806 -206.63 500.8 4.47806 426.306 193.175C351.812 381.809 144.05 476.568 144.05 476.568Z" fill="#505592"/>
<path d="M534.914 664.886C534.914 664.886 420.142 467.477 468.374 270.51C516.606 73.4799 709.596 -48.5513 709.596 -48.5513C709.596 -48.5513 824.367 148.858 776.135 345.825C727.903 542.855 534.914 664.886 534.914 664.886Z" fill="#505592"/>
<path d="M130.043 -115.595C127.644 -115.658 125.308 -115.658 122.909 -115.658C121.141 -115.658 119.437 -115.658 117.669 -115.595C51.6979 -114.396 -8.84418 -90.6585 -56.3814 -51.7702C-58.2753 -50.1919 -60.1692 -48.6768 -62 -47.0354L-62 382.757C-12.3795 425.496 52.2661 451.379 122.909 451.379C175.686 451.379 225.18 436.922 267.478 411.797C297.843 393.741 324.548 370.257 346.201 342.606C352.641 334.399 358.638 325.75 364.13 316.848C388.562 277.392 403.587 231.496 406.049 182.254C406.302 177.52 406.428 172.658 406.428 167.861C406.428 13.696 283.323 -111.807 130.043 -115.595Z" fill="#8086CF"/>
<path d="M1120.7 385.597C1259.11 385.597 1371.32 273.388 1371.32 134.97C1371.32 -3.44833 1259.11 -115.658 1120.7 -115.658C982.278 -115.658 870.068 -3.44833 870.068 134.97C870.068 273.388 982.278 385.597 1120.7 385.597Z" fill="#8086CF"/>
<path d="M1390 -160.987L1390 339.953C1355.28 338.501 1322.45 330.042 1292.78 315.837C1256.92 298.792 1225.73 273.414 1201.75 242.227C1169.17 199.93 1149.79 146.9 1149.79 89.4515C1149.79 77.2042 1150.67 65.2094 1152.38 53.4671C1165.7 -39.1452 1229.71 -115.47 1315.38 -146.341C1338.8 -154.863 1363.86 -159.914 1390 -160.987Z" fill="#8086CF"/>
<path d="M722.27 738.243C860.688 738.243 972.898 626.033 972.898 487.615C972.898 349.197 860.688 236.988 722.27 236.988C583.853 236.988 471.643 349.197 471.643 487.615C471.643 626.033 583.853 738.243 722.27 738.243Z" fill="#8086CF"/>
<path d="M870.052 362.301C939.261 362.301 995.366 306.196 995.366 236.987C995.366 167.778 939.261 111.673 870.052 111.673C800.843 111.673 744.738 167.778 744.738 236.987C744.738 306.196 800.843 362.301 870.052 362.301Z" fill="#8086CF"/>
<path d="M1389.98 162.682L1389.98 398.916C1349.7 466.34 1276.03 511.478 1191.75 511.478C1130.7 511.478 1075.27 487.804 1033.99 449.105C1006.46 423.285 985.249 390.772 973.002 354.22C970.477 346.644 968.33 338.942 966.563 330.988C962.964 314.826 961.07 298.034 961.07 280.799C961.07 249.865 967.131 220.32 978.179 193.364C982.535 182.884 987.585 172.72 993.33 163.061C1026.03 108.137 1080.83 67.9234 1145.54 54.7291C1147.81 54.2872 1150.08 53.8453 1152.36 53.4665C1165.11 51.2569 1178.3 50.1206 1191.75 50.1206C1251.15 50.1206 1305.26 72.5319 1346.17 109.337C1363.27 124.804 1378.11 142.796 1389.98 162.682Z" fill="#A7ADEC"/>
<path d="M919.864 498.032C1007.06 498.032 1077.75 427.343 1077.75 340.143C1077.75 252.943 1007.06 182.254 919.864 182.254C832.664 182.254 761.975 252.943 761.975 340.143C761.975 427.343 832.664 498.032 919.864 498.032Z" fill="#A7ADEC"/>
<path d="M1390.01 328.904L1390.01 694.114C1340.77 747.522 1270.19 780.981 1191.78 780.981C1074.99 780.981 975.561 706.677 938.188 602.701C927.897 574.229 922.342 543.484 922.342 511.477C922.342 506.932 922.468 502.45 922.721 497.967C924.425 462.551 933.011 428.966 947.152 398.474C954.349 382.817 963.061 368.045 973.036 354.219C978.528 346.517 984.399 339.194 990.712 332.124C991.028 331.745 991.343 331.429 991.659 331.05C1012.11 308.387 1036.36 289.195 1063.44 274.486C1089.57 260.344 1118.42 250.307 1148.92 245.446C1162.87 243.173 1177.2 242.036 1191.78 242.036C1195.13 242.036 1198.47 242.1 1201.76 242.226C1266.15 244.562 1324.8 269.498 1370 309.397L1370.06 309.397C1377.01 315.583 1383.7 322.086 1390.01 328.904Z" fill="#A7ADEC"/>
<path d="M744.739 589.382C807.079 589.382 857.616 538.845 857.616 476.504C857.616 414.164 807.079 363.627 744.739 363.627C682.398 363.627 631.861 414.164 631.861 476.504C631.861 538.845 682.398 589.382 744.739 589.382Z" fill="#A7ADEC"/>
<path d="M894.803 611.351C957.143 611.351 1007.68 560.814 1007.68 498.474C1007.68 436.133 957.143 385.597 894.803 385.597C832.463 385.597 781.926 436.133 781.926 498.474C781.926 560.814 832.463 611.351 894.803 611.351Z" fill="#A7ADEC"/>
<path d="M366.908 280.799C366.908 293.047 365.961 305.104 364.13 316.847C362.11 329.662 359.017 342.162 354.977 354.22C342.729 390.772 321.517 423.285 293.993 449.105C252.705 487.804 197.277 511.478 136.23 511.478C51.9504 511.478 -21.7228 466.34 -62 398.916L-62 162.682C-24.248 99.4886 42.8597 55.8655 120.51 50.6888C125.687 50.31 130.927 50.1206 136.23 50.1206C154.159 50.1206 171.583 52.1407 188.312 56.0548C261.733 72.9738 321.707 124.93 349.8 193.364C360.848 220.32 366.908 249.865 366.908 280.799Z" fill="#A7ADEC"/>
<path d="M408.131 498.032C495.331 498.032 566.021 427.343 566.021 340.143C566.021 252.943 495.331 182.254 408.131 182.254C320.932 182.254 250.242 252.943 250.242 340.143C250.242 427.343 320.932 498.032 408.131 498.032Z" fill="#A7ADEC"/>
<path d="M405.67 511.477C405.67 543.484 400.115 574.229 389.824 602.701C352.451 706.677 253.021 780.981 136.23 780.981C57.8216 780.981 -12.7583 747.522 -62 694.114L-62 328.904C-60.2323 327.01 -58.4647 325.116 -56.6339 323.285C-42.3664 308.639 -26.4576 295.634 -9.15983 284.523C25.7513 262.175 66.1548 247.592 109.525 243.362C118.301 242.478 127.202 242.036 136.23 242.036C148.351 242.036 160.219 242.857 171.898 244.372C205.105 248.791 236.354 259.208 264.574 274.486C296.139 291.657 323.853 314.889 346.201 342.603C349.232 346.391 352.199 350.242 354.977 354.219C364.951 368.045 373.663 382.817 380.86 398.474C395.001 428.966 403.587 462.551 405.291 497.967C405.544 502.45 405.67 506.932 405.67 511.477Z" fill="#A7ADEC"/>
<path d="M583.239 589.382C645.579 589.382 696.116 538.845 696.116 476.504C696.116 414.164 645.579 363.627 583.239 363.627C520.898 363.627 470.361 414.164 470.361 476.504C470.361 538.845 520.898 589.382 583.239 589.382Z" fill="#A7ADEC"/>
<path d="M433.192 611.351C495.532 611.351 546.069 560.814 546.069 498.474C546.069 436.133 495.532 385.597 433.192 385.597C370.851 385.597 320.314 436.133 320.314 498.474C320.314 560.814 370.851 611.351 433.192 611.351Z" fill="#A7ADEC"/>
<path d="M1390 598.787L1390 957.999L-62 957.999L-62 635.213C151.255 528.144 416.213 464.698 703.267 464.698C956.105 464.698 1191.71 513.877 1390 598.787Z" fill="#33687B"/>
<path d="M231.154 731.283C314.943 712.154 376.08 666.915 367.706 630.238C359.333 593.562 284.621 579.336 200.832 598.465C117.043 617.593 55.9069 662.833 64.2801 699.509C72.6532 736.186 147.365 750.412 231.154 731.283Z" fill="#2C5E71"/>
<path d="M1348.66 685.938C1360.43 656.136 1332.98 617.369 1287.36 599.35C1241.73 581.331 1195.2 590.883 1183.43 620.685C1171.66 650.487 1199.11 689.254 1244.74 707.273C1290.36 725.292 1336.89 715.74 1348.66 685.938Z" fill="#2C5E71"/>
<path d="M634.9 549.927C693.547 545.919 740.13 528.626 738.946 511.304C737.762 493.981 689.259 483.187 630.612 487.196C571.965 491.204 525.382 508.497 526.566 525.819C527.75 543.142 576.252 553.936 634.9 549.927Z" fill="#2C5E71"/>
<path d="M948.462 718.106C976.041 718.106 998.398 703.578 998.398 685.657C998.398 667.736 976.041 653.208 948.462 653.208C920.883 653.208 898.525 667.736 898.525 685.657C898.525 703.578 920.883 718.106 948.462 718.106Z" fill="#2C5E71"/>
<path d="M467.468 435.531C579.876 435.531 671.001 344.406 671.001 231.998C671.001 119.59 579.876 28.4658 467.468 28.4658C355.06 28.4658 263.936 119.59 263.936 231.998C263.936 344.406 355.06 435.531 467.468 435.531Z" fill="#8086CF"/>
<path d="M208.436 545.568C143.727 536.919 128.576 509.331 140.76 492.223C152.944 475.114 194.484 498.22 205.532 528.018C207.931 506.553 206.542 426.946 243.157 429.85C279.773 432.691 263.801 498.662 227.501 542.411L208.499 545.631L208.436 545.568Z" fill="#33687B"/>
</g>
</g>
</g>
<g clip-path="url(#clip2_508_998)">
<path d="M1073.46 163.35C1092.02 56.6418 1004.28 60.812 999.926 93.5916C995.57 126.371 1048.36 116.259 1073.46 163.35Z" fill="#CAF2FF" stroke="black" stroke-width="5.83018" stroke-linecap="round" stroke-linejoin="round"/>
<path d="M1069.97 162.184C1119.12 65.6761 1186.79 121.68 1170.59 150.512C1154.4 179.344 1118.25 139.57 1069.91 162.165L1069.97 162.184Z" fill="#CAF2FF" stroke="black" stroke-width="5.83018" stroke-linecap="round" stroke-linejoin="round"/>
<path d="M1245.24 482.455C1198.81 621.663 1068.92 635.191 929.714 588.763C790.506 542.334 694.743 453.545 741.172 314.338C742.168 311.351 743.201 308.438 744.289 305.544C739.494 419.426 841.655 509.12 944.802 543.522C1047.95 577.924 1183.5 567.511 1248.02 473.551C1247.16 476.519 1246.23 479.469 1245.24 482.455Z" fill="#86CDE4"/>
<path d="M1248.02 473.55C1183.69 642.493 1042.1 595.271 938.953 560.869C835.806 526.467 686.975 476.828 744.287 305.543C761.607 258.956 790.799 220.079 827.216 191.231C827.327 190.715 827.419 190.254 827.585 189.756C836.921 147.575 872.565 113.307 919.34 106.475C954.223 101.393 987.518 112.682 1010.95 134.386C1032.9 135.993 1055.01 140.293 1076.86 147.579C1098.7 154.865 1118.87 164.603 1137.32 176.535C1169.03 173.222 1202.42 184.234 1227.23 209.165C1260.82 242.983 1268.66 292.432 1250.24 332.012C1262.14 377.036 1262.17 425.783 1248.02 473.55Z" fill="#A7E9FF"/>
<path d="M842.304 180.102C837.27 183.954 832.384 187.18 827.59 189.76C836.926 147.578 872.57 113.311 919.345 106.479C873.583 119.856 846.014 156.079 842.304 180.102Z" fill="#86CDE4"/>
<path d="M1244.77 314.334C1246.48 320.437 1248.46 325.95 1250.74 330.891C1268.59 291.55 1260.66 242.747 1227.35 209.205C1255.92 247.374 1256.22 292.894 1244.77 314.334Z" fill="#86CDE4"/>
<path d="M1219.32 474.121C1195.36 545.964 1124.39 587.011 1060.79 565.798C1040.22 558.936 1022.94 546.414 1009.8 530.169C983.755 498.067 941.721 484.048 901.62 494.089C881.357 499.192 860.026 498.839 839.507 491.995C775.849 470.764 743.727 395.334 767.688 323.49C791.65 251.647 862.638 210.545 926.296 231.776C946.87 238.638 964.088 251.141 977.23 267.386C1003.28 299.489 1045.31 313.508 1085.36 303.448C1105.62 298.345 1126.95 298.699 1147.52 305.561C1211.13 326.774 1243.25 402.204 1219.27 474.102L1219.32 474.121Z" fill="#86CDE4"/>
<path d="M848.034 214.75C857.53 208.387 862.743 199.52 859.678 194.946C856.613 190.372 846.43 191.822 836.934 198.185C827.438 204.548 822.225 213.415 825.29 217.989C828.355 222.563 838.538 221.113 848.034 214.75Z" fill="#86CDE4"/>
<path d="M1243.58 385.286C1247.67 384.739 1250.35 379.587 1249.57 373.778C1248.79 367.97 1244.85 363.704 1240.77 364.251C1236.68 364.798 1234 369.95 1234.78 375.759C1235.56 381.567 1239.5 385.832 1243.58 385.286Z" fill="#86CDE4"/>
<path d="M1003.39 156.289C1007.37 150.353 1001.37 139.346 989.976 131.704C978.585 124.063 966.122 122.68 962.14 128.617C958.158 134.553 964.164 145.56 975.555 153.201C986.947 160.843 999.409 162.225 1003.39 156.289Z" fill="#CAF2FF"/>
<path d="M1198.28 204.978C1196.71 209.679 1188.05 210.968 1178.92 207.924C1169.8 204.881 1163.66 198.593 1165.21 193.947C1166.76 189.301 1175.44 187.957 1184.57 191C1193.69 194.044 1199.83 200.332 1198.28 204.978Z" fill="#CAF2FF"/>
<path d="M933.994 132.015C941.165 131.64 946.78 127.556 946.536 122.894C946.292 118.231 940.281 114.756 933.111 115.131C925.94 115.506 920.325 119.59 920.569 124.252C920.813 128.915 926.823 132.391 933.994 132.015Z" fill="#CAF2FF"/>
<path d="M1010.95 134.388C1032.91 135.995 1055.02 140.295 1076.86 147.581C1098.71 154.867 1118.88 164.605 1137.33 176.537" stroke="black" stroke-width="5.83018" stroke-linecap="round" stroke-linejoin="round"/>
<path d="M1244.93 314.387C1246.94 320.158 1248.67 326.021 1250.24 332.013C1262.86 379.858 1262.12 431.85 1245.24 482.455C1198.81 621.663 1068.92 635.191 929.713 588.763C790.505 542.334 694.742 453.545 741.171 314.338C758.012 263.843 788.532 221.904 827.217 191.232C832.085 187.325 837.137 183.601 842.3 180.099" stroke="black" stroke-width="5.83018" stroke-linecap="round" stroke-linejoin="round"/>
<path d="M1024.76 150.116C1020.7 144.4 1016.06 139.163 1010.95 134.387C987.521 112.683 954.226 101.394 919.343 106.477C872.052 113.383 836.094 148.406 827.219 191.233" stroke="black" stroke-width="5.83018" stroke-linecap="round" stroke-linejoin="round"/>
<path d="M1116.73 180.789C1123.46 178.67 1130.33 177.214 1137.32 176.533C1169.03 173.22 1202.42 184.233 1227.23 209.163C1260.82 242.982 1268.66 292.43 1250.24 332.011" stroke="black" stroke-width="5.83018" stroke-linecap="round" stroke-linejoin="round"/>
<path d="M976.431 404.729C947.714 467.612 880.6 498.574 826.511 473.896C786.783 455.729 765.146 412.621 767.808 366.124C772.061 403.68 792.649 436.298 825.869 451.496C879.94 476.228 947.055 445.266 975.79 382.328C983.499 365.479 987.669 348.001 988.538 331.021C991.281 354.676 987.589 380.302 976.431 404.729Z" fill="#E0D7D1"/>
<path d="M987.544 341.751C982.628 305.448 962.279 274.139 929.907 259.347C875.818 234.67 808.648 265.614 779.931 328.496C773.882 341.843 770.026 355.43 768.217 368.963C768.051 367.985 767.922 367.082 767.812 366.123C768.773 349.235 772.924 331.998 780.542 315.24C809.258 252.358 876.428 221.414 930.517 246.091C963.645 261.197 984.16 293.667 988.541 331.021C988.338 334.579 988.061 338.174 987.544 341.751Z" fill="white"/>
<path d="M975.787 382.327C947.052 445.264 879.937 476.227 825.867 451.494C793.494 436.702 773.109 405.319 768.211 368.961C770.02 355.429 773.876 341.842 779.925 328.495C808.642 265.612 875.812 234.669 929.901 259.346C962.273 274.138 982.622 305.447 987.538 341.749C985.784 355.3 981.892 368.998 975.787 382.327Z" fill="#F1E9E5"/>
<path d="M976.426 404.721C1005.16 341.807 984.593 270.778 930.495 246.073C876.397 221.368 809.251 252.343 780.52 315.257C751.789 378.171 772.353 449.2 826.451 473.905C880.549 498.61 947.695 467.635 976.426 404.721Z" stroke="black" stroke-width="5.83018" stroke-miterlimit="10"/>
<path d="M937.646 387.612C916.159 434.714 867.925 458.821 829.948 441.484C798.977 427.283 784.308 390.001 791.652 351.212C790.578 379.494 801.949 405.289 824.237 418.622C860.111 440.052 910.686 421.458 937.242 377.03C941.133 370.522 944.269 363.886 946.704 357.138C945.227 367.278 942.238 377.528 937.646 387.612Z" fill="black"/>
<path d="M946.695 357.136C944.26 363.884 941.125 370.52 937.234 377.028C910.677 421.456 860.102 440.05 824.228 418.62C801.941 405.287 790.57 379.492 791.644 351.21C793.286 342.416 796.072 333.512 800.074 324.829C806.88 309.951 816.303 297.361 827.274 287.683C841.583 275.001 858.436 267.224 875.306 265.66C886.405 264.629 897.485 266.235 907.772 270.957C937.637 284.605 952.269 319.785 946.695 357.136Z" fill="#1A1A1A"/>
<path d="M879.029 287.305C874.676 300.357 859.188 306.992 844.476 302.085C836.623 299.466 830.539 294.118 827.277 287.683C841.586 275.001 858.439 267.224 875.308 265.66C879.843 271.966 881.501 279.894 879.029 287.305Z" fill="#2C2C2C"/>
<path d="M875.514 333.395C883.303 335.993 891.5 332.453 893.823 325.489C896.146 318.524 891.715 310.773 883.926 308.175C876.136 305.577 867.939 309.117 865.617 316.081C863.294 323.045 867.725 330.797 875.514 333.395Z" fill="#2C2C2C"/>
<path d="M1002.68 413.482C987.903 481.013 1023 546.063 1081.07 558.795C1123.75 568.112 1166.93 546.623 1192.71 507.836C1166.77 535.321 1130.72 549.05 1095.03 541.264C1036.94 528.588 1001.84 463.537 1016.64 395.951C1020.59 377.847 1027.75 361.366 1037.24 347.263C1020.85 364.536 1008.42 387.248 1002.68 413.482Z" fill="#E0D7D1"/>
<path d="M1031.61 356.447C1057.33 330.363 1092.4 317.537 1127.17 325.139C1185.24 337.87 1220.39 402.939 1205.61 470.47C1202.44 484.777 1197.37 497.958 1190.69 509.867C1191.41 509.185 1192.05 508.54 1192.72 507.839C1202.09 493.755 1209.11 477.477 1213.08 459.502C1227.86 391.971 1192.71 326.902 1134.64 314.171C1099.08 306.366 1063.18 320.021 1037.25 347.266C1035.28 350.234 1033.34 353.276 1031.61 356.447Z" fill="white"/>
<path d="M1016.65 395.953C1001.85 463.539 1036.94 528.589 1095.04 541.265C1129.81 548.867 1164.95 536.004 1190.69 509.865C1197.37 497.956 1202.44 484.775 1205.61 470.469C1220.39 402.938 1185.24 337.869 1127.17 325.138C1092.4 317.536 1057.33 330.362 1031.61 356.445C1024.88 368.336 1019.77 381.628 1016.65 395.953Z" fill="#F1E9E5"/>
<path d="M1081.18 558.797C1139.28 571.512 1198.36 527.047 1213.15 459.482C1227.94 391.918 1192.83 326.838 1134.73 314.124C1076.63 301.409 1017.55 345.874 1002.76 413.438C987.977 481.003 1023.09 546.083 1081.18 558.797Z" stroke="black" stroke-width="5.83018" stroke-miterlimit="10"/>
<path d="M1043.99 423.08C1032.9 473.65 1057.01 521.884 1097.79 530.815C1131.09 538.047 1165.2 517.035 1182.61 481.603C1166.49 504.867 1141.91 518.672 1116.08 515.958C1074.53 511.563 1045.24 466.333 1050.67 414.858C1051.46 407.318 1052.94 400.128 1055.04 393.27C1050.13 402.266 1046.37 412.258 1043.99 423.08Z" fill="black"/>
<path d="M1055.04 393.27C1052.93 400.128 1051.46 407.318 1050.66 414.858C1045.24 466.332 1074.52 511.563 1116.08 515.958C1141.91 518.672 1166.49 504.867 1182.6 481.603C1186.57 473.584 1189.69 464.79 1191.7 455.443C1195.18 439.459 1195.21 423.732 1192.24 409.407C1188.41 390.674 1179.6 374.338 1167.05 362.96C1158.79 355.474 1148.96 350.107 1137.9 347.708C1105.82 340.697 1073 360.05 1055.04 393.27Z" fill="#1A1A1A"/>
<path d="M1151.07 378.037C1146.72 391.09 1155.12 405.693 1169.83 410.6C1177.69 413.219 1185.76 412.593 1192.23 409.405C1188.4 390.673 1179.59 374.336 1167.04 362.959C1159.63 365.281 1153.54 370.626 1151.07 378.037Z" fill="#2C2C2C"/>
<path d="M1126.22 417.009C1134.01 419.607 1142.21 416.067 1144.53 409.103C1146.85 402.139 1142.42 394.387 1134.63 391.79C1126.84 389.192 1118.64 392.731 1116.32 399.696C1114 406.66 1118.43 414.412 1126.22 417.009Z" fill="#2C2C2C"/>
</g>
<defs>
<clipPath id="clip0_508_998">
<rect width="1390" height="723" fill="white"/>
</clipPath>
<clipPath id="clip1_508_998">
<rect width="1452" height="1452" fill="white" transform="translate(-62 -494)"/>
</clipPath>
<clipPath id="clip2_508_998">
<rect width="537.193" height="528.739" fill="white" transform="translate(841.287 4.97412) rotate(18.4447)"/>
</clipPath>
</defs>
</svg>
