<svg width="200" height="200" viewBox="0 0 200 200" fill="none" xmlns="http://www.w3.org/2000/svg">
<g clip-path="url(#clip0_1602_1024)">
<path d="M100.278 36.2081C94.7658 -0.347971 66.8065 10.4776 68.9358 21.5618C71.0651 32.646 87.0646 23.6712 100.278 36.2081Z" fill="#CAF2FF" stroke="black" stroke-width="1.98999" stroke-linecap="round" stroke-linejoin="round"/>
<path d="M99.0199 36.2083C104.512 -0.347849 132.472 10.4777 130.342 21.5619C128.213 32.6462 112.214 23.6713 99 36.2083H99.0199Z" fill="#CAF2FF" stroke="black" stroke-width="1.98999" stroke-linecap="round" stroke-linejoin="round"/>
<path d="M190.36 120.981C190.36 171.069 149.764 189.477 99.676 189.477C49.588 189.477 8.99219 171.069 8.99219 120.981C8.99219 119.907 9.01209 118.852 9.05189 117.797C19.7978 155.189 62.5627 173.199 99.676 173.199C136.789 173.199 179.554 155.189 190.3 117.797C190.34 118.852 190.36 119.907 190.36 120.981Z" fill="#86CDE4"/>
<path d="M190.299 117.797C187.712 179.447 136.768 179.447 99.655 179.447C62.5417 179.447 8.99113 179.447 9.05083 117.797C9.62793 100.843 14.8815 85.1018 23.5579 71.8285C23.538 71.6494 23.5181 71.4902 23.5181 71.3111C21.9858 56.6449 29.8263 41.7001 44.2338 34.4367C54.9798 29.0239 66.9794 29.0836 76.9095 33.581C84.1928 31.7303 91.8145 30.7353 99.6749 30.7353C107.535 30.7353 115.117 31.7104 122.381 33.581C132.291 29.0836 144.29 29.0438 155.017 34.4367C169.543 41.7598 177.424 56.9235 175.732 71.729C184.448 85.0222 189.722 100.803 190.299 117.797Z" fill="#A7E9FF"/>
<path d="M27.2427 66.595C26.0289 68.386 24.7951 69.9581 23.5215 71.3113C21.9892 56.645 29.8297 41.7002 44.2373 34.4368C30.8645 43.7101 25.8498 58.4161 27.2427 66.595Z" fill="#86CDE4"/>
<path d="M172.053 66.595C173.267 68.386 174.501 69.9581 175.774 71.3113C177.307 56.645 169.466 41.7002 155.059 34.4368C168.431 43.7101 173.446 58.4161 172.053 66.595Z" fill="#86CDE4"/>
<path d="M181.069 121.081C181.069 146.931 162.522 167.885 139.637 167.885C132.235 167.885 125.29 165.696 119.28 161.856C107.38 154.274 92.2557 154.274 80.3556 161.856C74.3458 165.696 67.4007 167.885 60.0179 167.885C37.1131 167.885 18.5664 146.931 18.5664 121.081C18.5664 95.2308 37.1131 74.2563 60.0179 74.2563C67.4206 74.2563 74.3458 76.4453 80.3556 80.286C92.2557 87.8679 107.38 87.8679 119.26 80.286C125.27 76.4453 132.215 74.2563 139.617 74.2563C162.502 74.2563 181.049 95.2109 181.049 121.081H181.069Z" fill="#86CDE4"/>
<path d="M32.8385 77.1946C35.2261 74.1088 35.9566 70.675 34.4702 69.5249C32.9838 68.3749 29.8434 69.9441 27.4558 73.0299C25.0683 76.1157 24.3378 79.5495 25.8242 80.6996C27.3106 81.8496 30.451 80.2804 32.8385 77.1946Z" fill="#86CDE4"/>
<path d="M179.331 89.697C180.594 89.0788 180.906 87.121 180.027 85.3243C179.148 83.5275 177.411 82.5722 176.147 83.1904C174.884 83.8086 174.572 85.7664 175.451 87.5631C176.33 89.3598 178.067 90.3152 179.331 89.697Z" fill="#86CDE4"/>
<path d="M76.8296 41.489C77.478 39.1368 74.3445 36.2215 69.831 34.9774C65.3174 33.7333 61.1328 34.6316 60.4845 36.9837C59.8361 39.3359 62.9695 42.2512 67.4831 43.4953C71.9967 44.7394 76.1813 43.8412 76.8296 41.489Z" fill="#CAF2FF"/>
<path d="M145.191 36.2075C145.191 37.899 142.525 39.2522 139.241 39.2522C135.958 39.2522 133.291 37.8791 133.291 36.2075C133.291 34.5359 135.958 33.1628 139.241 33.1628C142.525 33.1628 145.191 34.5359 145.191 36.2075Z" fill="#CAF2FF"/>
<path d="M51.7381 41.1234C54.0193 40.2276 55.3965 38.2989 54.814 36.8155C54.2314 35.3322 51.9099 34.856 49.6286 35.7518C47.3474 36.6477 45.9703 38.5764 46.5528 40.0597C47.1353 41.543 49.4568 42.0193 51.7381 41.1234Z" fill="#CAF2FF"/>
<path d="M76.9121 33.5808C84.1955 31.7301 91.8171 30.7351 99.6776 30.7351C107.538 30.7351 115.12 31.7102 122.383 33.5808" stroke="black" stroke-width="1.98999" stroke-linecap="round" stroke-linejoin="round"/>
<path d="M172.112 66.5948C173.385 68.2465 174.579 69.9579 175.733 71.729C184.987 85.8579 190.36 102.773 190.36 120.981C190.36 171.069 149.764 189.477 99.676 189.477C49.588 189.477 8.99219 171.069 8.99219 120.981C8.99219 102.813 14.3453 85.9375 23.5589 71.8285C24.7131 70.0375 25.9469 68.2863 27.2404 66.5948" stroke="black" stroke-width="1.98999" stroke-linecap="round" stroke-linejoin="round"/>
<path d="M83.0805 37.1828C81.1502 35.7699 79.0806 34.576 76.9115 33.581C66.9815 29.0836 54.9818 29.0239 44.2359 34.4367C29.6692 41.7797 21.8087 57.0031 23.5599 71.8285" stroke="black" stroke-width="1.98999" stroke-linecap="round" stroke-linejoin="round"/>
<path d="M116.172 37.1826C118.122 35.7698 120.192 34.5559 122.381 33.5808C132.291 29.0834 144.29 29.0436 155.016 34.4365C169.543 41.7596 177.424 56.9233 175.732 71.7289" stroke="black" stroke-width="1.98999" stroke-linecap="round" stroke-linejoin="round"/>
<path d="M94.9282 124.842C92.4208 148.304 74.0333 165.577 53.8548 163.428C39.0294 161.836 27.3681 150.215 23.209 134.872C28.6417 146.573 38.8304 154.911 51.228 156.244C71.4065 158.413 89.794 141.14 92.3014 117.658C92.978 111.37 92.4407 105.261 90.8885 99.6689C94.3312 107.032 95.9033 115.728 94.9282 124.842Z" fill="#E0D7D1"/>
<path d="M91.7246 103.251C86.2123 92.0272 76.2425 84.0871 64.1632 82.7936C43.9847 80.6444 25.5773 97.9175 23.07 121.38C22.5526 126.354 22.7715 131.17 23.6471 135.747C23.4879 135.449 23.3486 135.17 23.2093 134.872C21.6969 129.3 21.1795 123.27 21.8362 117.021C24.3436 93.5595 42.751 76.2864 62.9294 78.4356C75.2873 79.7489 85.4362 88.0472 90.8888 99.6687C91.2072 100.843 91.5057 102.037 91.7246 103.251Z" fill="white"/>
<path d="M92.3009 117.658C89.7935 141.14 71.406 158.413 51.2276 156.244C39.1483 154.951 29.1586 146.991 23.6463 135.747C22.7707 131.17 22.5518 126.355 23.0692 121.38C25.5766 97.9177 43.984 80.6446 64.1625 82.7938C76.2417 84.0873 86.2116 92.0274 91.7238 103.251C92.6193 107.828 92.8382 112.683 92.3009 117.658Z" fill="#F1E9E5"/>
<path d="M94.9253 124.841C97.4339 101.367 83.1049 80.5889 62.9206 78.4319C42.7362 76.2748 24.3399 93.5553 21.8313 117.029C19.3227 140.503 33.6517 161.281 53.8361 163.438C74.0204 165.595 92.4167 148.314 94.9253 124.841Z" stroke="black" stroke-width="1.98999" stroke-miterlimit="10"/>
<path d="M80.5208 123.489C78.6502 141.061 65.6357 154.075 51.4669 152.563C39.9051 151.309 31.1292 140.822 29.3184 127.469C32.0247 136.742 38.4922 143.867 47.1487 145.777C61.0786 148.842 75.4463 137.359 79.2472 120.106C79.8044 117.579 80.1029 115.091 80.1626 112.644C80.7795 116.086 80.9188 119.728 80.5208 123.489Z" fill="black"/>
<path d="M80.1598 112.644C80.1001 115.091 79.8016 117.579 79.2444 120.106C75.4435 137.359 61.0758 148.841 47.1458 145.777C38.4894 143.866 32.0219 136.742 29.3155 127.469C28.8976 124.444 28.8379 121.26 29.1961 118.017C29.7931 112.464 31.4846 107.37 33.992 103.052C37.2556 97.4003 41.8724 93.0621 47.1657 90.7338C50.6482 89.2015 54.4093 88.5249 58.25 88.9428C69.3939 90.1368 77.931 99.9474 80.1598 112.644Z" fill="#1A1A1A"/>
<path d="M50.71 97.3406C50.71 102.037 46.4117 105.858 41.1183 105.858C38.2925 105.858 35.7453 104.783 33.9941 103.052C37.2577 97.4003 41.8745 93.0622 47.1679 90.7339C49.3171 92.2861 50.71 94.6741 50.71 97.3406Z" fill="#2C2C2C"/>
<path d="M54.5491 112.644C57.3516 112.644 59.6236 110.612 59.6236 108.106C59.6236 105.601 57.3516 103.569 54.5491 103.569C51.7465 103.569 49.4746 105.601 49.4746 108.106C49.4746 110.612 51.7465 112.644 54.5491 112.644Z" fill="#2C2C2C"/>
<path d="M104.373 124.842C106.88 148.304 125.268 165.577 145.446 163.428C160.272 161.836 171.933 150.215 176.092 134.872C170.659 146.573 160.471 154.911 148.073 156.244C127.894 158.413 109.507 141.14 107 117.658C106.323 111.37 106.86 105.261 108.412 99.6689C104.97 107.032 103.398 115.728 104.373 124.842Z" fill="#E0D7D1"/>
<path d="M107.58 103.251C113.092 92.0273 123.062 84.0872 135.141 82.7938C155.32 80.6446 173.727 97.9177 176.235 121.38C176.752 126.355 176.533 131.17 175.658 135.747C175.817 135.449 175.956 135.17 176.095 134.872C177.608 129.3 178.125 123.27 177.468 117.022C174.961 93.5596 156.554 76.2865 136.375 78.4357C124.017 79.7491 113.868 88.0473 108.416 99.6689C108.097 100.843 107.799 102.037 107.58 103.251Z" fill="white"/>
<path d="M107.001 117.658C109.508 141.14 127.896 158.413 148.074 156.244C160.154 154.951 170.143 146.991 175.656 135.747C176.531 131.17 176.75 126.355 176.233 121.38C173.725 97.9177 155.318 80.6446 135.139 82.7938C123.06 84.0873 113.09 92.0274 107.578 103.251C106.683 107.828 106.464 112.683 107.001 117.658Z" fill="#F1E9E5"/>
<path d="M145.483 163.417C165.667 161.26 179.996 140.482 177.488 117.008C174.979 93.5345 156.583 76.2539 136.399 78.411C116.214 80.5681 101.885 101.346 104.394 124.82C106.902 148.293 125.299 165.574 145.483 163.417Z" stroke="black" stroke-width="1.98999" stroke-miterlimit="10"/>
<path d="M118.785 123.489C120.655 141.061 133.67 154.075 147.839 152.563C159.4 151.309 168.176 140.822 169.987 127.469C167.281 136.743 160.813 143.867 152.157 145.777C138.227 148.842 123.859 137.359 120.058 120.106C119.501 117.579 119.203 115.091 119.143 112.644C118.526 116.086 118.387 119.728 118.785 123.489Z" fill="black"/>
<path d="M119.143 112.643C119.202 115.091 119.501 117.579 120.058 120.106C123.859 137.359 138.227 148.841 152.157 145.777C160.813 143.866 167.28 136.742 169.987 127.469C170.405 124.444 170.464 121.26 170.106 118.016C169.509 112.464 167.818 107.37 165.31 103.052C162.047 97.4001 157.43 93.062 152.137 90.7337C148.654 89.2014 144.893 88.5248 141.052 88.9427C129.908 90.1367 121.371 99.9473 119.143 112.643Z" fill="#1A1A1A"/>
<path d="M148.592 97.3406C148.592 102.037 152.89 105.858 158.184 105.858C161.009 105.858 163.557 104.783 165.308 103.052C162.044 97.4003 157.427 93.0622 152.134 90.7339C149.985 92.2861 148.592 94.6741 148.592 97.3406Z" fill="#2C2C2C"/>
<path d="M144.754 112.644C147.557 112.644 149.829 110.612 149.829 108.106C149.829 105.601 147.557 103.569 144.754 103.569C141.952 103.569 139.68 105.601 139.68 108.106C139.68 110.612 141.952 112.644 144.754 112.644Z" fill="#2C2C2C"/>
</g>
<defs>
<clipPath id="clip0_1602_1024">
<rect width="183.358" height="180.472" fill="white" transform="translate(8 10)"/>
</clipPath>
</defs>
</svg>
