<svg width="200" height="200" viewBox="0 0 200 200" fill="none" xmlns="http://www.w3.org/2000/svg">
<g clip-path="url(#clip0_1602_1025)">
<g clip-path="url(#clip1_1602_1025)">
<path d="M77.322 167.132C78.2356 171.415 76.4916 174.975 75.1695 175.398C73.8474 175.822 70.2447 173.692 68.8217 171.592" fill="#E5CD9A"/>
<path d="M77.322 167.132C78.2356 171.415 76.4916 174.975 75.1695 175.398C73.8474 175.822 70.2447 173.692 68.8217 171.592" stroke="black" stroke-width="1.59486" stroke-linecap="round" stroke-linejoin="round"/>
<path d="M51.5547 179.329C53.6656 183.157 57.3201 184.709 58.5921 184.166C59.8641 183.624 61.193 179.651 60.8949 177.133" fill="#E5CD9A"/>
<path d="M51.5547 179.329C53.6656 183.157 57.3201 184.709 58.5921 184.166C59.8641 183.624 61.193 179.651 60.8949 177.133" stroke="black" stroke-width="1.59486" stroke-linecap="round" stroke-linejoin="round"/>
<path d="M79.1143 148.144C80.7998 152.987 81.2847 157.044 80.6492 160.538C80.1803 163.157 79.0704 165.444 77.4133 167.554C75.7144 169.692 73.4006 171.59 70.5459 173.392C68.277 174.863 65.66 176.217 62.7144 177.581C62.1266 177.846 61.5498 178.092 60.9687 178.323C57.9467 179.593 55.1143 180.361 52.4453 180.652C42.6786 181.692 35.5112 176.278 31.505 164.815C31.4071 164.528 31.3049 164.225 31.2071 163.938C31.0421 163.355 30.6961 162.425 30.4051 161.397C29.9752 159.877 29.592 158.113 29.8318 156.852C30.108 156.774 30.4149 156.687 30.7415 156.611C31.6249 156.394 32.6638 156.2 33.8101 155.975C51.1071 152.903 58.573 139.105 63.7023 131.869C63.9925 131.489 64.2476 131.102 64.5267 130.741C64.5267 130.741 64.5684 130.713 64.5794 130.693L64.6385 130.726C67.1172 132.047 69.4459 133.774 71.4912 135.848C71.4912 135.848 71.5006 135.862 71.5195 135.889C71.7098 136.034 71.8823 136.234 72.0309 136.408C75.0787 139.623 77.542 143.583 79.1537 148.166L79.1143 148.144Z" fill="#FFEEC9"/>
<path d="M80.6288 160.544C80.1599 163.163 79.05 165.449 77.3929 167.559C75.694 169.697 73.3802 171.595 70.5255 173.398C68.2565 174.868 65.6396 176.222 62.694 177.586C62.1062 177.852 61.5294 178.098 60.9483 178.329C57.9263 179.598 55.0939 180.367 52.4249 180.658C42.6582 181.698 35.4908 176.284 31.4846 164.82C31.3867 164.533 31.2845 164.231 31.1867 163.943C31.0217 163.36 30.6757 162.43 30.3847 161.402C29.9548 159.883 29.5716 158.119 29.8114 156.857C30.0876 156.779 30.3945 156.692 30.7211 156.616C31.6045 156.4 32.6434 156.205 33.7897 155.98C51.0867 152.909 58.5526 139.111 63.6819 131.875C63.972 131.494 64.2272 131.107 64.5063 130.747L64.6137 130.716C62.9207 138.322 50.1063 151.612 44.3436 155.496C36.2724 160.946 39.6801 170.822 46.063 174.635C52.658 178.553 66.2308 177.199 80.6485 160.555L80.6288 160.544Z" fill="#E5CD9A"/>
<path d="M79.1269 148.14C82.0935 156.632 81.3004 162.675 77.3951 167.559C75.6809 169.701 73.3671 171.599 70.5124 173.401L70.497 173.406C68.2281 174.877 65.6112 176.23 62.6656 177.594C62.0975 177.871 61.501 178.106 60.9242 178.352C57.9022 179.622 55.0545 180.394 52.3964 180.666C42.6144 181.71 35.4667 176.307 31.4408 164.833C31.3429 164.546 31.2408 164.243 31.1582 163.952C30.9932 163.368 30.6516 162.454 30.3563 161.411C29.9221 159.876 29.5431 158.127 29.7786 156.85C30.0548 156.772 30.3617 156.685 30.6927 156.625C31.5914 156.403 32.6107 156.198 33.7613 155.988C51.0582 152.917 58.5242 139.119 63.6688 131.879C63.97 131.479 64.2514 131.067 64.5306 130.707L64.5896 130.74C67.064 132.045 69.3971 133.788 71.4577 135.857C71.4577 135.857 71.4657 135.866 71.4817 135.884C71.6609 136.048 71.8292 136.233 71.9974 136.417C75.0409 139.617 77.5085 143.593 79.1159 148.16L79.1269 148.14Z" stroke="black" stroke-width="1.59486" stroke-linecap="round" stroke-linejoin="round"/>
<path d="M72.9783 155.708C75.1488 154.714 75.812 151.513 74.4595 148.558C73.107 145.602 70.251 144.012 68.0805 145.005C65.91 145.998 65.2468 149.199 66.5993 152.155C67.9518 155.11 70.8077 156.701 72.9783 155.708Z" fill="black"/>
<path d="M61.3941 161.152C63.6536 160.383 64.6358 157.265 63.5878 154.188C62.5399 151.111 59.8586 149.241 57.5991 150.011C55.3395 150.78 54.3574 153.898 55.4053 156.975C56.4533 160.052 59.1346 161.922 61.3941 161.152Z" fill="black"/>
<path d="M71.4771 135.868C71.4771 135.868 71.4727 135.853 71.4487 135.826C73.5347 132.186 72.0096 127.148 68.7864 127.414C68.5235 127.422 68.289 127.472 68.0324 127.561C67.2211 127.857 66.4046 128.486 65.5258 129.48C65.4951 129.489 65.4731 129.528 65.4511 129.568C65.4357 129.572 65.4401 129.587 65.4247 129.592C65.1589 129.882 64.9061 130.219 64.638 130.56C64.5919 130.573 64.5743 130.628 64.5413 130.687C64.2468 131.052 63.9653 131.463 63.6642 131.863C63.5081 132.073 63.3827 132.274 63.2377 132.465L63.209 132.539C58.0881 139.922 50.5495 152.994 33.772 155.969C32.606 156.182 31.5825 156.373 30.7034 156.605C30.3768 156.681 30.0655 156.752 29.7893 156.83C20.9042 159.229 27.2393 161.994 30.3627 161.375C21.5381 164.104 15.1625 160.903 12.1176 154.77C8.24212 147.049 11.789 128.89 23.0281 117.356C23.5378 116.814 24.0714 116.298 24.6248 115.794C25.9576 114.588 27.4259 113.509 29.0034 112.582C32.652 110.423 36.9035 108.988 41.3176 108.186C49.837 106.604 58.9593 107.388 65.5515 109.832C67.4382 110.524 69.101 111.363 70.5006 112.326C77.7283 117.309 80.5458 124.981 71.4771 135.868Z" fill="#C9FFE8"/>
<path d="M63.2087 132.539C58.0878 139.922 50.5646 152.99 33.7718 155.968C32.6058 156.182 31.5822 156.372 30.7031 156.605C30.3809 156.696 30.0653 156.752 29.7934 156.845C20.9237 159.239 27.2588 162.005 30.3668 161.39C21.5575 164.115 15.1622 160.903 12.1174 154.77C8.06092 146.702 12.1435 127.215 24.6245 115.794C8.95101 139.538 15.5848 150.623 20.5582 153.028C27.1617 156.214 48.0781 151.29 63.2087 132.539Z" fill="#97DBBE"/>
<path d="M68.0407 127.575C67.225 127.856 66.3975 128.504 65.5297 129.479C67.3522 126.958 68.021 126.686 68.0407 127.575Z" fill="#97DBBE"/>
<path d="M65.5503 109.832C65.1873 115.636 59.5022 120.03 52.8346 119.662C46.1276 119.273 40.9681 114.219 41.3028 108.373C41.3008 108.307 41.3184 108.252 41.3164 108.186C49.8358 106.604 58.9581 107.388 65.5503 109.832Z" fill="#F0C9FF"/>
<path d="M29.9512 120.022C27.8331 121.616 25.0492 121.442 23.7217 119.68C23.2173 119.01 22.9872 118.197 23.0309 117.356C23.5406 116.814 24.0742 116.298 24.6276 115.794C25.9604 114.588 27.4287 113.509 29.0062 112.582C29.9434 112.731 30.7857 113.189 31.3665 113.953C32.6983 115.731 32.0583 118.448 29.9512 120.022Z" fill="#F0C9FF"/>
<path d="M34.3137 147.877C37.6135 146.367 39.1743 142.708 37.7999 139.704C36.4254 136.701 32.6361 135.49 29.3362 137C26.0364 138.51 24.4756 142.169 25.85 145.173C27.2245 148.176 31.0138 149.387 34.3137 147.877Z" fill="#F0C9FF"/>
<path d="M71.4935 135.863C71.4935 135.863 71.4891 135.848 71.4694 135.837C73.5468 132.166 72.0217 127.128 68.7875 127.413C67.4443 127.528 66.1314 128.629 64.6544 130.555C64.6127 130.584 64.5797 130.643 64.5423 130.687C64.2632 131.047 63.9774 131.443 63.6806 131.859C58.5513 139.095 51.07 152.897 33.7731 155.968C32.6224 156.178 31.5989 156.368 30.7044 156.605C30.3822 156.696 30.0666 156.752 29.7903 156.83C20.9206 159.224 27.2601 162.005 30.3681 161.39C21.5588 164.115 15.1635 160.903 12.1033 154.774C8.06222 146.702 12.1404 127.2 24.6258 115.794C36.6369 104.82 60.6059 105.529 70.5017 112.326C77.7447 117.304 80.5468 124.981 71.4935 135.863Z" stroke="black" stroke-width="1.59486" stroke-linecap="round" stroke-linejoin="round"/>
<path d="M71.4536 135.842C69.393 133.773 67.0599 132.029 64.5855 130.724C64.6032 130.669 64.6252 130.63 64.6385 130.56C66.1155 128.634 67.4437 127.529 68.7716 127.418C72.0058 127.133 73.5309 132.171 71.4536 135.842Z" fill="#214A38" stroke="black" stroke-width="1.59486" stroke-linecap="round" stroke-linejoin="round"/>
<path d="M29.7899 156.83C29.5654 158.087 29.9487 159.852 30.3676 161.391C27.2596 162.005 20.9048 159.228 29.7899 156.83Z" fill="#214A38" stroke="black" stroke-width="1.59486" stroke-linecap="round" stroke-linejoin="round"/>
<path d="M43.9121 166.144C45.8701 171.54 49.679 172.7 51.4357 171.937C53.1924 171.175 54.8832 167.017 53.5407 164.264" fill="#FFEEC9"/>
<path d="M43.9121 166.144C45.8701 171.54 49.679 172.7 51.4357 171.937C53.1924 171.175 54.8832 167.017 53.5407 164.264" stroke="black" stroke-width="1.59486" stroke-linecap="round" stroke-linejoin="round"/>
</g>
<g clip-path="url(#clip2_1602_1025)">
<path d="M131.345 63.3568C129.207 66.6572 113.517 71.7158 97.6502 78.2574C81.3225 84.98 64.6374 95.2257 63.4202 93.892C63.2858 93.7415 63.3273 93.5153 63.5215 93.2406C64.2378 92.2026 66.9753 90.2936 70.3549 86.8924C71.3854 85.858 72.5203 84.7438 73.7012 83.575L92.9277 64.1939C96.944 59.7716 100.163 55.6754 101.569 52.5691C102.311 50.9468 102.53 49.6019 102.107 48.6206C102.032 48.4448 101.914 48.2524 101.794 48.0956C101.261 47.4223 100.741 46.7783 100.285 46.1237C98.8675 44.1642 97.8084 42.3109 97.0764 40.6118C96.6535 39.6305 96.3335 38.7265 96.1119 37.8494C94.2381 30.5989 98.2666 25.963 102.734 24.0381C109.047 21.3181 117.861 20.4549 123.22 38.4123C124.28 42.0018 127.837 45.6617 130.41 49.6586C133.075 53.7894 134.672 58.2594 131.358 63.3861L131.345 63.3568Z" fill="#A6E9FF" stroke="#231F20" stroke-width="1.59486" stroke-linecap="round" stroke-linejoin="round"/>
<path d="M131.345 63.3571C129.207 66.6575 113.517 71.7161 97.6493 78.2577C81.3216 84.9804 64.6365 95.226 63.4193 93.8923C63.285 93.7418 63.3264 93.5156 63.5206 93.2409C74.9666 88.5695 77.3998 83.0928 82.8465 79.7734C88.6635 76.225 92.826 78.0263 99.6738 73.6864C108.722 67.9643 110.818 64.6473 118.317 61.4161C124.733 58.6518 128.567 61.0631 130.428 58.1256C131.432 56.5467 131.245 53.1713 130.396 49.6296C133.062 53.7604 134.658 58.2304 131.345 63.3571Z" fill="#6ABAD5"/>
<path d="M98.984 44.2003C101.916 50.5608 100.601 56.0941 93.3836 63.2848C93.2624 63.4065 93.1412 63.5282 93.0346 63.6436C91.5801 71.6335 85.1712 78.8059 77.8625 81.9551C63.224 88.2451 50.0434 83.9736 44.5835 70.8182C41.4232 63.2017 41.5449 55.786 44.0434 49.4128C44.0434 49.4128 44.0434 49.4128 44.06 49.3709C46.9213 42.1467 52.8489 36.2758 60.6117 32.9309C65.9285 30.64 71.5996 29.6552 76.9802 30.0112C79.7491 30.1901 82.4557 30.7084 84.9621 31.6082C91.0204 33.7387 96.0839 37.913 98.986 44.1647L98.984 44.2003Z" fill="#F2A6FF"/>
<path d="M93.3889 63.1779C93.3889 63.1779 93.3849 63.2491 93.3765 63.27C93.2553 63.3917 93.1341 63.5134 93.0275 63.6288C91.573 71.6188 85.1641 78.7912 77.8554 81.9403C63.2232 88.245 50.0426 83.9735 44.5827 70.8181C41.4224 63.2015 41.5441 55.7859 44.0426 49.4127C40.3472 69.1699 51.0057 78.4702 63.7955 79.9406C72.9302 80.9887 80.0525 76.7216 83.3753 73.1886C86.6981 69.6556 93.9273 61.1224 85.7968 50.9586C81.8481 46.0261 71.7147 41.8136 63.4324 47.2577C55.5517 52.4247 56.6549 61.9175 61.9662 65.3772C67.2857 68.8159 73.4707 62.8167 71.0977 57.3094C76.7603 68.0331 60.6076 71.0508 57.3677 64.4584C55.6268 60.9017 53.9 55.9671 56.6441 52.0582C59.124 46.8913 66.3559 38.6869 80.7298 43.8336C89.8485 48.5529 94.0944 54.4166 93.4036 63.1716L93.3889 63.1779Z" fill="#D182DF"/>
<path d="M95.7657 32.6144C93.2044 31.4257 92.6088 36.3712 94.1189 39.7147C95.629 43.0582 107.803 49.8301 91.3607 64.3474C94.2043 64.2162 100.877 53.9083 100.877 53.9083L102.283 50.1591C102.283 50.1591 95.0344 38.8166 95.7594 32.5997L95.7657 32.6144Z" fill="#D182DF"/>
<path d="M85.627 33.3192C85.4334 34.9656 82.8659 36.0198 79.9062 35.68C76.9402 35.3256 74.7026 33.7195 74.8899 32.0585C74.9908 31.1641 75.7957 30.4526 76.9843 30.0273C79.7532 30.2062 82.4598 30.7244 84.9662 31.6242C85.4573 32.1594 85.7034 32.7306 85.627 33.3192Z" fill="#F9D5FF"/>
<path d="M63.2079 39.5925C66.0553 38.3656 67.8154 36.0988 67.1392 34.5295C66.463 32.9602 63.6066 32.6826 60.7592 33.9095C57.9118 35.1364 56.1517 37.4032 56.8278 38.9725C57.504 40.5418 60.3605 40.8194 63.2079 39.5925Z" fill="#F9D5FF"/>
<path d="M48.1114 49.4312C48.7343 49.1628 49.0217 48.4403 48.7533 47.8174C48.4849 47.1945 47.7624 46.9072 47.1395 47.1756C46.5167 47.4439 46.2293 48.1664 46.4977 48.7893C46.766 49.4122 47.4885 49.6995 48.1114 49.4312Z" fill="#F9D5FF"/>
<path d="M92.9394 64.188C96.9494 59.7511 100.175 55.6696 101.566 52.5696C102.448 50.6266 102.585 49.0913 101.785 48.0814C101.252 47.4081 100.746 46.7578 100.276 46.1095C98.8582 44.1501 97.8055 42.3113 97.0671 40.5977C96.6506 39.631 96.3388 38.706 96.1172 37.8289C94.2498 30.5931 98.272 25.9425 102.739 24.0176C109.037 21.3039 117.867 20.4344 123.225 38.3918C125.403 45.7025 137.871 53.3198 131.357 63.351C129.205 66.6576 113.514 71.7163 97.6618 78.2516C81.3488 84.9679 64.6637 95.2136 63.4465 93.8799C62.7938 93.1712 66.0758 91.2361 70.3729 86.9012C71.4033 85.8668 72.532 84.7379 73.7192 83.5838" stroke="black" stroke-width="1.59486" stroke-linecap="round" stroke-linejoin="round"/>
<path d="M87.7653 74.5452C87.7653 74.5452 87.7506 74.5515 87.736 74.5578C86.7934 75.5544 85.7754 76.4966 84.6882 77.3992C81.2238 80.2813 77.4981 82.3554 73.708 83.5544C64.4513 86.5357 54.8643 84.3973 48.0696 76.2454C38.5083 64.7357 40.4305 47.3923 52.3375 37.5036C52.6971 37.2097 53.0567 36.9158 53.4226 36.6366C53.4666 36.6176 53.4896 36.5904 53.5272 36.5568C53.8032 36.351 54.0793 36.1453 54.3616 35.9541C54.623 35.7547 54.9053 35.5636 55.194 35.3871C55.3801 35.2548 55.5579 35.1435 55.7503 35.0258" stroke="black" stroke-width="1.59486" stroke-linecap="round" stroke-linejoin="round"/>
<path d="M93.2502 35.7997C85.2259 30.6784 70.8707 25.4542 55.7445 35.0456C55.552 35.1632 55.3742 35.2746 55.1881 35.4068C54.9141 35.577 54.6318 35.7681 54.3557 35.9739C54.0881 36.1587 53.812 36.3645 53.5213 36.5765C53.4774 36.5955 53.4544 36.6227 53.4168 36.6563" stroke="black" stroke-width="1.59486" stroke-linecap="round" stroke-linejoin="round"/>
<path d="M71.1009 57.3077C77.0161 63.3378 64.5218 72.7503 58.2568 65.5858C54.0843 60.8192 53.8937 53.2429 60.4506 46.8576C74.9023 32.7986 105.8 52.5157 87.712 74.6192" stroke="black" stroke-width="1.59486" stroke-linecap="round" stroke-linejoin="round"/>
<path d="M95.7643 32.6146C93.6294 32.0932 91.4392 36.5622 95.5272 42.0598C98.8783 46.5724 100.548 48.9963 100.226 51.5141C99.8343 54.6352 96.0668 59.9575 93.0143 63.6345" stroke="black" stroke-width="1.59486" stroke-linecap="round" stroke-linejoin="round"/>
<path d="M108.137 38.4329C109.188 38.657 110.668 38.0196 111.359 37.0444" stroke="black" stroke-width="1.59486" stroke-linecap="round" stroke-linejoin="round"/>
<path d="M100.238 28.777L92.8375 20.1049C92.636 19.8791 92.5244 19.5799 92.5113 19.3076C92.4948 18.3423 92.1179 17.3064 91.3772 16.5141C90.0446 15.0739 88.4422 15.99 87.3201 17.255C86.2043 18.5346 85.9825 19.6722 87.3151 21.1125C88.0558 21.9047 88.9906 22.3008 89.8701 22.2865C90.1067 22.2714 90.3709 22.4007 90.587 22.6202L98.7617 30.7505" fill="#A6E9FF"/>
<path d="M100.238 28.777L92.8375 20.1049C92.636 19.8791 92.5244 19.5799 92.5113 19.3076C92.4948 18.3423 92.1179 17.3064 91.3772 16.5141C90.0446 15.0739 88.4422 15.99 87.3201 17.255C86.2043 18.5346 85.9825 19.6722 87.3151 21.1125C88.0558 21.9047 88.9906 22.3008 89.8701 22.2865C90.1067 22.2714 90.3709 22.4007 90.587 22.6202L98.7617 30.7505" stroke="black" stroke-width="1.59486" stroke-linecap="round" stroke-linejoin="round"/>
<path d="M112.04 25.0477L111.745 13.522C111.734 13.2142 111.822 12.9334 111.995 12.7718C112.603 12.1277 112.964 11.1909 112.897 10.1084C112.759 8.13594 111.786 7.53053 110.09 7.46263C108.4 7.40938 106.633 7.94474 106.765 9.90252C106.832 10.9851 107.326 11.9705 108.016 12.6455C108.22 12.8357 108.346 13.1286 108.372 13.4301L109.591 24.7655" fill="#A6E9FF"/>
<path d="M112.04 25.0477L111.745 13.522C111.734 13.2142 111.822 12.9334 111.995 12.7718C112.603 12.1277 112.964 11.1909 112.897 10.1084C112.759 8.13594 111.786 7.53053 110.09 7.46263C108.4 7.40938 106.633 7.94474 106.765 9.90252C106.832 10.9851 107.326 11.9705 108.016 12.6455C108.22 12.8357 108.346 13.1286 108.372 13.4301L109.591 24.7655" stroke="black" stroke-width="1.59486" stroke-linecap="round" stroke-linejoin="round"/>
<path d="M115.78 34.5324C117.155 33.9399 117.79 32.3448 117.197 30.9696C116.605 29.5944 115.01 28.96 113.634 29.5525C112.259 30.145 111.625 31.7402 112.217 33.1153C112.81 34.4905 114.405 35.1249 115.78 34.5324Z" fill="black"/>
<path d="M103.272 39.9215C104.648 39.3289 105.282 37.7338 104.69 36.3586C104.097 34.9835 102.502 34.349 101.127 34.9415C99.7515 35.5341 99.1171 37.1292 99.7096 38.5044C100.302 39.8795 101.897 40.514 103.272 39.9215Z" fill="black"/>
</g>
<g clip-path="url(#clip3_1602_1025)">
<path d="M120.477 158.507C115.242 158.626 110.244 160.891 111.088 162.693C111.932 164.495 118.497 167.241 124.139 168.488" fill="#B2E479"/>
<path d="M120.477 158.507C115.242 158.626 110.244 160.891 111.088 162.693C111.932 164.495 118.497 167.241 124.139 168.488" stroke="black" stroke-width="1.56497" stroke-linecap="round" stroke-linejoin="round"/>
<path d="M166.347 170.352C170.87 172.991 174.146 177.393 172.535 178.561C170.924 179.729 163.851 178.953 158.311 177.312" fill="#B2E479"/>
<path d="M166.347 170.352C170.87 172.991 174.146 177.393 172.535 178.561C170.924 179.729 163.851 178.953 158.311 177.312" stroke="black" stroke-width="1.56497" stroke-linecap="round" stroke-linejoin="round"/>
<path d="M140.595 175.323C118.093 169.512 107.423 156.38 113.806 137.986C111.375 153.344 122.028 164.354 142.09 169.535C162.152 174.716 176.834 170.248 182.131 155.307C178.693 174.817 163.294 181.185 140.595 175.323Z" fill="#B2E479"/>
<path d="M182.111 155.302C176.814 170.243 162.359 174.77 142.085 169.534C121.811 164.298 111.37 153.342 113.801 137.985C114.287 136.542 114.894 135.067 115.604 133.569C118.097 127.796 121.505 125.929 124.376 122.759L180.228 137.182C181.22 141.544 183.184 145.138 182.664 151.097C182.542 152.569 182.361 153.961 182.111 155.302Z" fill="#D5FFA6"/>
<path d="M180.027 127.336C180.824 130.758 180.641 133.41 178.565 144.075L122.713 129.651C126.289 119.745 126.632 117.231 128.936 114.691C129.074 114.533 128.61 113.702 128.141 112.449C127.376 110.344 126.654 107.006 128.924 103.471C129.82 102.069 131.19 100.645 133.212 99.2603C139.554 95.9844 145.939 99.7347 148.345 105.253C151.317 105.197 155.335 105.41 158.441 106.212C160.169 106.658 164.579 108.169 167.627 110.2C172.973 105.52 180.318 107.999 182.81 111.115C184.517 114.207 185.283 116.748 185.449 118.795C185.558 120.003 185.462 121.062 185.227 121.971C184.656 124.183 183.271 125.539 182.081 126.33C180.963 127.092 180.027 127.336 180.027 127.336Z" fill="#D5FFA6"/>
<path d="M123.211 130.232C123.193 128.239 123.436 126.233 123.949 124.248C124.884 120.627 126.602 117.418 128.938 114.691" stroke="black" stroke-width="1.56497" stroke-miterlimit="10" stroke-linecap="round"/>
<path d="M180.145 127.819C180.88 131.354 180.852 135.032 179.909 138.684C179.396 140.669 178.634 142.557 177.656 144.277" stroke="black" stroke-width="1.56497" stroke-miterlimit="10" stroke-linecap="round"/>
<path d="M148.357 105.272C151.63 105.051 155.033 105.332 158.442 106.212C161.852 107.092 164.897 108.445 167.627 110.2" stroke="black" stroke-width="1.56497" stroke-miterlimit="10" stroke-linecap="round"/>
<path d="M131.08 117.2C128.018 114.599 126.54 110.371 127.612 106.219C129.111 100.415 135.025 96.9161 140.844 98.4187C145.678 99.667 148.897 103.973 148.978 108.73" stroke="black" stroke-width="1.56497" stroke-linecap="round" stroke-linejoin="round"/>
<path d="M176.922 129.039C180.865 128.23 184.201 125.261 185.274 121.11C186.772 115.306 183.277 109.377 177.473 107.878C172.64 106.63 167.738 108.839 165.364 112.962" stroke="black" stroke-width="1.56497" stroke-linecap="round" stroke-linejoin="round"/>
<path d="M172.912 125.515C176.845 126.53 180.857 124.165 181.873 120.232C182.889 116.299 180.524 112.287 176.59 111.271C172.657 110.256 168.645 112.621 167.63 116.554C166.614 120.487 168.979 124.499 172.912 125.515Z" fill="white" stroke="black" stroke-width="1.56497" stroke-miterlimit="10"/>
<path d="M136.293 116.058C140.226 117.073 144.238 114.708 145.254 110.775C146.27 106.842 143.905 102.83 139.971 101.814C136.038 100.798 132.026 103.163 131.01 107.097C129.995 111.03 132.36 115.042 136.293 116.058Z" fill="white" stroke="black" stroke-width="1.56497" stroke-miterlimit="10"/>
<path d="M180.225 137.197C182.843 143.708 183.484 151.05 181.61 158.308C176.84 176.779 159.562 180.221 140.575 175.318C121.589 170.415 108.168 159.045 112.938 140.574C114.813 133.316 118.914 127.199 124.376 122.759" stroke="black" stroke-width="1.56497" stroke-miterlimit="10" stroke-linecap="round"/>
<path d="M136.893 113.723C139.538 114.406 142.235 112.816 142.918 110.171C143.601 107.527 142.011 104.829 139.366 104.147C136.722 103.464 134.025 105.054 133.342 107.698C132.659 110.343 134.249 113.04 136.893 113.723Z" fill="black"/>
<path d="M173.52 123.182C176.165 123.865 178.862 122.275 179.545 119.63C180.228 116.986 178.638 114.288 175.993 113.605C173.349 112.923 170.651 114.513 169.969 117.157C169.286 119.802 170.876 122.499 173.52 123.182Z" fill="black"/>
<path d="M151.396 117.469L159.17 119.476" stroke="black" stroke-width="1.56497" stroke-linecap="round" stroke-linejoin="round"/>
<path d="M125.758 156.088C123.543 167.606 124.639 174.063 126.589 174.777C128.538 175.49 132.742 163.403 133.33 160.5" fill="#D5FFA6"/>
<path d="M125.758 156.088C123.543 167.606 124.639 174.063 126.589 174.777C128.538 175.49 132.742 163.403 133.33 160.5" stroke="black" stroke-width="1.56497" stroke-linecap="round" stroke-linejoin="round"/>
<path d="M162.764 165.645C159.125 176.795 155.039 181.914 152.988 181.594C150.937 181.275 153.111 168.663 154.002 165.839" fill="#D5FFA6"/>
<path d="M162.764 165.645C159.125 176.795 155.039 181.914 152.988 181.594C150.937 181.275 153.111 168.663 154.002 165.839" stroke="black" stroke-width="1.56497" stroke-linecap="round" stroke-linejoin="round"/>
</g>
</g>
<defs>
<clipPath id="clip0_1602_1025">
<rect width="200" height="200" fill="white"/>
</clipPath>
<clipPath id="clip1_1602_1025">
<rect width="73.4114" height="84.8466" fill="white" transform="translate(0.835938 118.597) rotate(-15.8)"/>
</clipPath>
<clipPath id="clip2_1602_1025">
<rect width="89.7428" height="68.9777" fill="white" transform="translate(30 40.512) rotate(-23.3101)"/>
</clipPath>
<clipPath id="clip3_1602_1025">
<rect width="88.7806" height="87.8103" fill="white" transform="translate(116.389 91.2952) rotate(14.4801)"/>
</clipPath>
</defs>
</svg>
