<svg width="350" height="350" viewBox="0 0 350 350" fill="none" xmlns="http://www.w3.org/2000/svg">
<g clip-path="url(#clip0_1427_1008)">
<rect width="350" height="350" fill="black"/>
<g opacity="0.6" clip-path="url(#clip1_1427_1008)">
<path d="M350 0H0V350H350V0Z" fill="#DF8E5D"/>
<path d="M350.004 101.15V254.709L326.296 254.253L58.7434 249.033L0.0195312 247.876V126.548C27.6847 111.681 60.9347 100.618 85.1152 104.422C156.424 115.637 190.846 171.044 262.717 129.394C293.867 111.331 324.302 103.996 350.02 101.15H350.004Z" fill="#E2674D"/>
<path d="M86.0875 236.387H57.9505L49.8396 74.291C49.2309 62.1171 58.9396 51.9062 71.1288 51.9062C83.2266 51.9062 92.9049 61.9649 92.4331 74.0628L86.1027 236.402L86.0875 236.387Z" fill="#C04233"/>
<path d="M69.7883 119.897V134.734H31.7601C22.234 134.734 14.3666 127.293 13.834 117.767L11.8101 80.895C11.4601 74.5342 16.5275 69.1929 22.8883 69.1929C29.4318 69.1929 34.5601 74.8385 33.9362 81.3516L31.334 108.302C30.6949 115.149 36.3101 120.962 43.1731 120.582L69.8188 119.897H69.7883Z" fill="#C04233"/>
<path d="M74.0781 145.356V158.062H106.643C114.8 158.062 121.541 151.686 121.982 143.545L123.717 111.984C124.022 106.536 119.685 101.971 114.237 101.971C108.637 101.971 104.239 106.795 104.787 112.38L107.024 135.449C107.572 141.308 102.763 146.284 96.889 145.965L74.0781 145.386V145.356Z" fill="#C04233"/>
<path d="M290.103 207.885H307.755L312.838 106.248C313.218 98.6091 307.131 92.2178 299.492 92.2178C291.898 92.2178 285.842 98.5178 286.131 106.111L290.103 207.9V207.885Z" fill="#C04233"/>
<path d="M300.316 134.841V144.139H324.162C330.142 144.139 335.073 139.468 335.392 133.502L336.67 110.372C336.883 106.385 333.718 103.037 329.731 103.037C325.623 103.037 322.412 106.583 322.807 110.661L324.436 127.552C324.831 131.844 321.316 135.496 317.009 135.252L300.301 134.826L300.316 134.841Z" fill="#C04233"/>
<path d="M297.62 150.804V158.763H277.198C272.085 158.763 267.855 154.761 267.581 149.663L266.485 129.865C266.303 126.457 269.011 123.581 272.435 123.581C275.951 123.581 278.705 126.609 278.355 130.109L276.955 144.565C276.62 148.248 279.618 151.368 283.316 151.154L297.62 150.789V150.804Z" fill="#C04233"/>
<path d="M350 152.265V322.289L0 315.456V188.361C9.87609 182.654 20.1935 178.53 30.8304 176.491C59.0739 171.104 101.241 195.893 116.048 195.559C130.839 195.209 142.952 182.472 169.415 182.806C195.878 183.156 212.024 214.839 238.928 213.804C265.848 212.785 277.504 162.141 350 152.265Z" fill="#C04233"/>
<path d="M350 263.413V350H0V272.193C9.22174 267.567 18.8391 263.276 28.8217 259.35C34.5283 257.098 40.3565 254.983 46.2913 252.989C50.3848 251.604 54.5239 250.28 58.7239 249.033C67.7783 246.309 77.0609 243.874 86.5413 241.743C105.335 237.513 124.95 234.47 145.174 232.765C158.033 231.654 171.135 231.091 184.45 231.091C188.239 231.091 192.013 231.137 195.787 231.228C217.046 231.746 237.772 233.709 257.737 236.98C272.97 239.476 287.761 242.717 302.02 246.674C309.735 248.804 317.283 251.163 324.663 253.689C325.211 253.872 325.743 254.054 326.276 254.252C329.046 255.196 331.785 256.185 334.493 257.22C339.759 259.167 344.917 261.252 349.985 263.413H350Z" fill="#530C09"/>
<path opacity="0.2" d="M20.8048 23.9977C20.8657 19.9043 63.9461 24.7738 65.0265 20.0108C66.3048 14.3043 89.6331 22.1108 127.479 21.8217C165.324 21.5325 152.998 26.0673 173.968 27.1477C192.822 28.1217 204.068 38.0282 140.687 37.9825C77.3222 37.9369 103.177 25.9303 73.5483 27.3456C43.92 28.7608 20.7439 28.6847 20.8048 23.9977Z" fill="white"/>
<path opacity="0.2" d="M336.76 73.2109C334.052 61.3869 287.821 72.2978 230.254 67.2C192.56 63.8674 182.365 68.6761 183.597 70.8522C187.676 78.0348 254.389 72.1761 283.941 74.6565C313.493 77.1369 337.81 77.7609 336.76 73.2109Z" fill="white"/>
</g>
</g>
<defs>
<clipPath id="clip0_1427_1008">
<rect width="350" height="350" fill="white"/>
</clipPath>
<clipPath id="clip1_1427_1008">
<rect width="350" height="350" fill="white"/>
</clipPath>
</defs>
</svg>
