<svg width="230" height="230" viewBox="0 0 230 230" fill="none" xmlns="http://www.w3.org/2000/svg">
<g clip-path="url(#clip0_1427_1008)">
<rect width="230" height="230" fill="black"/>
<g clip-path="url(#clip1_1427_1008)">
<path d="M230 0H0V230H230V0Z" fill="#DF8E5D"/>
<path d="M230.002 66.4702V167.38L214.422 167.08L38.6017 163.65L0.0117188 162.89V83.1602C18.1917 73.3902 40.0417 66.1202 55.9317 68.6202C102.792 75.9902 125.412 112.4 172.642 85.0302C193.112 73.1602 213.112 68.3402 230.012 66.4702H230.002Z" fill="#E2674D"/>
<path d="M56.5722 155.34H38.0822L32.7522 48.8199C32.3522 40.8199 38.7322 34.1099 46.7422 34.1099C54.6922 34.1099 61.0522 40.7199 60.7422 48.6699L56.5822 155.35L56.5722 155.34Z" fill="#C04233"/>
<path d="M45.8612 78.7897V88.5397H20.8712C14.6112 88.5397 9.44124 83.6497 9.09124 77.3897L7.76124 53.1597C7.53124 48.9797 10.8612 45.4697 15.0412 45.4697C19.3412 45.4697 22.7112 49.1797 22.3012 53.4597L20.5912 71.1697C20.1712 75.6697 23.8612 79.4897 28.3712 79.2397L45.8812 78.7897H45.8612Z" fill="#C04233"/>
<path d="M48.6797 95.5198V103.87H70.0797C75.4397 103.87 79.8697 99.6798 80.1597 94.3298L81.2997 73.5898C81.4997 70.0098 78.6497 67.0098 75.0697 67.0098C71.3897 67.0098 68.4997 70.1798 68.8597 73.8498L70.3297 89.0098C70.6897 92.8598 67.5297 96.1298 63.6697 95.9198L48.6797 95.5398V95.5198Z" fill="#C04233"/>
<path d="M190.64 136.61H202.24L205.58 69.8201C205.83 64.8001 201.83 60.6001 196.81 60.6001C191.82 60.6001 187.84 64.7401 188.03 69.7301L190.64 136.62V136.61Z" fill="#C04233"/>
<path d="M197.35 88.61V94.72H213.02C216.95 94.72 220.19 91.65 220.4 87.73L221.24 72.53C221.38 69.91 219.3 67.71 216.68 67.71C213.98 67.71 211.87 70.04 212.13 72.72L213.2 83.82C213.46 86.64 211.15 89.04 208.32 88.88L197.34 88.6L197.35 88.61Z" fill="#C04233"/>
<path d="M195.579 99.1V104.33H182.159C178.799 104.33 176.019 101.7 175.839 98.35L175.119 85.34C174.999 83.1 176.779 81.21 179.029 81.21C181.339 81.21 183.149 83.2 182.919 85.5L181.999 95C181.779 97.42 183.749 99.47 186.179 99.33L195.579 99.09V99.1Z" fill="#C04233"/>
<path d="M230 100.06V211.79L0 207.3V123.78C6.49 120.03 13.27 117.32 20.26 115.98C38.82 112.44 66.53 128.73 76.26 128.51C85.98 128.28 93.94 119.91 111.33 120.13C128.72 120.36 139.33 141.18 157.01 140.5C174.7 139.83 182.36 106.55 230 100.06Z" fill="#C04233"/>
<path d="M230 173.1V230H0V178.87C6.06 175.83 12.38 173.01 18.94 170.43C22.69 168.95 26.52 167.56 30.42 166.25C33.11 165.34 35.83 164.47 38.59 163.65C44.54 161.86 50.64 160.26 56.87 158.86C69.22 156.08 82.11 154.08 95.4 152.96C103.85 152.23 112.46 151.86 121.21 151.86C123.7 151.86 126.18 151.89 128.66 151.95C142.63 152.29 156.25 153.58 169.37 155.73C179.38 157.37 189.1 159.5 198.47 162.1C203.54 163.5 208.5 165.05 213.35 166.71C213.71 166.83 214.06 166.95 214.41 167.08C216.23 167.7 218.03 168.35 219.81 169.03C223.27 170.31 226.66 171.68 229.99 173.1H230Z" fill="#530C09"/>
<path opacity="0.2" d="M13.672 15.7699C13.712 13.0799 42.022 16.2799 42.732 13.1499C43.572 9.39986 58.9019 14.5299 83.7719 14.3399C108.642 14.1499 100.542 17.1299 114.322 17.8399C126.712 18.4799 134.102 24.9899 92.452 24.9599C50.812 24.9299 67.802 17.0399 48.332 17.9699C28.862 18.8999 13.632 18.8499 13.672 15.7699Z" fill="white"/>
<path opacity="0.2" d="M221.3 48.11C219.52 40.34 189.14 47.51 151.31 44.16C126.54 41.97 119.84 45.13 120.65 46.56C123.33 51.28 167.17 47.43 186.59 49.06C206.01 50.69 221.99 51.1 221.3 48.11Z" fill="white"/>
</g>
</g>
<defs>
<clipPath id="clip0_1427_1008">
<rect width="230" height="230" fill="white"/>
</clipPath>
<clipPath id="clip1_1427_1008">
<rect width="230" height="230" fill="white"/>
</clipPath>
</defs>
</svg>
