<svg width="230" height="230" viewBox="0 0 230 230" fill="none" xmlns="http://www.w3.org/2000/svg">
<g clip-path="url(#clip0_1421_912)">
<rect width="230" height="230" fill="black"/>
<g clip-path="url(#clip1_1421_912)">
<path d="M230 0H0V230H230V0Z" fill="#282C5F"/>
<path d="M33.84 0L30.42 59.94L30.26 62.73L28.91 86.28L27.17 116.8L26.31 131.85L14.33 130.72L0.85 129.46L0 129.38V75.61L0.89 70.05L4.39 48.31L12.15 0H33.84Z" fill="#3B417B"/>
<path d="M120.041 127.17L99.4014 130.26L85.4614 132.35L83.5014 108.8L74.4414 0H96.2114L120.041 127.17Z" fill="#3B417B"/>
<path d="M168.229 0L167.169 104.08L167.109 109.96L166.899 130.69V130.87L166.749 130.86L162.929 130.68L131.969 129.24L132.829 121.63L146.559 0H168.229Z" fill="#3B417B"/>
<path d="M226.878 127.26H226.838L192.038 130.17L191.808 117.13L191.278 86.92L189.738 0H211.548L223.058 95.58L226.878 127.26Z" fill="#3B417B"/>
<path d="M203.041 135.53C203.041 135.53 171.591 128.83 155.601 105.15C139.611 81.4798 145.151 49.7998 145.151 49.7998C145.151 49.7998 176.601 56.4998 192.591 80.1798C208.581 103.85 203.041 135.53 203.041 135.53Z" fill="#505592"/>
<path d="M176.119 128.98C176.119 128.98 163.869 99.25 174.359 72.68C184.849 46.11 214.109 32.77 214.109 32.77C214.109 32.77 226.359 62.5 215.869 89.07C205.379 115.64 176.119 128.98 176.119 128.98Z" fill="#505592"/>
<path d="M37.05 116.96C32.71 131.4 25.61 141.54 25.61 141.54C25.61 141.54 20.42 137.61 14.33 130.72C12.38 128.54 10.36 126.07 8.37 123.32C5.32 119.1 2.36 114.24 0 108.87V58.3401C1.42 54.5201 2.96 51.1301 4.39 48.3101C7.21 42.7101 9.56 39.3501 9.56 39.3501C9.56 39.3501 19.81 47.1101 28.46 59.9401C29.07 60.8401 29.68 61.7701 30.26 62.7301C34.55 69.6501 38.2 77.8601 39.63 86.9801C39.64 87.0301 39.65 87.0801 39.65 87.1301C41.3 97.7901 39.68 108.17 37.05 116.96Z" fill="#505592"/>
<path d="M32.6389 153.74C32.6389 153.74 18.8589 120.3 30.6589 90.41C42.4589 60.53 75.3689 45.52 75.3689 45.52C75.3689 45.52 89.1489 78.96 77.3489 108.85C65.5489 138.73 32.6389 153.74 32.6389 153.74Z" fill="#505592"/>
<path d="M94.5514 183.57C94.5514 183.57 76.3714 152.3 84.0114 121.1C91.6514 89.8901 122.221 70.5601 122.221 70.5601C122.221 70.5601 140.401 101.83 132.761 133.03C125.121 164.24 94.5514 183.57 94.5514 183.57Z" fill="#505592"/>
<path d="M30.42 59.9402C30.04 59.9302 29.67 59.9302 29.29 59.9302C29.01 59.9302 28.74 59.9302 28.46 59.9402C18.01 60.1302 8.42 63.8902 0.89 70.0502C0.59 70.3002 0.29 70.5402 0 70.8002V138.88C7.86 145.65 18.1 149.75 29.29 149.75C37.65 149.75 45.49 147.46 52.19 143.48C57 140.62 61.23 136.9 64.66 132.52C65.68 131.22 66.63 129.85 67.5 128.44C71.37 122.19 73.75 114.92 74.14 107.12C74.18 106.37 74.2 105.6 74.2 104.84C74.2 80.4202 54.7 60.5402 30.42 59.9402Z" fill="#8086CF"/>
<path d="M83.8689 147.24C101.675 147.24 116.109 132.805 116.109 115C116.109 97.1941 101.675 82.7598 83.8689 82.7598C66.0632 82.7598 51.6289 97.1941 51.6289 115C51.6289 132.805 66.0632 147.24 83.8689 147.24Z" fill="#8086CF"/>
<path d="M187.341 139.33C209.266 139.33 227.041 121.556 227.041 99.6302C227.041 77.7045 209.266 59.9302 187.341 59.9302C165.415 59.9302 147.641 77.7045 147.641 99.6302C147.641 121.556 165.415 139.33 187.341 139.33Z" fill="#8086CF"/>
<path d="M229.999 52.75V132.1C224.499 131.87 219.299 130.53 214.599 128.28C208.919 125.58 203.979 121.56 200.179 116.62C195.019 109.92 191.949 101.52 191.949 92.42C191.949 90.48 192.089 88.58 192.359 86.72C194.469 72.05 204.609 59.96 218.179 55.07C221.889 53.72 225.859 52.92 229.999 52.75Z" fill="#8086CF"/>
<path d="M124.231 195.19C146.157 195.19 163.931 177.416 163.931 155.49C163.931 133.564 146.157 115.79 124.231 115.79C102.306 115.79 84.5312 133.564 84.5312 155.49C84.5312 177.416 102.306 195.19 124.231 195.19Z" fill="#8086CF"/>
<path d="M147.639 135.64C158.602 135.64 167.489 126.753 167.489 115.79C167.489 104.827 158.602 95.9399 147.639 95.9399C136.676 95.9399 127.789 104.827 127.789 115.79C127.789 126.753 136.676 135.64 147.639 135.64Z" fill="#8086CF"/>
<path d="M229.999 104.02V141.44C223.619 152.12 211.949 159.27 198.599 159.27C188.929 159.27 180.149 155.52 173.609 149.39C169.249 145.3 165.889 140.15 163.949 134.36C163.549 133.16 163.209 131.94 162.929 130.68C162.359 128.12 162.059 125.46 162.059 122.73C162.059 117.83 163.019 113.15 164.769 108.88C165.459 107.22 166.259 105.61 167.169 104.08C172.349 95.3799 181.029 89.0099 191.279 86.9199C191.639 86.8499 191.999 86.7799 192.359 86.7199C194.379 86.3699 196.469 86.1899 198.599 86.1899C208.009 86.1899 216.579 89.7399 223.059 95.5699C225.769 98.0199 228.119 100.87 229.999 104.02Z" fill="#A7ADEC"/>
<path d="M155.53 157.14C169.342 157.14 180.54 145.943 180.54 132.13C180.54 118.317 169.342 107.12 155.53 107.12C141.717 107.12 130.52 118.317 130.52 132.13C130.52 145.943 141.717 157.14 155.53 157.14Z" fill="#A7ADEC"/>
<path d="M230.002 130.35V188.2C222.202 196.66 211.022 201.96 198.602 201.96C180.102 201.96 164.352 190.19 158.432 173.72C156.802 169.21 155.922 164.34 155.922 159.27C155.922 158.55 155.942 157.84 155.982 157.13C156.252 151.52 157.612 146.2 159.852 141.37C160.992 138.89 162.372 136.55 163.952 134.36C164.822 133.14 165.752 131.98 166.752 130.86C166.802 130.8 166.852 130.75 166.902 130.69C170.142 127.1 173.982 124.06 178.272 121.73C182.412 119.49 186.982 117.9 191.812 117.13C194.022 116.77 196.292 116.59 198.602 116.59C199.132 116.59 199.662 116.6 200.182 116.62C210.382 116.99 219.672 120.94 226.832 127.26H226.842C227.942 128.24 229.002 129.27 230.002 130.35Z" fill="#A7ADEC"/>
<path d="M127.79 171.61C137.665 171.61 145.67 163.605 145.67 153.73C145.67 143.855 137.665 135.85 127.79 135.85C117.915 135.85 109.91 143.855 109.91 153.73C109.91 163.605 117.915 171.61 127.79 171.61Z" fill="#A7ADEC"/>
<path d="M151.56 175.09C161.435 175.09 169.44 167.085 169.44 157.21C169.44 147.335 161.435 139.33 151.56 139.33C141.685 139.33 133.68 147.335 133.68 157.21C133.68 167.085 141.685 175.09 151.56 175.09Z" fill="#A7ADEC"/>
<path d="M67.94 122.73C67.94 124.67 67.79 126.58 67.5 128.44C67.18 130.47 66.69 132.45 66.05 134.36C64.11 140.15 60.75 145.3 56.39 149.39C49.85 155.52 41.07 159.27 31.4 159.27C18.05 159.27 6.38 152.12 0 141.44V104.02C5.98 94.0099 16.61 87.0999 28.91 86.2799C29.73 86.2199 30.56 86.1899 31.4 86.1899C34.24 86.1899 37 86.5099 39.65 87.1299C51.28 89.8099 60.78 98.0399 65.23 108.88C66.98 113.15 67.94 117.83 67.94 122.73Z" fill="#A7ADEC"/>
<path d="M74.4709 157.14C88.2836 157.14 99.4809 145.943 99.4809 132.13C99.4809 118.317 88.2836 107.12 74.4709 107.12C60.6583 107.12 49.4609 118.317 49.4609 132.13C49.4609 145.943 60.6583 157.14 74.4709 157.14Z" fill="#A7ADEC"/>
<path d="M74.08 159.27C74.08 164.34 73.2 169.21 71.57 173.72C65.65 190.19 49.9 201.96 31.4 201.96C18.98 201.96 7.8 196.66 0 188.2V130.35C0.28 130.05 0.56 129.75 0.85 129.46C3.11 127.14 5.63 125.08 8.37 123.32C13.9 119.78 20.3 117.47 27.17 116.8C28.56 116.66 29.97 116.59 31.4 116.59C33.32 116.59 35.2 116.72 37.05 116.96C42.31 117.66 47.26 119.31 51.73 121.73C56.73 124.45 61.12 128.13 64.66 132.52C65.14 133.12 65.61 133.73 66.05 134.36C67.63 136.55 69.01 138.89 70.15 141.37C72.39 146.2 73.75 151.52 74.02 157.13C74.06 157.84 74.08 158.55 74.08 159.27Z" fill="#A7ADEC"/>
<path d="M102.208 171.61C112.083 171.61 120.088 163.605 120.088 153.73C120.088 143.855 112.083 135.85 102.208 135.85C92.3333 135.85 84.3281 143.855 84.3281 153.73C84.3281 163.605 92.3333 171.61 102.208 171.61Z" fill="#A7ADEC"/>
<path d="M78.4386 175.09C88.3134 175.09 96.3186 167.085 96.3186 157.21C96.3186 147.335 88.3134 139.33 78.4386 139.33C68.5637 139.33 60.5586 147.335 60.5586 157.21C60.5586 167.085 68.5637 175.09 78.4386 175.09Z" fill="#A7ADEC"/>
<path d="M230 173.1V230H0V178.87C33.78 161.91 75.75 151.86 121.22 151.86C161.27 151.86 198.59 159.65 230 173.1Z" fill="#33687B"/>
<path d="M46.4363 194.088C59.7087 191.058 69.3928 183.892 68.0665 178.082C66.7402 172.272 54.9056 170.019 41.6333 173.049C28.3609 176.079 18.6768 183.245 20.0031 189.055C21.3294 194.864 33.164 197.118 46.4363 194.088Z" fill="#2C5E71"/>
<path d="M223.451 186.905C225.315 182.184 220.967 176.043 213.74 173.189C206.513 170.335 199.142 171.848 197.278 176.569C195.414 181.289 199.761 187.43 206.989 190.284C214.216 193.139 221.587 191.626 223.451 186.905Z" fill="#2C5E71"/>
<path d="M195.05 227.91C195.03 228.62 194.94 229.32 194.78 230H125.82C125.28 228.54 125.03 227.02 125.08 225.48C125.46 214.5 141.43 206.15 160.75 206.82C180.08 207.5 195.43 216.94 195.05 227.91Z" fill="#2C5E71"/>
<path d="M39.67 227.55C39.64 228.38 39.55 229.2 39.39 230H0V210.82C4.34 208.13 9.85 206.61 15.79 206.82C29.36 207.3 40.05 216.57 39.67 227.55Z" fill="#2C5E71"/>
<path d="M110.391 165.36C119.68 164.725 127.059 161.986 126.872 159.242C126.684 156.498 119.001 154.789 109.711 155.424C100.422 156.059 93.0427 158.798 93.2302 161.542C93.4178 164.286 101.101 165.995 110.391 165.36Z" fill="#2C5E71"/>
<path d="M92.3852 211.155C99.2561 210.685 104.587 206.802 104.292 202.482C103.996 198.163 98.1869 195.041 91.316 195.511C84.445 195.981 79.1144 199.863 79.4096 204.183C79.7049 208.503 85.5142 211.624 92.3852 211.155Z" fill="#2C5E71"/>
<path d="M160.058 192C164.427 192 167.968 189.699 167.968 186.86C167.968 184.021 164.427 181.72 160.058 181.72C155.69 181.72 152.148 184.021 152.148 186.86C152.148 189.699 155.69 192 160.058 192Z" fill="#2C5E71"/>
<path d="M42.8385 164.67C32.5885 163.3 30.1885 158.93 32.1185 156.22C34.0485 153.51 40.6285 157.17 42.3785 161.89C42.7585 158.49 42.5385 145.88 48.3385 146.34C54.1385 146.79 51.6085 157.24 45.8585 164.17L42.8485 164.68L42.8385 164.67Z" fill="#33687B"/>
</g>
</g>
<defs>
<clipPath id="clip0_1421_912">
<rect width="230" height="230" fill="white"/>
</clipPath>
<clipPath id="clip1_1421_912">
<rect width="230" height="230" fill="white"/>
</clipPath>
</defs>
</svg>
