<svg width="350" height="350" viewBox="0 0 350 350" fill="none" xmlns="http://www.w3.org/2000/svg">
<g clip-path="url(#clip0_1421_912)">
<rect width="350" height="350" fill="black"/>
<g opacity="0.6" clip-path="url(#clip1_1421_912)">
<path d="M350 0H0V350H350V0Z" fill="#282C5F"/>
<path d="M51.4957 0L46.2913 91.213L46.0478 95.4587L43.9935 131.296L41.3457 177.739L40.037 200.641L21.8065 198.922L1.29348 197.004L0 196.883V115.059L1.35435 106.598L6.68043 73.5152L18.4891 0H51.4957Z" fill="#3B417B"/>
<path d="M182.673 193.52L151.264 198.222L130.051 201.402L127.068 165.565L113.281 0H146.41L182.673 193.52Z" fill="#3B417B"/>
<path d="M255.999 0L254.386 158.383L254.294 167.33L253.975 198.876V199.15L253.746 199.135L247.933 198.861L200.82 196.67L202.129 185.089L223.022 0H255.999Z" fill="#3B417B"/>
<path d="M345.248 193.657H345.187L292.23 198.085L291.88 178.241L291.074 132.27L288.73 0H321.92L339.435 145.448L345.248 193.657Z" fill="#3B417B"/>
<path d="M308.975 206.241C308.975 206.241 261.116 196.045 236.783 160.01C212.451 123.991 220.881 75.7822 220.881 75.7822C220.881 75.7822 268.74 85.9779 293.072 122.013C317.405 158.032 308.975 206.241 308.975 206.241Z" fill="#505592"/>
<path d="M268.007 196.274C268.007 196.274 249.365 151.032 265.328 110.6C281.291 70.1672 325.818 49.8672 325.818 49.8672C325.818 49.8672 344.459 95.1085 328.496 135.541C312.533 175.974 268.007 196.274 268.007 196.274Z" fill="#505592"/>
<path d="M56.3804 177.983C49.7761 199.956 38.9717 215.387 38.9717 215.387C38.9717 215.387 31.0739 209.406 21.8065 198.922C18.8391 195.604 15.7652 191.846 12.737 187.661C8.09565 181.239 3.5913 173.843 0 165.672V88.7782C2.16087 82.9652 4.50435 77.8065 6.68043 73.5152C10.9717 64.9934 14.5478 59.8804 14.5478 59.8804C14.5478 59.8804 30.1457 71.6891 43.3087 91.213C44.237 92.5825 45.1652 93.9978 46.0478 95.4586C52.5761 105.989 58.1304 118.483 60.3065 132.361C60.3217 132.437 60.337 132.513 60.337 132.589C62.8478 148.811 60.3826 164.606 56.3804 177.983Z" fill="#505592"/>
<path d="M49.6678 233.952C49.6678 233.952 28.6982 183.065 46.6547 137.58C64.6113 92.1108 114.692 69.2695 114.692 69.2695C114.692 69.2695 135.661 120.156 117.705 165.641C99.7482 211.111 49.6678 233.952 49.6678 233.952Z" fill="#505592"/>
<path d="M143.884 279.346C143.884 279.346 116.219 231.761 127.845 184.283C139.471 136.789 185.991 107.374 185.991 107.374C185.991 107.374 213.656 154.959 202.03 202.437C190.404 249.931 143.884 279.346 143.884 279.346Z" fill="#505592"/>
<path d="M46.2913 91.2135C45.713 91.1982 45.15 91.1982 44.5717 91.1982C44.1457 91.1982 43.7348 91.1982 43.3087 91.2135C27.4065 91.5026 12.813 97.2243 1.35435 106.598C0.897826 106.979 0.441304 107.344 0 107.74V211.34C11.9609 221.642 27.5435 227.881 44.5717 227.881C57.2935 227.881 69.2239 224.396 79.4196 218.34C86.7391 213.987 93.1761 208.326 98.3957 201.661C99.9478 199.683 101.393 197.598 102.717 195.453C108.607 185.942 112.228 174.879 112.822 163.009C112.883 161.868 112.913 160.696 112.913 159.54C112.913 122.379 83.2391 92.1265 46.2913 91.2135Z" fill="#8086CF"/>
<path d="M127.627 224.061C154.723 224.061 176.688 202.095 176.688 175C176.688 147.904 154.723 125.939 127.627 125.939C100.532 125.939 78.5664 147.904 78.5664 175C78.5664 202.095 100.532 224.061 127.627 224.061Z" fill="#8086CF"/>
<path d="M285.085 212.024C318.45 212.024 345.498 184.976 345.498 151.611C345.498 118.246 318.45 91.1982 285.085 91.1982C251.72 91.1982 224.672 118.246 224.672 151.611C224.672 184.976 251.72 212.024 285.085 212.024Z" fill="#8086CF"/>
<path d="M350 80.272V201.022C341.63 200.672 333.717 198.633 326.565 195.209C317.922 191.1 310.404 184.983 304.622 177.465C296.769 167.27 292.098 154.487 292.098 140.639C292.098 137.687 292.311 134.796 292.722 131.965C295.932 109.642 311.363 91.2437 332.013 83.8024C337.659 81.7481 343.7 80.5307 350 80.272Z" fill="#8086CF"/>
<path d="M189.046 297.028C222.411 297.028 249.459 269.98 249.459 236.615C249.459 203.25 222.411 176.202 189.046 176.202C155.681 176.202 128.633 203.25 128.633 236.615C128.633 269.98 155.681 297.028 189.046 297.028Z" fill="#8086CF"/>
<path d="M224.667 206.409C241.35 206.409 254.874 192.885 254.874 176.202C254.874 159.52 241.35 145.996 224.667 145.996C207.985 145.996 194.461 159.52 194.461 176.202C194.461 192.885 207.985 206.409 224.667 206.409Z" fill="#8086CF"/>
<path d="M349.996 158.291V215.235C340.288 231.487 322.529 242.367 302.214 242.367C287.499 242.367 274.138 236.661 264.185 227.333C257.551 221.109 252.438 213.272 249.485 204.461C248.877 202.635 248.359 200.778 247.933 198.861C247.066 194.965 246.609 190.917 246.609 186.763C246.609 179.307 248.07 172.185 250.733 165.687C251.783 163.161 253.001 160.711 254.385 158.383C262.268 145.143 275.477 135.45 291.075 132.27C291.622 132.163 292.17 132.057 292.718 131.965C295.792 131.433 298.972 131.159 302.214 131.159C316.533 131.159 329.575 136.561 339.435 145.433C343.559 149.161 347.135 153.498 349.996 158.291Z" fill="#A7ADEC"/>
<path d="M236.676 239.126C257.695 239.126 274.735 222.087 274.735 201.067C274.735 180.048 257.695 163.009 236.676 163.009C215.657 163.009 198.617 180.048 198.617 201.067C198.617 222.087 215.657 239.126 236.676 239.126Z" fill="#A7ADEC"/>
<path d="M350.004 198.359V286.391C338.134 299.265 321.121 307.33 302.221 307.33C274.069 307.33 250.102 289.419 241.093 264.356C238.613 257.493 237.273 250.082 237.273 242.367C237.273 241.272 237.304 240.191 237.365 239.111C237.776 230.574 239.845 222.478 243.254 215.128C244.989 211.354 247.089 207.793 249.493 204.461C250.817 202.604 252.232 200.839 253.754 199.135C253.83 199.043 253.906 198.967 253.982 198.876C258.913 193.413 264.756 188.787 271.284 185.241C277.584 181.832 284.539 179.413 291.889 178.241C295.252 177.693 298.706 177.419 302.221 177.419C303.028 177.419 303.834 177.435 304.626 177.465C320.147 178.028 334.284 184.039 345.18 193.656H345.195C346.869 195.148 348.482 196.715 350.004 198.359Z" fill="#A7ADEC"/>
<path d="M194.463 261.146C209.49 261.146 221.671 248.964 221.671 233.937C221.671 218.91 209.49 206.729 194.463 206.729C179.436 206.729 167.254 218.91 167.254 233.937C167.254 248.964 179.436 261.146 194.463 261.146Z" fill="#A7ADEC"/>
<path d="M230.634 266.441C245.661 266.441 257.843 254.26 257.843 239.233C257.843 224.206 245.661 212.024 230.634 212.024C215.608 212.024 203.426 224.206 203.426 239.233C203.426 254.26 215.608 266.441 230.634 266.441Z" fill="#A7ADEC"/>
<path d="M103.387 186.763C103.387 189.715 103.159 192.622 102.717 195.452C102.23 198.541 101.485 201.554 100.511 204.461C97.5587 213.272 92.4457 221.109 85.8109 227.333C75.8587 236.661 62.4978 242.367 47.7826 242.367C27.4674 242.367 9.7087 231.487 0 215.235V158.291C9.1 143.059 25.2761 132.543 43.9935 131.296C45.2413 131.204 46.5043 131.159 47.7826 131.159C52.1043 131.159 56.3043 131.646 60.337 132.589C78.0348 136.667 92.4913 149.191 99.263 165.687C101.926 172.185 103.387 179.307 103.387 186.763Z" fill="#A7ADEC"/>
<path d="M113.324 239.126C134.344 239.126 151.383 222.087 151.383 201.067C151.383 180.048 134.344 163.009 113.324 163.009C92.3051 163.009 75.2656 180.048 75.2656 201.067C75.2656 222.087 92.3051 239.126 113.324 239.126Z" fill="#A7ADEC"/>
<path d="M112.73 242.367C112.73 250.082 111.391 257.493 108.911 264.356C99.9022 289.419 75.9348 307.33 47.7826 307.33C28.8826 307.33 11.8696 299.265 0 286.391V198.359C0.426087 197.902 0.852174 197.446 1.29348 197.004C4.73261 193.474 8.56739 190.339 12.737 187.661C21.1522 182.274 30.8913 178.759 41.3457 177.739C43.4609 177.526 45.6065 177.419 47.7826 177.419C50.7043 177.419 53.5652 177.617 56.3804 177.982C64.3848 179.048 71.9174 181.559 78.7196 185.241C86.3283 189.38 93.0087 194.98 98.3957 201.661C99.1261 202.574 99.8413 203.502 100.511 204.461C102.915 207.793 105.015 211.354 106.75 215.128C110.159 222.478 112.228 230.574 112.639 239.111C112.7 240.191 112.73 241.272 112.73 242.367Z" fill="#A7ADEC"/>
<path d="M155.533 261.146C170.56 261.146 182.742 248.964 182.742 233.937C182.742 218.91 170.56 206.729 155.533 206.729C140.506 206.729 128.324 218.91 128.324 233.937C128.324 248.964 140.506 261.146 155.533 261.146Z" fill="#A7ADEC"/>
<path d="M119.365 266.441C134.392 266.441 146.574 254.26 146.574 239.233C146.574 224.206 134.392 212.024 119.365 212.024C104.338 212.024 92.1562 224.206 92.1562 239.233C92.1562 254.26 104.338 266.441 119.365 266.441Z" fill="#A7ADEC"/>
<path d="M350 263.413V350H0V272.193C51.4043 246.385 115.272 231.091 184.465 231.091C245.411 231.091 302.202 242.946 350 263.413Z" fill="#33687B"/>
<path d="M70.6641 295.351C90.8612 290.74 105.598 279.835 103.58 270.994C101.561 262.153 83.5522 258.724 63.3551 263.335C43.1581 267.946 28.4213 278.851 30.4397 287.692C32.458 296.533 50.4671 299.962 70.6641 295.351Z" fill="#2C5E71"/>
<path d="M340.035 284.42C342.872 277.237 336.256 267.892 325.258 263.549C314.26 259.205 303.044 261.508 300.207 268.692C297.37 275.875 303.986 285.22 314.984 289.563C325.983 293.907 337.199 291.604 340.035 284.42Z" fill="#2C5E71"/>
<path d="M296.818 346.819C296.787 347.9 296.65 348.965 296.407 350H191.468C190.646 347.778 190.265 345.465 190.342 343.121C190.92 326.413 215.222 313.706 244.622 314.726C274.037 315.761 297.396 330.126 296.818 346.819Z" fill="#2C5E71"/>
<path d="M60.3674 346.272C60.3217 347.535 60.1848 348.783 59.9413 350H0V320.813C6.60435 316.72 14.9891 314.406 24.0283 314.726C44.6783 315.456 60.9456 329.563 60.3674 346.272Z" fill="#2C5E71"/>
<path d="M167.986 251.635C182.123 250.669 193.351 246.501 193.066 242.325C192.78 238.15 181.089 235.548 166.952 236.514C152.816 237.48 141.587 241.649 141.872 245.824C142.158 250 153.849 252.602 167.986 251.635Z" fill="#2C5E71"/>
<path d="M140.586 321.322C151.042 320.607 159.154 314.699 158.705 308.125C158.255 301.552 149.415 296.802 138.959 297.517C128.503 298.231 120.392 304.14 120.841 310.713C121.29 317.287 130.131 322.037 140.586 321.322Z" fill="#2C5E71"/>
<path d="M243.568 292.174C250.216 292.174 255.605 288.672 255.605 284.352C255.605 280.033 250.216 276.531 243.568 276.531C236.92 276.531 231.531 280.033 231.531 284.352C231.531 288.672 236.92 292.174 243.568 292.174Z" fill="#2C5E71"/>
<path d="M65.1877 250.585C49.5899 248.5 45.9377 241.85 48.8747 237.726C51.8116 233.602 61.8247 239.171 64.4877 246.354C65.066 241.18 64.7312 221.991 73.5573 222.691C82.3834 223.376 78.5334 239.278 69.7834 249.824L65.2029 250.6L65.1877 250.585Z" fill="#33687B"/>
</g>
</g>
<defs>
<clipPath id="clip0_1421_912">
<rect width="350" height="350" fill="white"/>
</clipPath>
<clipPath id="clip1_1421_912">
<rect width="350" height="350" fill="white"/>
</clipPath>
</defs>
</svg>
