<svg width="350" height="350" viewBox="0 0 350 350" fill="none" xmlns="http://www.w3.org/2000/svg">
<g clip-path="url(#clip0_1422_952)">
<rect width="350" height="350" fill="black"/>
<g opacity="0.6" clip-path="url(#clip1_1422_952)">
<path d="M355.001 -4H-2.89453V354H355.001V-4Z" fill="#99C3B3"/>
<path d="M297.846 354H0.216939L-2.89519 353.767L-4 353.689L-2.89519 352.319V166.813L70.5511 76.3011L86.0495 57.2026L96.8331 43.9255L118.494 17.2311C120.112 15.2388 123.131 15.2543 124.733 17.2311L196.624 106.482L222.765 138.951L225.784 142.702L232.631 151.201L260.671 238.397L289.396 327.742L291.948 335.664L297.846 354Z" fill="#1A3834"/>
<path d="M239.432 284.392L96.1646 294.946L40.333 299.055L7.2199 301.499L-2.89453 302.246V92.9092L25.8616 57.2026L38.0922 42.0265C39.2749 40.5478 41.5312 40.5478 42.7293 42.0109L55.0534 57.2026L70.5518 76.3011L145.834 169.054L159.761 186.223L172.07 201.414L197.309 232.514L239.416 284.392H239.432Z" fill="#426B62"/>
<path d="M355 88.1461V332.567L353.88 332.489L308.069 329.111L289.396 327.742L81.957 312.456L96.1639 294.946L145.569 234.086L172.084 201.414L211.811 152.462L222.765 138.951L242.73 114.374L287.28 59.475L307.011 35.1621C308.38 33.4655 310.948 33.4811 312.317 35.1621L331.908 59.475L355 88.1461Z" fill="#1A3834"/>
<path d="M355 335.975V354H-2.89519V353.766L-4 353.688L-2.89519 352.319L27.1991 315.242L40.3323 299.055L85.6138 243.269L124.251 195.655L145.834 169.054L196.624 106.482L213.911 85.1729C215.281 83.4919 217.848 83.4919 219.218 85.1885L242.73 114.373L254.198 128.615L310.994 199.141L329.107 255.488L346.115 308.347L353.88 332.489L355 335.975Z" fill="#426B62"/>
<path d="M355.001 136.103V302.059C352.137 304.207 349.165 306.308 346.115 308.347C334.616 316.068 321.825 323.025 308.07 329.111C302.826 331.431 297.457 333.625 291.949 335.664C268.452 344.459 242.777 350.747 216.386 354H138.536C97.534 348.568 58.6946 334.59 27.1998 315.243C20.1508 310.931 13.4753 306.324 7.2199 301.499C3.71875 298.806 0.342086 296.02 -2.89453 293.171V183.717C29.6895 188.542 76.3092 202.582 124.252 195.655C136.078 193.943 147.966 190.955 159.761 186.223C174.45 180.37 188.968 171.809 202.942 159.7C205.883 157.147 208.839 154.734 211.796 152.462C216.448 148.866 221.117 145.629 225.769 142.702C235.277 136.725 244.784 132.071 254.183 128.616C291.747 114.794 327.629 120.039 354.985 136.103H355.001Z" fill="#BBC763"/>
<path d="M355.001 265.434V354H-2.89453V274.415C6.53523 269.683 16.3696 265.294 26.5774 261.278C32.4126 258.974 38.3723 256.811 44.441 254.772C57.652 250.305 71.4232 246.46 85.6145 243.269C104.832 238.942 124.89 235.829 145.57 234.086C158.718 232.949 172.116 232.374 185.732 232.374C189.606 232.374 193.465 232.42 197.324 232.514C219.063 233.043 240.256 235.051 260.672 238.397C276.248 240.95 291.373 244.265 305.953 248.312C313.843 250.491 321.561 252.904 329.108 255.488C332.5 256.64 335.845 257.838 339.16 259.099C344.544 261.091 349.819 263.224 355.001 265.434Z" fill="#172729"/>
<path opacity="0.4" d="M355 21.7604V59.4749H240.987C238.233 59.4749 236.008 57.2179 236.008 54.4629C236.008 51.7078 238.233 49.482 240.987 49.482H262.943C265.168 39.9872 273.633 32.9362 283.81 32.9362C286.642 32.9362 289.365 33.481 291.839 34.4927C293.411 19.7991 305.875 8.31201 321 8.31201C332.671 8.31201 342.692 15.114 347.453 24.9668C349.694 23.4414 352.262 22.3363 355 21.7604Z" fill="white"/>
<path opacity="0.4" d="M6.45703 54.0116C6.45703 55.7705 7.88861 57.2025 9.64697 57.2025H114.853C116.611 57.2025 118.027 55.7705 118.027 54.0116C118.027 52.2527 116.611 50.8363 114.853 50.8363H100.864C99.4475 44.797 94.048 40.2986 87.5747 40.2986C85.7697 40.2986 84.0269 40.6411 82.4553 41.2948C81.4594 31.9401 73.5235 24.6089 63.8759 24.6089C56.4379 24.6089 50.058 28.936 47.0237 35.2244C44.8452 33.7457 42.1999 32.8896 39.3834 32.8896C31.8365 32.8896 25.7211 39.0067 25.7211 46.5558C25.7211 48.0657 25.9545 49.4977 26.4214 50.8363H9.64697C7.88861 50.8363 6.45703 52.2527 6.45703 54.0116Z" fill="white"/>
<path d="M88.0272 354C91.6528 329.453 90.0034 306.183 59.8468 300.175C42.5434 296.735 31.8532 278.431 26.5781 261.278C32.4134 258.974 38.3731 256.811 44.4418 254.771C53.5759 265.231 68.2029 267.348 93.7379 270.228C143.408 275.831 170.934 331.383 175.4 354H88.0272Z" fill="#193934"/>
<path d="M355 346.233V354H261.201C257.513 326.574 260.687 289.093 287.234 265.745C294.796 259.099 301.051 253.495 305.953 248.312C313.842 250.491 321.56 252.904 329.107 255.488C332.499 256.639 335.845 257.838 339.159 259.099C337.697 263.488 335.425 267.504 332.142 270.913C304.739 299.444 332.375 324.426 355 346.233Z" fill="#193934"/>
</g>
</g>
<defs>
<clipPath id="clip0_1422_952">
<rect width="350" height="350" fill="white"/>
</clipPath>
<clipPath id="clip1_1422_952">
<rect width="359" height="358" fill="white" transform="translate(-4 -4)"/>
</clipPath>
</defs>
</svg>
