<svg width="350" height="350" viewBox="0 0 350 350" fill="none" xmlns="http://www.w3.org/2000/svg">
<g clip-path="url(#clip0_1422_952)">
<rect width="350" height="350" fill="black"/>
<g opacity="0.6" clip-path="url(#clip1_1422_952)">
<path d="M350.002 -0.0112305H0.0820312V350.011H350.002V-0.0112305Z" fill="#99C3B3"/>
<path d="M294.119 350.011H3.12297L0.0801871 349.783L-1 349.707L0.0801871 348.368V166.995L71.8898 78.5004L87.0429 59.8275L97.5861 46.8463L118.764 20.7468C120.346 18.7988 123.298 18.814 124.865 20.7468L195.153 108.009L220.712 139.754L223.664 143.422L230.358 151.731L257.773 236.984L285.858 324.338L288.353 332.084L294.119 350.011Z" fill="#1A3834"/>
<path d="M237.008 281.955L96.9338 292.273L42.3463 296.29L9.97107 298.68L0.0820312 299.41V94.7384L28.1973 59.8274L40.1555 44.9895C41.3117 43.5438 43.5177 43.5438 44.6892 44.9743L56.7386 59.8274L71.8917 78.5004L145.497 169.187L159.113 185.972L171.147 200.826L195.824 231.232L236.993 281.955H237.008Z" fill="#426B62"/>
<path d="M350.001 90.0817V329.056L348.906 328.98L304.116 325.677L285.86 324.338L83.043 309.394L96.9333 292.273L145.237 232.769L171.162 200.826L210.003 152.964L220.714 139.754L240.233 115.725L283.79 62.0495L303.082 38.2784C304.42 36.6196 306.931 36.6349 308.27 38.2784L327.424 62.0495L350.001 90.0817Z" fill="#1A3834"/>
<path d="M350 332.388V350.011H0.0801872V349.783L-1 349.707L0.0801872 348.367L29.5039 312.117L42.3444 296.29L86.6169 241.748L124.393 195.195L145.495 169.186L195.153 108.009L212.056 87.1746C213.394 85.5311 215.905 85.5311 217.243 87.1899L240.232 115.724L251.444 129.649L306.975 198.603L324.684 253.694L341.313 305.376L348.905 328.979L350 332.388Z" fill="#426B62"/>
<path d="M350.002 136.969V299.228C347.202 301.328 344.297 303.382 341.315 305.376C330.072 312.924 317.566 319.727 304.117 325.677C298.99 327.945 293.741 330.09 288.355 332.084C265.382 340.682 240.279 346.831 214.476 350.011H138.361C98.2726 344.7 60.2987 331.034 29.5057 312.118C22.6138 307.902 16.0871 303.397 9.97107 298.68C6.54794 296.047 3.24652 293.323 0.0820312 290.538V183.522C31.9399 188.24 77.5208 201.967 124.395 195.195C135.957 193.521 147.581 190.599 159.113 185.972C173.475 180.25 187.669 171.88 201.332 160.04C204.207 157.545 207.098 155.186 209.988 152.964C214.537 149.448 219.101 146.283 223.65 143.422C232.946 137.578 242.242 133.028 251.431 129.649C288.157 116.135 323.241 121.264 349.987 136.969H350.002Z" fill="#BBC763"/>
<path d="M350.002 263.419V350.011H0.0820312V272.2C9.30166 267.574 18.9168 263.282 28.8972 259.356C34.6024 257.103 40.4293 254.988 46.3627 252.994C59.2793 248.627 72.7436 244.868 86.6187 241.748C105.408 237.517 125.019 234.474 145.238 232.769C158.094 231.658 171.193 231.095 184.505 231.095C188.293 231.095 192.066 231.141 195.839 231.232C217.093 231.75 237.814 233.713 257.775 236.985C273.004 239.481 287.792 242.722 302.048 246.679C309.761 248.809 317.307 251.168 324.686 253.694C328.003 254.821 331.273 255.992 334.514 257.225C339.778 259.173 344.936 261.258 350.002 263.419Z" fill="#172729"/>
<path opacity="0.4" d="M350.001 25.175V62.0491H238.529C235.836 62.0491 233.66 59.8425 233.66 57.1488C233.66 54.4552 235.836 52.2789 238.529 52.2789H259.995C262.171 42.9957 270.447 36.1018 280.397 36.1018C283.166 36.1018 285.829 36.6345 288.248 37.6236C289.784 23.2575 301.971 12.0264 316.758 12.0264C328.169 12.0264 337.967 18.6768 342.622 28.31C344.813 26.8186 347.323 25.7381 350.001 25.175Z" fill="white"/>
<path opacity="0.4" d="M9.22266 56.7074C9.22266 58.4271 10.6223 59.8272 12.3415 59.8272H115.203C116.922 59.8272 118.306 58.4271 118.306 56.7074C118.306 54.9878 116.922 53.6029 115.203 53.6029H101.525C100.141 47.6982 94.8617 43.3001 88.5327 43.3001C86.7679 43.3001 85.064 43.6349 83.5274 44.274C82.5537 35.1278 74.7946 27.96 65.362 27.96C58.0897 27.96 51.852 32.1907 48.8853 38.3389C46.7554 36.8931 44.169 36.0561 41.4153 36.0561C34.0365 36.0561 28.0575 42.0369 28.0575 49.4178C28.0575 50.894 28.2857 52.2941 28.7421 53.6029H12.3415C10.6223 53.6029 9.22266 54.9878 9.22266 56.7074Z" fill="white"/>
<path d="M88.9781 350.011C92.523 326.011 90.9103 303.26 61.4258 297.386C44.5079 294.022 34.056 276.126 28.8984 259.355C34.6037 257.103 40.4306 254.987 46.364 252.994C55.2946 263.22 69.5956 265.29 94.5617 268.105C143.124 273.584 170.038 327.898 174.404 350.011H88.9781Z" fill="#193934"/>
<path d="M349.999 342.417V350.011H258.29C254.684 323.196 257.788 286.55 283.742 263.723C291.136 257.225 297.252 251.746 302.045 246.678C309.758 248.809 317.304 251.168 324.683 253.694C328 254.82 331.271 255.992 334.511 257.225C333.081 261.516 330.86 265.442 327.65 268.775C300.858 296.671 327.878 321.096 349.999 342.417Z" fill="#193934"/>
</g>
</g>
<defs>
<clipPath id="clip0_1422_952">
<rect width="350" height="350" fill="white"/>
</clipPath>
<clipPath id="clip1_1422_952">
<rect width="351" height="350.022" fill="white" transform="translate(-1 -0.0112305)"/>
</clipPath>
</defs>
</svg>
