<svg width="230" height="230" viewBox="0 0 230 230" fill="none" xmlns="http://www.w3.org/2000/svg">
<g clip-path="url(#clip0_1422_952)">
<rect width="230" height="230" fill="black"/>
<g clip-path="url(#clip1_1422_952)">
<path d="M229.998 -0.00732422H0.0507812V230.007H229.998V-0.00732422Z" fill="#99C3B3"/>
<path d="M193.275 230.007H2.04922L0.049681 229.857L-0.660156 229.807L0.049681 228.927V109.74L47.2389 51.586L57.1966 39.3152L64.125 30.7847L78.0418 13.6336C79.0816 12.3535 81.0211 12.3635 82.0509 13.6336L128.24 70.9772L145.036 91.8385L146.976 94.2487L151.375 99.709L169.391 155.733L187.847 213.136L189.486 218.227L193.275 230.007Z" fill="#1A3834"/>
<path d="M155.745 185.284L63.6962 192.065L27.8244 194.705L6.54929 196.275L0.0507812 196.755V62.2565L18.5265 39.315L26.3847 29.5644C27.1446 28.6143 28.5942 28.6143 29.3641 29.5544L37.2823 39.315L47.24 51.5858L95.6089 111.18L104.557 122.21L112.465 131.971L128.681 151.952L155.735 185.284H155.745Z" fill="#426B62"/>
<path d="M229.996 59.1968V216.237L229.276 216.187L199.843 214.017L187.846 213.137L54.5664 203.316L63.6943 192.065L95.437 152.963L112.473 131.971L137.997 100.519L145.036 91.8389L157.863 76.0479L186.486 40.7756L199.163 25.1546C200.043 24.0646 201.693 24.0746 202.572 25.1546L215.16 40.7756L229.996 59.1968Z" fill="#1A3834"/>
<path d="M229.997 218.427V230.007H0.0496811V229.857L-0.660156 229.807L0.0496811 228.927L19.3852 205.106L27.8233 194.705L56.9166 158.863L81.741 128.271L95.6078 111.18L128.24 70.9772L139.348 57.2863C140.228 56.2063 141.877 56.2063 142.757 57.2963L157.864 76.0475L165.232 85.1981L201.723 130.511L213.361 166.713L224.288 200.675L229.277 216.186L229.997 218.427Z" fill="#426B62"/>
<path d="M229.998 90.0087V196.636C228.158 198.016 226.249 199.366 224.289 200.676C216.901 205.636 208.683 210.106 199.845 214.017C196.476 215.507 193.027 216.917 189.487 218.227C174.391 223.877 157.895 227.918 140.938 230.008H90.9199C64.576 226.517 39.6217 217.537 19.3863 205.106C14.8574 202.336 10.5684 199.376 6.54929 196.276C4.29981 194.545 2.1303 192.755 0.0507812 190.925V120.601C20.986 123.701 50.9391 132.721 81.742 128.271C89.3403 127.171 96.9786 125.251 104.557 122.211C113.995 118.451 123.323 112.95 132.3 105.17C134.19 103.53 136.09 101.979 137.989 100.519C140.978 98.2093 143.978 96.1291 146.967 94.249C153.076 90.4088 159.184 87.4186 165.223 85.1984C189.357 76.3179 212.412 79.6881 229.988 90.0087H229.998Z" fill="#BBC763"/>
<path d="M229.998 173.104V230.008H0.0507812V178.875C6.10939 175.834 12.4279 173.014 18.9864 170.434C22.7356 168.954 26.5647 167.564 30.4638 166.254C38.9519 163.384 47.7998 160.913 56.9177 158.863C69.2649 156.083 82.152 154.083 95.4389 152.963C103.887 152.233 112.495 151.863 121.243 151.863C123.732 151.863 126.212 151.893 128.691 151.953C142.658 152.293 156.275 153.583 169.392 155.733C179.4 157.373 189.117 159.503 198.485 162.103C203.554 163.504 208.513 165.054 213.362 166.714C215.541 167.454 217.691 168.224 219.82 169.034C223.28 170.314 226.669 171.684 229.998 173.104Z" fill="#172729"/>
<path opacity="0.4" d="M229.999 16.5439V40.7754H156.746C154.977 40.7754 153.547 39.3253 153.547 37.5552C153.547 35.7851 154.977 34.355 156.746 34.355H170.853C172.283 28.2546 177.721 23.7243 184.26 23.7243C186.079 23.7243 187.829 24.0743 189.419 24.7244C190.428 15.2838 198.437 7.90332 208.154 7.90332C215.653 7.90332 222.091 12.2736 225.15 18.604C226.59 17.6239 228.24 16.9139 229.999 16.5439Z" fill="white"/>
<path opacity="0.4" d="M6.05859 37.2647C6.05859 38.3948 6.97838 39.3149 8.10812 39.3149H75.7026C76.8324 39.3149 77.7422 38.3948 77.7422 37.2647C77.7422 36.1347 76.8324 35.2246 75.7026 35.2246H66.7147C65.8049 31.3444 62.3357 28.4542 58.1766 28.4542C57.0169 28.4542 55.8972 28.6742 54.8874 29.0942C54.2476 23.0838 49.1487 18.3735 42.9501 18.3735C38.1712 18.3735 34.0722 21.1537 32.1226 25.194C30.7229 24.2439 29.0233 23.6939 27.2137 23.6939C22.3649 23.6939 18.4358 27.6241 18.4358 32.4744C18.4358 33.4445 18.5857 34.3646 18.8857 35.2246H8.10812C6.97838 35.2246 6.05859 36.1347 6.05859 37.2647Z" fill="white"/>
<path d="M58.4692 230.007C60.7987 214.236 59.7389 199.285 40.3634 195.425C29.2459 193.215 22.3775 181.454 18.9883 170.433C22.7374 168.953 26.5665 167.563 30.4657 166.253C36.3343 172.973 45.7322 174.333 62.1384 176.184C94.0511 179.784 111.737 215.476 114.606 230.007H58.4692Z" fill="#193934"/>
<path d="M229.996 225.017V230.007H169.729C167.36 212.386 169.4 188.305 186.456 173.304C191.315 169.033 195.334 165.433 198.483 162.103C203.552 163.503 208.511 165.053 213.359 166.713C215.539 167.453 217.688 168.223 219.818 169.033C218.878 171.854 217.419 174.434 215.309 176.624C197.703 194.955 215.459 211.006 229.996 225.017Z" fill="#193934"/>
</g>
</g>
<defs>
<clipPath id="clip0_1422_952">
<rect width="230" height="230" fill="white"/>
</clipPath>
<clipPath id="clip1_1422_952">
<rect width="230.657" height="230.015" fill="white" transform="translate(-0.65625 -0.00732422)"/>
</clipPath>
</defs>
</svg>
